<svg xmlns="http://www.w3.org/2000/svg" width="222" height="80" viewBox="0 0 222 80">
  <g id="app-store" transform="translate(-366 -881)">
    <rect id="app-store-2" data-name="app-store" width="222" height="80" rx="10" transform="translate(366 881)" fill="#fff"/>
    <text id="Download_on_the" data-name="Download on the" transform="translate(437 914)" fill="#6D0C17" font-size="15" font-family="SegoeUI, Segoe UI" letter-spacing="0.022em"><tspan x="0" y="0">Download on the</tspan></text>
    <text id="App_Store" data-name="App Store" transform="translate(437 935)" fill="#6D0C17" font-size="25" font-family="SegoeUI, Segoe UI" letter-spacing="0.022em"><tspan x="0" y="0">App Store</tspan></text>
    <g id="apple" transform="translate(385.582 902)">
      <path id="Path_1489" data-name="Path 1489" d="M55.831,147.833c-5.368-.033-9.809-11.827-9.809-17.833,0-9.811,6.839-11.959,9.474-11.959a10.277,10.277,0,0,1,3.575.946,7.557,7.557,0,0,0,2.041.63,6.034,6.034,0,0,0,1.464-.511,11.067,11.067,0,0,1,4.414-1.148H67a8.809,8.809,0,0,1,7.57,4.115l.552.893-.795.645a7.281,7.281,0,0,0-3.206,5.934,6.733,6.733,0,0,0,3.472,6.192c.5.322,1.012.654,1.012,1.38,0,.474-3.517,10.657-8.624,10.657a6.545,6.545,0,0,1-2.912-.761,5.572,5.572,0,0,0-2.592-.672,6.3,6.3,0,0,0-2.053.6,9.47,9.47,0,0,1-3.56.894Z" transform="translate(-46.022 -109.015)" fill="#6D0C17"/>
      <path id="Path_1490" data-name="Path 1490" d="M261.93,0c.133,5.161-3.3,8.742-6.722,8.517C254.644,4.4,258.633,0,261.93,0Z" transform="translate(-240.422)" fill="#6D0C17"/>
    </g>
  </g>
</svg>
