<svg xmlns="http://www.w3.org/2000/svg" width="670.772" height="594.372" viewBox="0 0 670.772 594.372">
  <g id="banner-img" transform="translate(-1129.228 -372.612)">
    <path id="Path_95" data-name="Path 95" d="M7.741,200.942C-15.93,140.412,6.955,34.972,186.361,6.9S556.1,37.806,602.77,158.283,597.233,280.472,415.8,372.226,31.412,261.472,7.741,200.942Z" transform="translate(1181.089 571.27)" fill="#de6666" opacity="0.261"/>
    <path id="Path_1" data-name="Path 1" d="M7.744,204.048c-23.682-61.466-.786-168.535,178.7-197.041S556.364,38.39,603.052,160.73s-24.678,55.463-206.2,148.635S31.426,265.513,7.744,204.048Z" transform="translate(1129.228 607.573)" fill="#cc66de"/>
    <g id="Layer_2" data-name="Layer 2" transform="translate(1232.485 372.612)">
      <g id="Character" transform="translate(0 0)">
        <path id="Path_2" data-name="Path 2" d="M144.9,60.56c5.605,6.4,8.408,14.324,11.868,21.832,2.249,4.913,4.429,9.861,6.435,14.843s3.944,10.38,5.916,15.6a4.429,4.429,0,0,0-.381,6.608c.692.934,2.007,3.079-.311,2.664-3.045-.554-3.46,1.661-4.705,2.837-2.837,2.318-6.574,3.7-7.577,7.854,0,.311-1.384.519-2.041.45a6.92,6.92,0,0,0-7.37,4.463h0c-2.457.692-4.221-1.142-6.366-1.7q-3.84-7.127-7.716-14.186c-.484-.865-.865-2.18-2.145-1.661s-.588,1.488-.381,2.318a133.417,133.417,0,0,1,2.041,22.282c-.692,0-1.73,0-1.8.761s1.107.969,1.9,1.107v1.9a16.5,16.5,0,0,0-3.91,0c-1.349.346-3.46,1.28-2.284,2.941,2.422,3.91-.692,2.906-2.457,3.079a9.539,9.539,0,0,0-2.63,0c-1.661.83-6.3,0-2.526,4.256.623.692.45,1.661-.381,1.7a62.034,62.034,0,0,0-13.459,3.7c-3.6-26.019-7.612-52.383-13.632-78.194A51.274,51.274,0,0,1,88.33,73.119a143.242,143.242,0,0,0,42.938-5.986c1.176-.346,2.768,0,3.114-1.9A34.218,34.218,0,0,0,144.9,60.56Z" transform="translate(217.369 148.966)" fill="#272565"/>
        <path id="Path_3" data-name="Path 3" d="M65.8,77.4c-1.488,6.92-3.079,13.84-3.979,20.933a55.359,55.359,0,0,0,.208,17.853c.381,1.972,1.176,4.048-.865,5.674l-5.294,1.8-.969.554h0c-5.5.8-10.83,2.422-16.435,2.837a93.176,93.176,0,0,1-35.326-4.671C-.321,117.505.89,111.8.613,106.537A288.451,288.451,0,0,1,3.035,45.47c.9-.969,1.73-2.249,3.46-1.592A36.987,36.987,0,0,1,15.387,48.2a127.465,127.465,0,0,0,15.6,9A50.446,50.446,0,0,0,39.745,62.8,64.078,64.078,0,0,1,57.321,72.976c3.46,2.491,6.124,1.834,7.162-1.522C67.736,72.7,63.238,75.882,65.8,77.4Z" transform="translate(0.024 107.486)" fill="#de8d49"/>
        <path id="Path_4" data-name="Path 4" d="M54.4,68.089l5.294-1.8c1.246,9.619,2.63,19.2,3.737,28.821,1.453,12.767,3.944,25.4,4.567,38.267-1.419.45-1.972-1.834-3.46-1.176-1.176,1.488,1.453,3.045-.8,4.775a42.764,42.764,0,0,1-13.321,7.889c-1.522.484-2.941,1.419-2.872,2.941.208,4.844-3.045,4.948-6.4,5.017-3.46-10.726-5.294-21.832-9.134-32.731L29.421,160.78a8.753,8.753,0,0,0-8.131,4.844c-1.868,2.941-5.986,4.256-7.508,7.923a2.111,2.111,0,0,1-1.972.588c-2.318-.9-4.567.311-6.92,0-1.8-4.048-.865-8.373-1.28-12.559C1.984,145.349.773,129.191.6,112.964c1.315,0,1.972-.761,2.941-1.453,4.878-3.46,8.373-9,13.6-11.452,7.785-3.633,12.525-10.553,19.445-14.947,4.463-2.733,7.508-7.266,12.49-9.48a5.882,5.882,0,0,0,4.256-6.92h0Z" transform="translate(1.56 163.061)" fill="#69bffe"/>
        <path id="Path_5" data-name="Path 5" d="M4.12,61.136A94.213,94.213,0,0,1,32.7,19.34l8.027,6.92c-5.916.865-11.695-1.488-15.777,3.46a25.6,25.6,0,0,1,23.493,1.107l.9.9.311.208L49.341,32l-.9-.9c.692-1.176,1.73-1,2.63-.415,2.422,1.488,4.048,1.28,4.775-1.8.173-.588.969-1.073,1.453-1.592A41.519,41.519,0,0,1,74.253,46.916c1.28,4.083,0,8.477,1.488,12.525v1.592A2.145,2.145,0,0,0,74.979,63a11.556,11.556,0,0,0-1.073,5.259c-1.661,0-2.491-1.384-3.46-2.387s-1.972-1.349-3.01-.208c-2.7,3.01-6.47,4.705-9.065,8.062a139.233,139.233,0,0,1-11.66,12.283c-1.522.311-2.284-1.8-3.841-1.349a1.073,1.073,0,0,0,.277,1.592c.761.727,2.318,1.349.8,2.664s-1.868,0-2.595-.761c-2.18-2.007-4.948-3.46-4.671-7.231,0-1.9-1.868-3.46-4.186-3.771h-.865a6.124,6.124,0,0,0,0-.8l-7.162-9.1-.692-.208a17.023,17.023,0,0,0-5.086-8.823c1.073,3.46,1.349,7.093,4.636,9.342a1.087,1.087,0,0,0,.173.692l1.834,3.46c.208,1.8-.554,2.63-2.214,1.7-3.045-1.661-6.332-2.8-9.342-4.671C10.279,66.6,7.407,63.627,4.12,61.136Z" transform="translate(10.219 47.568)" fill="#ecc734"/>
        <path id="Path_6" data-name="Path 6" d="M39.68,46.505a6.124,6.124,0,0,1,0,.8,5.441,5.441,0,0,0,.381,1.211l.484-1.107c2.318.277,4.325,1.868,4.187,3.771-.277,3.875,2.491,5.224,4.671,7.231.727.692,1.522,1.661,2.595.761s0-1.938-.8-2.664a1.073,1.073,0,0,1-.277-1.592c1.557-.45,2.318,1.661,3.841,1.349-.415,1.661-.83,2.872,1.073,4.429a55.358,55.358,0,0,0,15.12,9.376c1.073.415,2.318.554,2.387,2.111-2.8,11.9-5.847,23.8-9.722,35.43-2.63-1.592,1.868-4.705-1.384-6.02-1.038,3.46-3.737,4.013-7.162,1.522A64.077,64.077,0,0,0,37.5,92.937a50.444,50.444,0,0,1-8.754-5.605,127.461,127.461,0,0,1-15.535-8.927A36.987,36.987,0,0,0,4.147,74.15C2.59,73.493,1.76,74.773.86,75.742A161.647,161.647,0,0,1,12.139,31.42C15.6,33.911,18.3,36.852,21.9,39.1c3.01,1.868,6.3,3.01,9.342,4.671,1.661.934,2.422,0,2.214-1.7C35.7,43.288,36.117,47.266,39.68,46.505Z" transform="translate(2.199 77.284)" fill="#e6ae3e"/>
        <path id="Path_7" data-name="Path 7" d="M35.26,69.472c0-1.557-1.315-1.7-2.387-2.111a55.359,55.359,0,0,1-15.12-9.376c-1.9-1.557-1.488-2.768-1.073-4.429A139.228,139.228,0,0,0,28.34,41.273c2.595-3.46,6.366-5.051,9.065-8.062,1.038-1.142,2.041-.727,3.01.208s1.834,2.353,3.46,2.387A37.644,37.644,0,0,0,58.337,49.2C69.1,58.815,80.931,65.32,95.981,64.247A3.46,3.46,0,0,0,99.2,62.31a11.383,11.383,0,0,1,9.411-5.674,31.139,31.139,0,0,0,9.515-2.941c5.363-2.491,6.92-1.9,10,3.218.934,1.557,1.176,3.771,3.668,3.841-.727,4.325.519,7.439,5.224,8.408-2.872,1.315-2.284,4.463-3.46,6.643a12.94,12.94,0,0,1-9.515,7.646,5.951,5.951,0,0,1-4.705-.83c4.152-5.363,3.84-9-1.073-13.009a3.079,3.079,0,0,0-3.218-.9c-1.246.519-1.073,1.7-1,2.664.277,3.771-1.28,7.543,0,11.279a28.682,28.682,0,0,1-7.577-5.951,7.75,7.75,0,0,0-7.785-1.834c-21,6.92-41.138,3.91-60.86-4.809a20.933,20.933,0,0,0-2.56-.588Z" transform="translate(40.251 79.99)" fill="#eca86b"/>
        <path id="Path_8" data-name="Path 8" d="M95.057,145.349Q88.9,127.6,82.67,109.92c1.315-2.076,2.733-4.117,3.944-6.262,5.743-10.38,11.9-20.241,17.023-30.793S114.743,51.9,120.106,41.309c3.633-7.127,7.577-14.116,11.383-21.209a26.883,26.883,0,0,0,5.017,1.038,23.839,23.839,0,0,1,17.3,10.553,10.794,10.794,0,0,0-1.107,4.187c.692,4.325-1.73,7.335-3.46,10.864-3.01,6.3-6.574,12.283-9.549,18.58a5.917,5.917,0,0,1-6.332,4.014c-2.733-.346-3.7.865-4.532,2.941s-1.7,3.149-2.145,4.809c-1.142,4.429-5.328,7.4-5.743,12.144-3.114.519-6.228,1.142-9.376,1.522-2.457.346-3.46,1.557-3.46,4.014-2.733,1.626-7.37,1.038-6.92,6.228,0,.311-1.142.8-1.834.969-4.083.969-3.633,3.46-2.111,6.3,2.872,5.5,5.744,11.072,8.615,16.608a53.387,53.387,0,0,0-10.795,20.483Zm34.6-87.121a9.757,9.757,0,0,0-5.259-5.813c-.934-.415-1.592.381-1.488,1.488a17.092,17.092,0,0,0,5.674,6.124c.727-.173,1.038-.727.934-1.8Z" transform="translate(203.445 49.437)" fill="#64b1fd"/>
        <path id="Path_9" data-name="Path 9" d="M150.109,192.458l-2.733-.208h0q-13.84-32.177-27.922-64.32c-3.149-7.3-6.4-14.532-9.584-21.8.208-.208.346-.519.588-.623a55.359,55.359,0,0,0,17.161-12.836,2.768,2.768,0,0,1,4.74,1.038,4.117,4.117,0,0,0,4.948,2.664c5.4,14.289,9.515,28.994,13.84,43.595s8.823,29.582,13.251,44.356c.727,2.387,1.142,4.5-1.73,5.709l-5.155,1.28Z" transform="translate(270.355 225.632)" fill="#303179"/>
        <path id="Path_10" data-name="Path 10" d="M38.782,69.122a37.644,37.644,0,0,1-14.462-13.39,11.106,11.106,0,0,1,1.038-5.259,1.73,1.73,0,0,0,.761-1.972V46.909c1.73.761.415,2.733,1.7,3.875a15.95,15.95,0,0,0,3.252-4.394,12.7,12.7,0,0,1,5.19-6.678c18.891,5.467,34.807-.692,49.269-12.594,1.107-.934,2.318-1.8,3.46-2.7a25.984,25.984,0,0,0,9.965,7.508,60.652,60.652,0,0,1-41.1,35.187,51.9,51.9,0,0,1-19.064,2.007Z" transform="translate(59.875 60.064)" fill="#e98660"/>
        <path id="Path_11" data-name="Path 11" d="M153.06,135.991a4.117,4.117,0,0,1-4.948-2.664,2.768,2.768,0,0,0-4.6-1.107,55.359,55.359,0,0,1-16.988,12.767c-.242,0-.381.415-.588.623L103.41,98.831c2.145.554,3.91,2.387,6.366,1.7v1.73a2.145,2.145,0,0,0,1.176,2.145,1.142,1.142,0,0,0,1.107-.277,2.145,2.145,0,0,0-.381-2.768,6.575,6.575,0,0,0-1.938-.83,6.92,6.92,0,0,1,7.37-4.463c.657,0,1.972,0,2.041-.45,1-4.152,4.74-5.536,7.577-7.854,1.419-1.176,1.661-3.46,4.705-2.837,2.318.415,1-1.73.311-2.664a4.429,4.429,0,0,1,.381-6.608C140.051,95.475,146.97,115.612,153.06,135.991Z" transform="translate(254.464 186.086)" fill="#2b2c71"/>
        <path id="Path_12" data-name="Path 12" d="M31.312,179.7a4.913,4.913,0,0,1-3.46-3.46q-6.332-30.309-12.733-60.583c6.124-6.332,14.635-9.792,20.344-16.642.346-.381,1.419,0,2.145-.277,1.765,9.065,2.318,18.268,3.46,27.4,1.592,14.566,2.941,29.132,4.29,43.7.277,3.079,1.384,6.574-2.387,8.615Z" transform="translate(37.278 242.885)" fill="#74d9fe"/>
        <path id="Path_13" data-name="Path 13" d="M93.06,101.756a62.037,62.037,0,0,1,13.632-3.7c.83,0,1-1,.381-1.7-3.771-4.117.865-3.46,2.526-4.256.727-.346,1.73,0,2.63,0,1.765,0,4.879.83,2.457-3.079-1.038-1.661.934-2.595,2.284-2.941a16.506,16.506,0,0,1,3.91,0c1.073,21.451,1.488,42.9.588,64.389-.554,0-1.384,0-1.626-.484-3.737-5.605-5.813-5.57-9.446.554a3.01,3.01,0,0,1-3.668,1.661c-3.875-1.246-3.667.83-4.5,3.737s1.592,7.2-3.079,8.719v-2.664c1.488-1.176.623-2.249,0-3.46l-.484-3.737c2.041-1,1.972-1.9,0-2.664Q95.586,126.979,93.06,101.756Z" transform="translate(229.004 211.463)" fill="#2b2c71"/>
        <path id="Path_14" data-name="Path 14" d="M94.77,122.062c4.671-1.522,2.249-5.847,3.079-8.719s.623-4.982,4.5-3.737a3.01,3.01,0,0,0,3.668-1.661c3.46-6.124,5.709-6.159,9.446-.554.242.381,1.073.346,1.626.484-.208,13.355-.415,26.676-.692,40.031,0,6.92-.519,14.082-.761,21.105,0,1.972,0,3.91-2.491,4.567l-5.259.83-7.577-.761c-3.01-.277-3.944-1.765-4.014-4.913C95.981,153.167,95.289,137.632,94.77,122.062Z" transform="translate(233.211 254.024)" fill="#303179"/>
        <path id="Path_15" data-name="Path 15" d="M136.409,21.8c-3.806,6.92-7.75,14.082-11.383,21.209-5.363,10.587-11.245,20.76-16.469,31.554S97.278,95.148,91.534,105.354c-1.211,2.145-2.63,4.186-3.944,6.262a140.3,140.3,0,0,1-6.92-18.753,2.526,2.526,0,0,0,2.214-1.176c3.149-5.951,6.228-11.937,9.48-17.819,4.083-7.37,7.508-15.154,11.9-22.282,4.913-8.027,8.1-16.919,13.321-24.669a2.976,2.976,0,0,0,0-3.46c1-1.176,1.972-2.353,1.038-4.048A72.138,72.138,0,0,1,136.409,21.8Z" transform="translate(198.526 47.74)" fill="#69bffe"/>
        <path id="Path_16" data-name="Path 16" d="M93.7,80.988c.415-4.74,4.6-7.716,5.743-12.144.45-1.661,1.522-3.183,2.145-4.809s1.8-3.46,4.532-2.941a5.916,5.916,0,0,0,6.332-4.014c2.976-6.3,6.539-12.283,9.549-18.58,1.7-3.46,4.117-6.539,3.46-10.864a10.8,10.8,0,0,1,1.107-4.187,47.3,47.3,0,0,1,11.418,17.3c1.73,3.875,2.906,7.958,4.36,11.937-2.076.242-2.768,1.7-3.46,3.46a149.436,149.436,0,0,1-11.418,21.105c-1.488,2.041-1.453,6.159-4.256,6.055s-2.422-4.5-4.221-6.574c-1.142-1.349-1.073-4.636-3.46-3.91s.727,3.045,0,4.74Z" transform="translate(230.578 57.678)" fill="#5b97fd"/>
        <path id="Path_17" data-name="Path 17" d="M44.359,131.719a4.819,4.819,0,0,0-2.145.277c-5.709,6.92-14.22,10.38-20.344,16.642L12.32,106.046c3.46,0,6.608,0,6.4-5.017,0-1.522,1.349-2.457,2.872-2.941A42.764,42.764,0,0,0,35.017,90.2c2.249-1.73-.381-3.46.8-4.775,1.384-.657,1.938,1.626,3.46,1.176,2.18,10.587,2.733,21.382,4.117,32.073C43.84,123,44.013,127.359,44.359,131.719Z" transform="translate(30.39 209.837)" fill="#6fcffe"/>
        <path id="Path_18" data-name="Path 18" d="M54.112,68.378a5.882,5.882,0,0,1-4.256,6.92c-4.982,2.214-8.027,6.92-12.49,9.48-7.058,4.36-11.8,11.279-19.583,14.912-5.224,2.457-8.719,7.958-13.6,11.452-.969.692-1.626,1.592-2.941,1.453a196.213,196.213,0,0,1,1-46.155,93.176,93.176,0,0,0,35.43,4.6C43.283,70.627,48.611,69,54.112,68.378Z" transform="translate(0.915 163.43)" fill="#64b1fd"/>
        <path id="Path_19" data-name="Path 19" d="M1.85,106.89c2.318.208,4.567-1,6.92,0a2.11,2.11,0,0,0,1.972-.588c1.488-3.771,5.467-5.086,7.473-7.854A8.754,8.754,0,0,1,26.346,93.6c-.554,15.535-1.073,31.139-1.661,46.605,0,3.46-.45,6.712-.727,10.068-1.972-.277-3.114,1.073-4.5,2.18A32.869,32.869,0,0,1,7.49,160C5.275,142.319,2.853,124.674,1.85,106.89Z" transform="translate(4.635 230.238)" fill="#6fcffe"/>
        <path id="Path_20" data-name="Path 20" d="M100.626,56.856c.623-1.7-1.972-4.117,0-4.74s2.145,2.56,3.46,3.91c1.8,2.076,1.142,6.47,4.221,6.574s2.768-4.014,4.256-6.055A149.435,149.435,0,0,0,123.807,35.37c.83-1.661,1.522-3.114,3.46-3.46a118.987,118.987,0,0,1,7.508,19.514c.519,7.127,2.664,14.047,2.491,21.209a.865.865,0,0,0,0,.865v2.664a39.683,39.683,0,0,1-1.107,8.788,24.7,24.7,0,0,0-22.144-4.705c-1.211.277-2.7.242-2.768,2.111-2.145-.519-1.765-2.526-2.18-3.944a109.51,109.51,0,0,0-8.442-21.555Z" transform="translate(245.762 78.489)" fill="#5585fd"/>
        <path id="Path_21" data-name="Path 21" d="M75,37.458,85.968,25c3.218-3.633,7.923-3.218,12.006-4.429a23.252,23.252,0,0,1,3.46-.554,7.508,7.508,0,0,0,7.75,5.086,51.9,51.9,0,0,1,6.5.657,72.242,72.242,0,0,1-7.4,15.362C102.4,53.062,95.76,64.618,89.186,76.313l-1.73-2.733c.588-3.46-1.7-6.332-1.834-9.619a45.361,45.361,0,0,0-1.7-8.892V45.312a6.159,6.159,0,0,0,0-7.2c-1.9-2.353-4.532-1.972-6.92,0C76.384,38.5,75.588,38.081,75,37.458Z" transform="translate(184.578 49.241)" fill="#74d9fe"/>
        <path id="Path_22" data-name="Path 22" d="M121.389,32.745c0,3.46,2.422,6.193,1.834,9.619a93.621,93.621,0,0,1-10.587,8.269,7.335,7.335,0,0,1-4.394,1.661c-.242-2.526-3.045-2.491-3.875-2.249a85.564,85.564,0,0,1-14.359.969c-9.273.865-18.718-.346-28.025,1.211L60.46,46.861,81.877,32.71a30.482,30.482,0,0,0,13.6,1.453C103.847,33.713,112.636,32.537,121.389,32.745Z" transform="translate(148.811 80.457)" fill="#5b97fd"/>
        <path id="Path_23" data-name="Path 23" d="M39.981,6.5a61.517,61.517,0,0,1,7.231,30.862c0,4.532-3.46,6.92-9.238,7.612-2.145.242-4.463-.588-6.366,1A55.843,55.843,0,0,1,16.8,35.909l.484-1.488c3.7-2.041,1.7-5.259,1.73-8.062,1.765-1.384.692-2.8,0-4.256a11.729,11.729,0,0,1-.9-8.027l3.46-1.73A121.547,121.547,0,0,0,39.981,6.5Z" transform="translate(41.411 15.982)" fill="#eca86b"/>
        <path id="Path_24" data-name="Path 24" d="M79.1,74.837C85.57,63.142,92.317,51.586,98.3,39.65a72.242,72.242,0,0,0,7.4-15.362,43.976,43.976,0,0,0,15.881-3.668,2.976,2.976,0,0,1,0,3.46c-5.224,7.75-8.408,16.642-13.321,24.669-4.567,6.989-7.992,14.7-12.214,22.143-3.252,5.882-6.332,11.868-9.48,17.819a2.526,2.526,0,0,1-2.214,1.176A82.1,82.1,0,0,1,79.1,74.837Z" transform="translate(194.664 50.717)" fill="#6fcffe"/>
        <path id="Path_25" data-name="Path 25" d="M113.528,53.617a39.687,39.687,0,0,0,1.107-8.788c1.419,1.8,1.661,5.051,5.225,4.29l20.552-4.429,5.916,23.043a12.421,12.421,0,0,1-5.605,2.214c-3.944.277-7.716,3.079-11.9.8,0,0-.519.208-.761.311a55.358,55.358,0,0,1-19.03,3.875,15.5,15.5,0,0,1,1.038-4.671A57.088,57.088,0,0,0,113.528,53.617Z" transform="translate(268.289 109.927)" fill="#ecc734"/>
        <path id="Path_26" data-name="Path 26" d="M136.153,78.367c-.346,1.765-1.938,1.557-3.114,1.9A143.241,143.241,0,0,1,90.1,86.256L87.61,75.6c2.214-.277,3.045-2.007,3.875-3.737A62.277,62.277,0,0,1,101.623,55.22l7.819,12.525c-.277,3.183,1.522,3.91,4.221,3.46,1.834-.242,3.46-1.522,5.432-.761A25.811,25.811,0,0,0,136.153,78.367Z" transform="translate(215.597 135.83)" fill="#5585fd"/>
        <path id="Path_27" data-name="Path 27" d="M36.382,28.228l-3.46,1.73A10.068,10.068,0,0,1,26,32.933,6.92,6.92,0,0,0,19.809,39.2a10.864,10.864,0,0,1-1.522,4.014c-.208-1.8-1.868-2.56-2.906-3.737a17.3,17.3,0,0,1-4.359-8.027c-.519-2.595,0-6.262,2.318-6.366,4.982-.173,4.636-4.325,6.366-7.2,3.46-5.674,9.411-7.716,15.431-9.307C40.5,7.157,46.485,6.915,50.6,2.867c1.73-1.7,3.841-1.349,5.467-2.63C57-.455,57.937.514,58.56,1.414l1.073,1,.727.934c-.969,3.633-5.121,3.46-6.92,5.294A63.42,63.42,0,0,1,41.018,18.16c-3.46,2.284-3.771,8.511-9.757,7.093C32.507,27.674,35.171,26.6,36.382,28.228Z" transform="translate(26.742 -0.002)" fill="#303179"/>
        <path id="Path_28" data-name="Path 28" d="M128.041,51.236a57.087,57.087,0,0,1-3.46,16.642,15.5,15.5,0,0,0-1.038,4.671c-2.837,2.7-2.768,6.92-5.19,9.826l-1.315,1.765c-3.875-1.176-6.92-4.325-11.245-4.567-.311-6.47,1.176-13.009-.761-19.41a25.222,25.222,0,0,0-1.9-11.522c0-1.868,1.557-1.834,2.768-2.111a24.7,24.7,0,0,1,22.143,4.706Z" transform="translate(253.775 112.307)" fill="#eca86b"/>
        <path id="Path_29" data-name="Path 29" d="M138.222,63.909,117.67,68.441c-3.46.761-3.806-2.491-5.224-4.29v-2.63l.277-.242a5.228,5.228,0,0,0-.311-.623c0-7.162-1.972-14.082-2.491-21.209,5.674-.761,11.383-1.28,16.954-2.387,3.46-.657,4.879.45,5.605,3.46C134.416,48.374,136.285,56.124,138.222,63.909Z" transform="translate(270.478 90.708)" fill="#f9f315"/>
        <path id="Path_30" data-name="Path 30" d="M86.892,36.82c.519,1.765,1,3.46,1.522,5.363A104.594,104.594,0,0,0,93.4,57.2,115.907,115.907,0,0,1,64.68,59.309c-3.218,0-6.4-.45-9.619-.727-4.705-.969-5.951-4.083-5.224-8.408C63.192,48.48,75.094,42.909,86.892,36.82Z" transform="translate(122.205 90.567)" fill="#e98660"/>
        <path id="Path_31" data-name="Path 31" d="M91.011,48.437A53.837,53.837,0,0,1,78.59,44.6a7.093,7.093,0,0,0,4.844-3.46c1.834-3.183,3.667-6.92,8.477-6.055.519,0,1.142-.727,1.765-1.142a9.065,9.065,0,0,0,5.536-4.532c1.868-3.46,4.048-6.435,6.055-9.619.623,0,1.384.346,1.8-.519l-1.176-.415a2.041,2.041,0,0,1,1-1.73l2.076.45c0-3.91,4.117-3.841,5.778-6.055a12.975,12.975,0,0,1,9.2-5.19,5.674,5.674,0,0,1-.969,8.823,3.979,3.979,0,0,0-1.453,5.294c1.938,4.775.8,6.92-4.187,9.2-4.74-4.6-7.4-4.256-10.83,1.349L103.5,35.7c-2.63,3.46-5.363,6.643-7.819,10.138a5.432,5.432,0,0,1-4.671,2.595Z" transform="translate(193.409 15.564)" fill="#303179"/>
        <path id="Path_32" data-name="Path 32" d="M3.48,119.728a32.869,32.869,0,0,0,11.971-7.543c1.384-1.107,2.526-2.457,4.5-2.18.277,12.7-.484,25.4.727,38.059a4.013,4.013,0,0,1-1.834,4.532H9.016c-3.218-3.46-2.249-8.269-3.01-12.456C4.726,133.326,4.276,126.475,3.48,119.728Z" transform="translate(8.644 270.509)" fill="#74d9fe"/>
        <path id="Path_33" data-name="Path 33" d="M52.93,41.176A25.984,25.984,0,0,1,43,33.668c2.976-4.152,7.162-7.2,10.068-11.452,1.419-2.076,3.91-1.522,6.089-1.384a114.177,114.177,0,0,0,16.3,6.159,8.961,8.961,0,0,0,8.408-.554,10.38,10.38,0,0,1,6.193-2.007c.969,1.211-1.038,1.972-.277,3.46,2.733-.727,5.5-2.733,8.719-1.349.208,2.041-1.765,1.938-2.768,2.768C85.349,37.82,74.1,37.785,62.341,33.356c-3.806-1.419-5.951-.969-6.92,3.46a18.927,18.927,0,0,1-2.491,4.359Z" transform="translate(105.86 50.817)" fill="#eca86b"/>
        <path id="Path_34" data-name="Path 34" d="M33.183,15A55.843,55.843,0,0,0,47.992,25.172c-1.349,4.5-4.5,8.235-5.5,12.871-.484.519-1.28,1-1.453,1.592-.727,3.079-2.353,3.287-4.775,1.8-.9-.588-1.938-.761-2.63.415h0A25.6,25.6,0,0,0,10.14,40.742c4.083-5.086,9.861-2.733,15.777-3.46l-8.027-6.92L28.27,15.208Z" transform="translate(25.028 36.892)" fill="#e98660"/>
        <path id="Path_35" data-name="Path 35" d="M82.18,27.552a5.432,5.432,0,0,0,4.775-2.595c2.457-3.46,5.19-6.92,7.819-10.138,3.183,3.01,6.539,3.979,10.38.8a99.129,99.129,0,0,0,10.068,15.224c.934,1.7,0,2.872-1.038,4.048A43.976,43.976,0,0,1,98.3,38.555a51.9,51.9,0,0,0-6.5-.657,7.508,7.508,0,0,1-7.923-5.155C83.322,31.047,82.734,29.282,82.18,27.552Z" transform="translate(202.24 36.449)" fill="#eca86b"/>
        <path id="Path_36" data-name="Path 36" d="M117.6,20.53a12.975,12.975,0,0,0-9.342,5.086c-1.661,2.214-5.813,2.145-5.778,6.055l-2.076-.45a8.961,8.961,0,0,0-6.92-10.172c-2.526-.761-5.017-1.661-7.646-2.56-5.57-4.844-5.986-7.3-2.111-12.629S93.03-.887,97.874,2.088a7.577,7.577,0,0,1,4.083,6.92,7.612,7.612,0,0,0,7.612,7.4A7.958,7.958,0,0,1,117.6,20.53Z" transform="translate(199.763 1.365)" fill="#272565"/>
        <path id="Path_37" data-name="Path 37" d="M121.488,55.962c4.256.242,7.37,3.46,11.245,4.567a48.231,48.231,0,0,1-8.546,13.079,34.218,34.218,0,0,1-10.38,4.671A25.811,25.811,0,0,1,96.75,70.459,20.171,20.171,0,0,1,106.023,67c3.148-.727,2.906-2.007,1-3.737s-4.948-4.117-7.4-6.159c1-3.252,2.63-1.349,4.359-.727a20.483,20.483,0,0,0,17.507-.415Z" transform="translate(238.081 135.918)" fill="#e98660"/>
        <path id="Path_38" data-name="Path 38" d="M65.832,55.06A104.6,104.6,0,0,1,60.85,40.044c9.307-1.557,18.753-.346,28.025-1.211A85.564,85.564,0,0,0,103.407,37.8c.83-.242,3.46-.277,3.875,2.249-.311.484-.484,1.211-.934,1.419a109.922,109.922,0,0,1-40.516,13.6Z" transform="translate(149.77 92.706)" fill="#5585fd"/>
        <path id="Path_39" data-name="Path 39" d="M89.531,5.74c2.63.865,5.259,1.8,7.889,2.56a8.961,8.961,0,0,1,6.92,10.172,2.041,2.041,0,0,0-1,1.73l-.623.934c-2.007,3.183-4.187,6.332-6.055,9.619a9.065,9.065,0,0,1-5.467,4.636c-2.249-.381-3.46-2.076-4.6-3.7a16.988,16.988,0,0,0-6.92-6.435A185.324,185.324,0,0,1,89.531,5.74Z" transform="translate(196.066 14.113)" fill="#eca86b"/>
        <path id="Path_40" data-name="Path 40" d="M87.68,141.673c8.788-8.754,20.1-12.214,31.381-15.673a5.847,5.847,0,0,0,2.768,3.46l.934.519h0c-.761,4.982,1.246,9.792.761,14.739l-21.14-.8C97.541,142.608,92.42,143.542,87.68,141.673Z" transform="translate(215.77 309.943)" fill="#272565"/>
        <path id="Path_41" data-name="Path 41" d="M131.452,153.025c-5.882-6.92-7.854-15.431-9.549-24.046a5.224,5.224,0,0,1,.934-3.737c1.315.761,1.28,3.114,3.46,2.8,5.951.242,7.958-.969,9.411-5.674a11.9,11.9,0,0,1,5.674,5.743,19,19,0,0,0-2.007,5.19c-.9,2.906,2.145,4.844,1.453,6.92a17.3,17.3,0,0,0-.934,10.38c.381,1.453-.242,3.944-3.218,3.148A11.523,11.523,0,0,0,131.452,153.025Z" transform="translate(299.842 301.013)" fill="#272565"/>
        <path id="Path_42" data-name="Path 42" d="M25.138,125.09A52.694,52.694,0,0,1,50.5,140.314c1.107,1.246,2.768,2.214,2.768,4.221a230.313,230.313,0,0,1-27.195.761c.311-1.661-1.938-1.28-2.145-2.906a51.9,51.9,0,0,1,1.211-17.3Z" transform="translate(58.33 307.704)" fill="#272565"/>
        <path id="Path_43" data-name="Path 43" d="M104.968,67.126A62.278,62.278,0,0,0,94.831,83.664c-.83,1.73-1.661,3.46-3.875,3.737L86.25,70.863A53.387,53.387,0,0,1,96.837,50.38l1.038,2.56.761.934a44.114,44.114,0,0,1,6.332,13.252Z" transform="translate(212.252 123.924)" fill="#5b97fd"/>
        <path id="Path_44" data-name="Path 44" d="M10.912,124.32a41.727,41.727,0,0,1,18.441,18.372,6.92,6.92,0,0,1,1.142,4.567,130.985,130.985,0,0,1-23.285.83l1.765-18.511C11.154,128.368,10.878,126.292,10.912,124.32Z" transform="translate(17.82 305.81)" fill="#272565"/>
        <path id="Path_45" data-name="Path 45" d="M21.811,25.847c-1.211-1.626-3.875-.45-5.051-2.976,5.986,1.419,6.3-4.809,9.757-6.92A63.421,63.421,0,0,0,38.938,6.264C40.668,4.4,44.82,4.6,45.858.97a11.279,11.279,0,0,1-3.218,17.4l-2.56,1.661a121.547,121.547,0,0,1-18.268,5.813Z" transform="translate(41.312 2.379)" fill="#2b2c71"/>
        <path id="Path_46" data-name="Path 46" d="M106.285,39.042c-8.754-.208-17.3.934-26.088,1.488a30.482,30.482,0,0,1-13.6-1.453l9.722-8.027a59.341,59.341,0,0,0,6.055.415c7.4-.381,14.808-.865,22.213-1.315A45.36,45.36,0,0,1,106.285,39.042Z" transform="translate(163.915 74.16)" fill="#64b1fd"/>
        <path id="Path_47" data-name="Path 47" d="M37.693,146.55a230.3,230.3,0,0,0,27.195-.761c.45,2.664-1.488,2.422-3.079,2.457-13.113.173-26.226.242-39.339.484-2.284,0-3.149-.8-3.287-2.976a35.741,35.741,0,0,1,4.152-21.175A3.46,3.46,0,0,0,27,128.04a51.9,51.9,0,0,1-2.457,17.576C28.628,147.45,33.195,146.412,37.693,146.55Z" transform="translate(46.709 306.45)" fill="#303179"/>
        <path id="Path_48" data-name="Path 48" d="M107.53,68.373c2.422-2.906,2.353-7.127,5.19-9.826a55.359,55.359,0,0,0,19.03-3.875c.242,0,.623-.415.761-.311,4.186,2.284,7.958-.519,11.9-.8a12.421,12.421,0,0,0,5.605-2.214c1.592,2.837,1.038,4.671-2.284,5.605Z" transform="translate(264.599 126.31)" fill="#e6ae3e"/>
        <path id="Path_49" data-name="Path 49" d="M97.678,37.038c-7.4.45-14.808.934-22.213,1.315a59.336,59.336,0,0,1-6.055-.415L81,27.35H97.678Z" transform="translate(170.827 67.272)" fill="#69bffe"/>
        <path id="Path_50" data-name="Path 50" d="M86.045,11.38a16.988,16.988,0,0,1,6.92,6.435c1.246,1.626,2.353,3.46,4.6,3.7-.623.415-1.246,1.211-1.765,1.142-4.809-.692-6.643,2.872-8.477,6.055a7.093,7.093,0,0,1-4.844,3.46c-5.986-1.626-6.436-2.353-4.325-7.819,1.246-3.46,2.837-6.435,4.186-9.688C83.069,12.937,83.9,11.553,86.045,11.38Z" transform="translate(189.518 27.987)" fill="#272565"/>
        <path id="Path_51" data-name="Path 51" d="M124.63,148.917a11.522,11.522,0,0,1,5.19.761c2.976.8,3.46-1.7,3.218-3.148a17.3,17.3,0,0,1,.934-10.38c.692-1.937-2.353-3.875-1.453-6.92a19,19,0,0,1,2.007-5.19,57.469,57.469,0,0,1,8.235,20.1,4.705,4.705,0,0,1-2.18,4.948A14.635,14.635,0,0,1,124.63,148.917Z" transform="translate(306.664 305.121)" fill="#303179"/>
        <path id="Path_52" data-name="Path 52" d="M27.441,30.547H22.39a30.032,30.032,0,0,1-7.889-3.46c-2.111-1.522-3.045-3.183-.45-5.155a10.864,10.864,0,0,0,1.522-4.014,6.92,6.92,0,0,1,6.193-6.262,10.068,10.068,0,0,0,6.92-2.976,11.729,11.729,0,0,0,1.038,8.027c.623,1.453,1.7,2.872,0,4.256-.83-1.349-1.557-2.768-2.422-4.083s-2.526-3.46-4.982-2.111-1.938,3.46-1.176,5.4a11.279,11.279,0,0,0,4.187,5.5,7.854,7.854,0,0,1,2.664,3.46Z" transform="translate(30.77 21.345)" fill="#2b2c71"/>
        <path id="Path_53" data-name="Path 53" d="M33.718,146.034c-4.5,0-9.065.9-13.148-.9a51.9,51.9,0,0,0,2.457-17.576c2.526-.45,5.328-.208,6.92-2.768l1,.346,1.142.554a.381.381,0,0,1,.588,0,51.9,51.9,0,0,0-1.211,17.3C31.78,144.754,34.029,144.373,33.718,146.034Z" transform="translate(50.684 306.966)" fill="#2b2c71"/>
        <path id="Path_54" data-name="Path 54" d="M15.26,128.521,13.5,147.032H5.469A38.889,38.889,0,0,1,7.406,124.75C8.375,129.628,12.181,128.314,15.26,128.521Zm-2.906,3.218a1.558,1.558,0,0,0,.381,0v-.311a1.21,1.21,0,0,0-.381,0,.883.883,0,0,1,0,.311Z" transform="translate(11.534 306.868)" fill="#303179"/>
        <path id="Path_55" data-name="Path 55" d="M98.665,143.871c.484-4.948-1.522-9.757-.761-14.739h1.765c2.872.865,4.532-.8,6.02-2.872a23.873,23.873,0,0,1,4.359,16.954,54.489,54.489,0,0,1-11.383.657Z" transform="translate(240.491 310.582)" fill="#303179"/>
        <path id="Path_56" data-name="Path 56" d="M31.871,132.219c-1.7,2.56-4.5,2.318-6.92,2.768a3.46,3.46,0,0,1-3.668-3.46l-1.453-8.442,11.349-1.315C31.352,125.23,31.594,128.724,31.871,132.219Z" transform="translate(48.864 299.537)" fill="#eca86b"/>
        <path id="Path_57" data-name="Path 57" d="M14.214,134.671c-3.079-.208-6.92,1.107-7.854-3.667-.415-2.906-.83-5.847-1.28-8.754h9.826l1.246,6.92C16.117,131.384,16.394,133.46,14.214,134.671Z" transform="translate(12.58 300.718)" fill="#e98660"/>
        <path id="Path_58" data-name="Path 58" d="M96.15,22.181c-3.668,3.183-6.92,2.214-10.38-.8l3.01-4.705c3.46-5.605,6.089-5.951,10.83-1.349a7.542,7.542,0,0,1-3.46,6.851Z" transform="translate(211.071 29.884)" fill="#e98660"/>
        <path id="Path_59" data-name="Path 59" d="M89.437,33.621H72.76a50.031,50.031,0,0,1,7.75-7.854c.484.623,1.28,1.038,1.868.554,2.387-1.868,5.017-2.249,6.92,0a6.159,6.159,0,0,1,.138,7.3Z" transform="translate(179.068 60.932)" fill="#6fcffe"/>
        <path id="Path_60" data-name="Path 60" d="M44.909,57.012c-1.246-3.737.311-7.508,0-11.279,0-.969-.242-2.145,1-2.664a3.079,3.079,0,0,1,3.218.9c4.913,4.014,5.224,7.646,1.073,13.009C48.472,57.7,46.708,59.711,44.909,57.012Z" transform="translate(109.349 105.597)" fill="#e98660"/>
        <path id="Path_61" data-name="Path 61" d="M132.617,127.806c-1.453,4.705-3.46,5.916-9.411,5.674a25.6,25.6,0,0,1,1.8-12.041l5.155-1.28C131.372,122.582,130.957,125.523,132.617,127.806Z" transform="translate(302.897 295.577)" fill="#eca86b"/>
        <path id="Path_62" data-name="Path 62" d="M36.015,32.727a12.7,12.7,0,0,0-5.19,6.678,15.95,15.95,0,0,1-3.252,4.256c-1.28-1.142,0-3.114-1.7-3.875-1.384-4.048-.208-8.442-1.488-12.525Z" transform="translate(60.081 67.05)" fill="#de8d49"/>
        <path id="Path_63" data-name="Path 63" d="M63.956,27.952a114.179,114.179,0,0,1-16.3-6.159,11.349,11.349,0,0,1,8.131,0c3.771.8,7.473,1.73,10.933-1a2.145,2.145,0,0,1,3.149.381c1.142,1.488-.45,1.972-1.246,2.664a21.417,21.417,0,0,0-4.671,4.117Z" transform="translate(117.324 49.854)" fill="#e98660"/>
        <path id="Path_64" data-name="Path 64" d="M4.89,131.81h8.027a131,131,0,0,0,23.285-.83c0,1.972-1.142,2.457-2.733,2.7a111.438,111.438,0,0,1-24.946.727C7,134.163,5.271,133.921,4.89,131.81Z" transform="translate(12.113 322.193)" fill="#5585fd"/>
        <path id="Path_65" data-name="Path 65" d="M113.079,131.916a54.488,54.488,0,0,0,11.383-.8c0,2.906-2.318,2.7-4.083,2.733-9.515.173-18.995.208-28.51.311V131.12Z" transform="translate(226.077 322.538)" fill="#5b97fd"/>
        <path id="Path_66" data-name="Path 66" d="M103.151,135.758h-1.765l-.934-.519a5.847,5.847,0,0,1-2.768-3.46c-.45-2.768-.9-5.536-1.315-8.269l7.577.761c.484,2.872-1,5.916.8,8.719C105.781,134.928,103.982,135.135,103.151,135.758Z" transform="translate(237.146 303.818)" fill="#e98660"/>
        <path id="Path_67" data-name="Path 67" d="M103.621,132.547v3.045H91.3c-1.453,0-3.183.277-3.91-1.349s.519-2.7,1.592-3.7C93.657,132.374,98.777,131.44,103.621,132.547Z" transform="translate(214.533 321.111)" fill="#5585fd"/>
        <path id="Path_68" data-name="Path 68" d="M98.33,135.561c.83-.623,2.63-.83,1.592-2.422-1.8-2.8-.311-5.847-.8-8.719l5.259-.83v9.1C102.862,134.766,101.2,136.426,98.33,135.561Z" transform="translate(241.968 304.014)" fill="#eca86b"/>
        <path id="Path_69" data-name="Path 69" d="M128.963,120.53a25.6,25.6,0,0,0-1.8,12.04c-2.145.311-2.11-2.041-3.46-2.8-.727-2.733-1.453-5.432-2.214-8.165Z" transform="translate(298.94 296.487)" fill="#e98660"/>
        <path id="Path_70" data-name="Path 70" d="M94.51,105.12c2.145.761,2.214,1.661,0,2.664Z" transform="translate(232.571 258.58)" fill="#303179"/>
        <path id="Path_71" data-name="Path 71" d="M94.911,107c.761,1.073,1.626,2.145,0,3.46a5.189,5.189,0,0,1,0-3.46Z" transform="translate(232.827 263.204)" fill="#303179"/>
        <path id="Path_72" data-name="Path 72" d="M102.355,86.783c-.8,0-1.972,0-1.9-1.107s1.107-.692,1.8-.761Z" transform="translate(247.181 208.825)" fill="#2b2c71"/>
        <path id="Path_73" data-name="Path 73" d="M120.72,120.78Z" transform="translate(297.045 297.102)" fill="#e98660"/>
        <path id="Path_74" data-name="Path 74" d="M24.742,125.444,23.6,124.89Z" transform="translate(58.138 307.212)" fill="#272565"/>
        <path id="Path_75" data-name="Path 75" d="M16.839,66.81l-.969.554Z" transform="translate(39.123 164.34)" fill="#64b1fd"/>
        <path id="Path_76" data-name="Path 76" d="M13,39.922c-3.287-2.249-3.46-5.986-4.636-9.342a16.988,16.988,0,0,1,5.086,8.857,2.977,2.977,0,0,1-.45.484Z" transform="translate(20.649 75.217)" fill="#e98660"/>
        <path id="Path_77" data-name="Path 77" d="M17.812,42.1c-3.46.588-3.979-3.218-6.228-4.429-.623-1.176-1.246-2.353-1.834-3.46l.969-1Z" transform="translate(24.068 81.687)" fill="#de8d49"/>
        <path id="Path_78" data-name="Path 78" d="M12.935,36.074l-.484,1.107a4.09,4.09,0,0,0-.381-1.211Z" transform="translate(29.775 88.476)" fill="#de8d49"/>
        <path id="Path_79" data-name="Path 79" d="M25.388,31.38a1.73,1.73,0,0,1-.761,1.972A2.145,2.145,0,0,1,25.388,31.38Z" transform="translate(60.606 77.185)" fill="#de8d49"/>
        <path id="Path_80" data-name="Path 80" d="M10.812,33.313l-.969,1a1,1,0,0,0-.173-.692,2.976,2.976,0,0,0,.45-.484Z" transform="translate(23.871 81.515)" fill="#e98660"/>
        <path id="Path_81" data-name="Path 81" d="M17.19,23l.311.173Z" transform="translate(42.37 56.571)" fill="#e98660"/>
        <path id="Path_82" data-name="Path 82" d="M17.83,23.64l-.9-.9h0Z" transform="translate(41.73 55.932)" fill="#e98660"/>
        <path id="Path_83" data-name="Path 83" d="M135.429,64.846a25.223,25.223,0,0,1,1.9,11.522c-1.28.484-2.041-4.325-3.633-.346-5.536-.554-10.38,1.9-15.673,2.976-6.539,1.315-13.113,2.457-19.687,3.668q-4.152-17.3-8.338-34.6c0-2.457.969-3.668,3.46-4.014,3.149-.381,6.262-1,9.376-1.522l22.109-3.46a109.509,109.509,0,0,1,8.338,21.659C133.664,62.321,133.284,64.327,135.429,64.846Z" transform="translate(221.477 96.102)" fill="#f9f315"/>
        <path id="Path_84" data-name="Path 84" d="M98.6,41.68q4.221,17.3,8.338,34.6A107.256,107.256,0,0,0,111.3,94.686l.865,6.228-7.819-12.525a44.113,44.113,0,0,0-6.332-13.251l-.761-.934-1.038-2.56C93.341,66.107,90.47,60.537,87.6,55.035c-1.522-2.872-1.972-5.328,2.111-6.3.692,0,1.834-.657,1.834-.969C91.231,42.787,95.867,43.306,98.6,41.68Z" transform="translate(212.876 102.522)" fill="#74d9fe"/>
        <path id="Path_85" data-name="Path 85" d="M101.007,35.332c0,1.073-.208,1.626-1.073,1.8a17.092,17.092,0,0,1-5.674-6.124c0-1.107.554-1.9,1.488-1.488a9.757,9.757,0,0,1,5.259,5.813Z" transform="translate(231.956 72.334)" fill="#69bffe"/>
        <path id="Path_86" data-name="Path 86" d="M105.21,82.86a6.574,6.574,0,0,1,1.938.83,2.145,2.145,0,0,1,.381,2.768,1.142,1.142,0,0,1-1.107.277,2.145,2.145,0,0,1-1.176-2.145c0-.588,0-1.142,0-1.73Z" transform="translate(258.892 203.822)" fill="#272565"/>
        <path id="Path_87" data-name="Path 87" d="M110.711,43.71a5.22,5.22,0,0,1,.311.623l-.277.242A.865.865,0,0,1,110.711,43.71Z" transform="translate(272.179 107.516)" fill="#ecc734"/>
        <path id="Path_88" data-name="Path 88" d="M22.114,24.959A7.854,7.854,0,0,0,19.45,21.5,11.279,11.279,0,0,1,15.4,16.17c-.761-1.972-1.073-4.083,1.176-5.4s3.771.381,4.982,2.111,1.592,2.733,2.422,4.083C23.809,19.63,25.781,23.09,22.114,24.959Z" transform="translate(36.581 25.342)" fill="#e98660"/>
        <path id="Path_89" data-name="Path 89" d="M94.535,66.466,93.67,60.1a44.088,44.088,0,0,1,4.6-1.28c3.079-.623,6.5-.208,8.788-3.079,2.457,2.041,5.017,4.014,7.4,6.159s2.145,3.01-1,3.737a20.172,20.172,0,0,0-9.273,3.46c-1.938-.761-3.46.519-5.432.761C96.057,70.479,94.258,69.649,94.535,66.466Z" transform="translate(230.505 137.109)" fill="#e6ae3e"/>
        <path id="Path_90" data-name="Path 90" d="M110.159,71.6c-2.284,2.872-5.709,2.457-8.788,3.079a44.08,44.08,0,0,0-4.6,1.419,107.256,107.256,0,0,1-4.36-18.58c6.574-1.211,13.148-2.353,19.687-3.668,5.19-1.073,10.138-3.46,15.673-2.976,1.592-3.979,2.353.83,3.633.346,1.938,6.4.45,12.94.761,19.41a20.483,20.483,0,0,1-17.646.242C112.789,70.255,111.163,68.352,110.159,71.6Z" transform="translate(227.405 121.245)" fill="#ecc734"/>
        <path id="Path_91" data-name="Path 91" d="M86.3,10.854l.623-.934,1.176.415C87.684,11.2,86.923,10.716,86.3,10.854Z" transform="translate(212.375 24.395)" fill="#272565"/>
        <path id="Path_92" data-name="Path 92" d="M97.55,127l.934.519Z" transform="translate(240.049 312.403)" fill="#303179"/>
        <path id="Path_93" data-name="Path 93" d="M89.61,51.12l.761.934Z" transform="translate(220.517 125.744)" fill="#64b1fd"/>
        <path id="Path_94" data-name="Path 94" d="M6.88,127v-.311a1.211,1.211,0,0,1,.381,0V127a1.556,1.556,0,0,1-.381,0Z" transform="translate(17.008 311.605)" fill="#272565"/>
      </g>
    </g>
  </g>
</svg>
