<svg xmlns="http://www.w3.org/2000/svg" width="283.747" height="112.411" viewBox="0 0 283.747 112.411">
  <g id="contact-2" transform="translate(0.032 -179.914)">
    <g id="_Layer_" data-name="&lt;Layer&gt;" transform="translate(-0.032 154.599)">
      <path id="Path_5701" data-name="Path 5701" d="M276.893,512.266c0,2.045-59.244,3.7-132.323,3.7s-132.32-1.654-132.32-3.7,59.24-3.7,132.32-3.7S276.893,510.224,276.893,512.266Z" transform="translate(-7.804 -378.24)" fill="#6D0C17"/>
      <path id="Path_5702" data-name="Path 5702" d="M747.74,428.839a4.634,4.634,0,0,0,6.107-.221,4.645,4.645,0,0,0-6.107.221Z" transform="translate(-477.036 -326.569)" fill="#9e84e2"/>
      <path id="Path_5703" data-name="Path 5703" d="M691.916,381.982a111.073,111.073,0,0,0,1.169-17.934c-.025-3-.188-5.988-.427-8.971s-.59-5.959-1.006-8.92a164.772,164.772,0,0,0-3.533-17.572q-1.122-4.344-2.473-8.616c-.909-2.845-1.875-5.673-2.994-8.449l-.362.145c1.086,2.769,2.006,5.6,2.874,8.449s1.647,5.723,2.357,8.616a164.319,164.319,0,0,1,3.3,17.543c.362,2.95.7,5.908.891,8.873s.322,5.937.311,8.906a109.986,109.986,0,0,1-1.376,17.739Z" transform="translate(-435.28 -252.525)" fill="#9e84e2"/>
      <path id="Path_5704" data-name="Path 5704" d="M675.375,278.63A8.894,8.894,0,0,1,677.127,291a8.894,8.894,0,0,1-1.752-12.37Z" transform="translate(-429.744 -231.542)" fill="#9e84e2"/>
      <path id="Path_5705" data-name="Path 5705" d="M694.17,303.773a6.95,6.95,0,0,1-6.676,7.124,6.95,6.95,0,0,1,6.676-7.124Z" transform="translate(-438.576 -247.577)" fill="#9e84e2"/>
      <path id="Path_5706" data-name="Path 5706" d="M670.436,316.813a6.946,6.946,0,0,1-9.286-3.008,6.946,6.946,0,0,1,9.286,3.008Z" transform="translate(-421.793 -253.484)" fill="#9e84e2"/>
      <path id="Path_5707" data-name="Path 5707" d="M675.786,334.7a6.949,6.949,0,0,1-9.286-3,6.943,6.943,0,0,1,9.286,3Z" transform="translate(-425.206 -264.896)" fill="#9e84e2"/>
      <path id="Path_5708" data-name="Path 5708" d="M681.376,353.259a6.949,6.949,0,0,1-9.286-3,6.949,6.949,0,0,1,9.286,3Z" transform="translate(-428.772 -276.739)" fill="#9e84e2"/>
      <path id="Path_5709" data-name="Path 5709" d="M685.135,370.547a6.946,6.946,0,0,1-9.286-3.008,6.324,6.324,0,0,1,5.26-.4A6.225,6.225,0,0,1,685.135,370.547Z" transform="translate(-431.171 -287.768)" fill="#9e84e2"/>
      <path id="Path_5710" data-name="Path 5710" d="M699.94,367.047a6.946,6.946,0,0,0,9.286-3.008,6.946,6.946,0,0,0-9.286,3.008Z" transform="translate(-446.54 -285.535)" fill="#9e84e2"/>
      <path id="Path_5711" data-name="Path 5711" d="M699.176,320.222a6.944,6.944,0,0,1-6.672,7.121,6.944,6.944,0,0,1,6.672-7.121Z" transform="translate(-441.773 -258.07)" fill="#9e84e2"/>
      <path id="Path_5712" data-name="Path 5712" d="M704.97,338.912a6.944,6.944,0,0,1-6.676,7.121,6.951,6.951,0,0,1,6.676-7.121Z" transform="translate(-445.467 -269.995)" fill="#9e84e2"/>
      <path id="Path_5713" data-name="Path 5713" d="M603.193,354.81a62.95,62.95,0,0,1,7.389,4.9,83.023,83.023,0,0,1,6.759,5.745,87.7,87.7,0,0,1,6.154,6.411,86.59,86.59,0,0,1,5.43,7.034,83.231,83.231,0,0,1,8.475,15.61,86.329,86.329,0,0,1,4.9,17.105l-1.256.21a84.892,84.892,0,0,0-4.576-16.942,81.9,81.9,0,0,0-8.145-15.567,85,85,0,0,0-17.934-19.368,62.245,62.245,0,0,0-7.28-4.989Z" transform="translate(-384.764 -280.143)" fill="#9e84e2"/>
      <path id="Path_5714" data-name="Path 5714" d="M576.89,335.984a8.871,8.871,0,0,0,10.205,7.19,8.871,8.871,0,0,0-10.205-7.19Z" transform="translate(-368.036 -268)" fill="#9e84e2"/>
      <path id="Path_5715" data-name="Path 5715" d="M613.6,331.74a8.891,8.891,0,0,0,.717,12.471,8.891,8.891,0,0,0-.717-12.471Z" transform="translate(-390.042 -265.425)" fill="#9e84e2"/>
      <path id="Path_5716" data-name="Path 5716" d="M634.351,343.77a8.9,8.9,0,0,0-2.628,12.214,8.9,8.9,0,0,0,2.628-12.214Z" transform="translate(-402.115 -273.1)" fill="#9e84e2"/>
      <path id="Path_5717" data-name="Path 5717" d="M650.522,358.65a8.892,8.892,0,0,0-2.632,12.214,8.892,8.892,0,0,0,2.632-12.214Z" transform="translate(-412.429 -282.593)" fill="#9e84e2"/>
      <path id="Path_5718" data-name="Path 5718" d="M665.407,374a8.891,8.891,0,0,0-5.669,11.132A8.891,8.891,0,0,0,665.407,374Z" transform="translate(-420.572 -292.386)" fill="#9e84e2"/>
      <path id="Path_5719" data-name="Path 5719" d="M676.2,393.083a7.287,7.287,0,0,0-5.43,2.654,7.166,7.166,0,0,0-1.991,5.694,7.262,7.262,0,0,0,5.43-2.654A7.183,7.183,0,0,0,676.2,393.083Z" transform="translate(-426.619 -304.559)" fill="#9e84e2"/>
      <path id="Path_5720" data-name="Path 5720" d="M685.711,405.123a7.274,7.274,0,0,0-5.43,2.654,7.183,7.183,0,0,0-1.991,5.694,7.287,7.287,0,0,0,5.43-2.654A7.166,7.166,0,0,0,685.711,405.123Z" transform="translate(-432.688 -312.24)" fill="#9e84e2"/>
      <path id="Path_5721" data-name="Path 5721" d="M693.056,422.884a6.8,6.8,0,0,0-6.35,7.153,6.811,6.811,0,0,0,6.35-7.153Z" transform="translate(-438.063 -323.571)" fill="#9e84e2"/>
      <path id="Path_5722" data-name="Path 5722" d="M696.378,440.512a5.773,5.773,0,0,0-7.508,2.893,5.773,5.773,0,0,0,7.508-2.893Z" transform="translate(-439.478 -334.498)" fill="#9e84e2"/>
      <path id="Path_5723" data-name="Path 5723" d="M700.429,454.6a4.595,4.595,0,0,0-6.419.279,4.595,4.595,0,0,0,6.419-.279Z" transform="translate(-442.757 -343.06)" fill="#9e84e2"/>
      <path id="Path_5724" data-name="Path 5724" d="M586.92,368.069a8.9,8.9,0,0,0,11.809-4.083,8.89,8.89,0,0,0-11.809,4.083Z" transform="translate(-374.435 -285.406)" fill="#9e84e2"/>
      <path id="Path_5725" data-name="Path 5725" d="M601.64,380.175a8.89,8.89,0,0,0,11.809-4.083,8.895,8.895,0,0,0-11.809,4.083Z" transform="translate(-383.826 -293.131)" fill="#9e84e2"/>
      <path id="Path_5726" data-name="Path 5726" d="M617.33,395.143a8.2,8.2,0,0,0,6.759.362,8.071,8.071,0,0,0,5.068-4.464,8.912,8.912,0,0,0-11.827,4.1Z" transform="translate(-393.836 -302.669)" fill="#9e84e2"/>
      <path id="Path_5727" data-name="Path 5727" d="M635,406.73a7.245,7.245,0,0,0,9.6-3.312,7.248,7.248,0,0,0-9.6,3.312Z" transform="translate(-405.109 -310.676)" fill="#9e84e2"/>
      <path id="Path_5728" data-name="Path 5728" d="M648.31,417.487a5.684,5.684,0,0,0,7.758-2.682,5.682,5.682,0,0,0-7.758,2.682Z" transform="translate(-413.601 -317.997)" fill="#9e84e2"/>
      <path id="Path_5729" data-name="Path 5729" d="M656.23,429.69a5.682,5.682,0,0,0,7.758-2.683,5.682,5.682,0,0,0-7.758,2.683Z" transform="translate(-418.654 -325.783)" fill="#9e84e2"/>
      <path id="Path_5730" data-name="Path 5730" d="M664.92,442.755a5.662,5.662,0,0,0,7.613-1.234,5.662,5.662,0,0,0-7.613,1.234Z" transform="translate(-424.198 -334.849)" fill="#9e84e2"/>
      <path id="Path_5731" data-name="Path 5731" d="M673.31,453.583a4.922,4.922,0,0,0,5.611-3.834,4.914,4.914,0,0,0-5.611,3.834Z" transform="translate(-429.551 -340.64)" fill="#9e84e2"/>
      <path id="Path_5732" data-name="Path 5732" d="M682.66,462.358a3.761,3.761,0,0,0,3.674-3.678,3.761,3.761,0,0,0-3.674,3.678Z" transform="translate(-435.516 -346.411)" fill="#9e84e2"/>
      <path id="Path_5733" data-name="Path 5733" d="M688.841,467.024a2.111,2.111,0,1,0,.612-1.636A1.962,1.962,0,0,0,688.841,467.024Z" transform="translate(-439.453 -350.295)" fill="#9e84e2"/>
      <path id="Path_5734" data-name="Path 5734" d="M690.841,471.148a2.107,2.107,0,1,0,.612-1.636,1.959,1.959,0,0,0-.612,1.636Z" transform="translate(-440.728 -352.928)" fill="#9e84e2"/>
      <path id="Path_5735" data-name="Path 5735" d="M730.486,341.05a57.491,57.491,0,0,0-5.028,6.516,76.343,76.343,0,0,0-4.225,7.056,81.7,81.7,0,0,0-3.479,7.465,80.747,80.747,0,0,0-2.672,7.794,77.109,77.109,0,0,0-2.787,16.24,80.027,80.027,0,0,0,.793,16.486l1.166-.192a78.992,78.992,0,0,1-1.032-16.247,76.164,76.164,0,0,1,2.512-16.11,79.391,79.391,0,0,1,2.534-7.772q1.484-3.812,3.341-7.468a75.853,75.853,0,0,1,4.1-7.092,57.4,57.4,0,0,1,4.905-6.552Z" transform="translate(-454.345 -271.365)" fill="#c5b5ee"/>
      <path id="Path_5736" data-name="Path 5736" d="M768.146,317a8.244,8.244,0,0,1-6.831,9.362,7.519,7.519,0,0,1,1.5-6.085A7.424,7.424,0,0,1,768.146,317Z" transform="translate(-485.59 -256.021)" fill="#c5b5ee"/>
      <path id="Path_5737" data-name="Path 5737" d="M741.524,325a8.253,8.253,0,0,1,3.092,11.172A8.253,8.253,0,0,1,741.524,325Z" transform="translate(-472.381 -261.125)" fill="#c5b5ee"/>
      <path id="Path_5738" data-name="Path 5738" d="M725.432,342.72a8.246,8.246,0,0,1,5.952,9.945,8.253,8.253,0,0,1-5.952-9.945Z" transform="translate(-462.598 -272.43)" fill="#c5b5ee"/>
      <path id="Path_5739" data-name="Path 5739" d="M715.633,360.61a8.246,8.246,0,0,1,5.952,9.945,8.254,8.254,0,0,1-5.952-9.945Z" transform="translate(-456.351 -283.844)" fill="#c5b5ee"/>
      <path id="Path_5740" data-name="Path 5740" d="M704.372,379.543a7.451,7.451,0,0,1,5.792,2.342,7.563,7.563,0,0,1,2.491,5.745,8.22,8.22,0,0,1-8.283-8.087Z" transform="translate(-449.358 -295.902)" fill="#c5b5ee"/>
      <path id="Path_5741" data-name="Path 5741" d="M698.59,399.761a6.746,6.746,0,0,1,5.55.724,6.643,6.643,0,0,1,3.443,4.406,7.382,7.382,0,0,1-8.992-5.13Z" transform="translate(-445.679 -308.619)" fill="#c5b5ee"/>
      <path id="Path_5742" data-name="Path 5742" d="M693.82,413.17a7.381,7.381,0,0,1,9,5.133,6.747,6.747,0,0,1-5.55-.724A6.673,6.673,0,0,1,693.82,413.17Z" transform="translate(-442.636 -317.17)" fill="#c5b5ee"/>
      <path id="Path_5743" data-name="Path 5743" d="M694.34,430.513a6.32,6.32,0,0,1,7.711,4.391,5.745,5.745,0,0,1-4.757-.612A5.81,5.81,0,0,1,694.34,430.513Z" transform="translate(-442.968 -328.264)" fill="#c5b5ee"/>
      <path id="Path_5744" data-name="Path 5744" d="M695.23,446.382a5.346,5.346,0,0,1,7.45.3,5.346,5.346,0,0,1-7.45-.3Z" transform="translate(-443.535 -337.693)" fill="#c5b5ee"/>
      <path id="Path_5745" data-name="Path 5745" d="M697.91,458.96a4.3,4.3,0,0,1,5.742-1.676,4.3,4.3,0,0,1-5.742,1.676Z" transform="translate(-445.245 -345.189)" fill="#c5b5ee"/>
      <path id="Path_5746" data-name="Path 5746" d="M763.354,351.3a8.238,8.238,0,0,1-11.584-.069,8.247,8.247,0,0,1,11.584.069Z" transform="translate(-479.607 -276.366)" fill="#c5b5ee"/>
      <path id="Path_5747" data-name="Path 5747" d="M754,366.331a8.26,8.26,0,0,1-11.6-.069,8.269,8.269,0,0,1,11.6.069Z" transform="translate(-473.629 -285.955)" fill="#c5b5ee"/>
      <path id="Path_5748" data-name="Path 5748" d="M744.7,384.131a8.238,8.238,0,0,1-11.584-.069,8.247,8.247,0,0,1,11.584.069Z" transform="translate(-467.709 -297.311)" fill="#c5b5ee"/>
      <path id="Path_5749" data-name="Path 5749" d="M735.932,398.932a6.071,6.071,0,0,1-4.706,1.9,6.151,6.151,0,0,1-4.706-1.958,6.691,6.691,0,0,1,9.412.054Z" transform="translate(-463.498 -307.041)" fill="#c5b5ee"/>
      <path id="Path_5750" data-name="Path 5750" d="M730.283,411.777a5.27,5.27,0,0,1-7.613-.043,5.27,5.27,0,0,1,7.613.043Z" transform="translate(-461.042 -315.437)" fill="#c5b5ee"/>
      <path id="Path_5751" data-name="Path 5751" d="M726.963,424.857a5.27,5.27,0,0,1-7.613-.043,5.27,5.27,0,0,1,7.613.043Z" transform="translate(-458.924 -323.781)" fill="#c5b5ee"/>
      <path id="Path_5752" data-name="Path 5752" d="M723.566,438.5a5.254,5.254,0,0,1-7.056,1.187,5.254,5.254,0,0,1,7.056-1.187Z" transform="translate(-457.112 -332.98)" fill="#c5b5ee"/>
      <path id="Path_5753" data-name="Path 5753" d="M722.121,450.789a4.57,4.57,0,0,1-6.071-1.705,4.573,4.573,0,0,1,6.071,1.705Z" transform="translate(-456.818 -339.935)" fill="#c5b5ee"/>
      <path id="Path_5754" data-name="Path 5754" d="M719.462,460.8a3.486,3.486,0,0,1-4.322-2.136A3.486,3.486,0,0,1,719.462,460.8Z" transform="translate(-456.238 -346.302)" fill="#c5b5ee"/>
      <path id="Path_5755" data-name="Path 5755" d="M717.635,466.034a.83.83,0,1,1,.007,0Z" transform="translate(-456.148 -350.17)" fill="#c5b5ee"/>
      <path id="Path_5756" data-name="Path 5756" d="M717.093,470.247a1.81,1.81,0,0,1-1.618-.047,1.835,1.835,0,0,1-1.025-1.256,1.955,1.955,0,0,1,2.643,1.3Z" transform="translate(-455.797 -352.863)" fill="#c5b5ee"/>
      <path id="Path_5757" data-name="Path 5757" d="M654.069,324.39a62.211,62.211,0,0,1,5.068,7.269,85.231,85.231,0,0,1,10,24.573,83.024,83.024,0,0,1,2.15,17.634,86.154,86.154,0,0,1-1.712,17.717l-1.242-.268a85.3,85.3,0,0,0,1.962-17.438,82.035,82.035,0,0,0-1.846-17.485,84.7,84.7,0,0,0-9.561-24.573,62.056,62.056,0,0,0-4.938-7.313Z" transform="translate(-417.199 -260.736)" fill="#7763aa"/>
      <path id="Path_5758" data-name="Path 5758" d="M635.992,297.51a8.892,8.892,0,0,0,6.867,10.437,8.892,8.892,0,0,0-6.867-10.437Z" transform="translate(-405.576 -243.587)" fill="#7763aa"/>
      <path id="Path_5759" data-name="Path 5759" d="M667.31,308.13a8.892,8.892,0,0,0-3.913,11.863,8.891,8.891,0,0,0,3.913-11.863Z" transform="translate(-422.603 -250.362)" fill="#7763aa"/>
      <path id="Path_5760" data-name="Path 5760" d="M681.159,328.12a8.894,8.894,0,0,0-6.929,10.4,8.894,8.894,0,0,0,6.929-10.4Z" transform="translate(-429.978 -263.115)" fill="#7763aa"/>
      <path id="Path_5761" data-name="Path 5761" d="M690.739,347.9a8.894,8.894,0,0,0-6.929,10.4,8.894,8.894,0,0,0,6.929-10.4Z" transform="translate(-436.09 -275.735)" fill="#7763aa"/>
      <path id="Path_5762" data-name="Path 5762" d="M698.6,368.874a8.892,8.892,0,0,0-9.358,8.276,8.891,8.891,0,0,0,9.358-8.276Z" transform="translate(-439.712 -289.07)" fill="#7763aa"/>
      <path id="Path_5763" data-name="Path 5763" d="M702.725,390.779a7.947,7.947,0,0,0-9.955,5.047,7.947,7.947,0,0,0,9.955-5.047Z" transform="translate(-441.966 -302.801)" fill="#7763aa"/>
      <path id="Path_5764" data-name="Path 5764" d="M707.155,405.469a7.947,7.947,0,0,0-9.955,5.046,7.947,7.947,0,0,0,9.955-5.046Z" transform="translate(-444.792 -312.173)" fill="#7763aa"/>
      <path id="Path_5765" data-name="Path 5765" d="M708.2,424.106a6.8,6.8,0,0,0-8.529,4.322,6.809,6.809,0,0,0,8.529-4.322Z" transform="translate(-446.368 -324.105)" fill="#7763aa"/>
      <path id="Path_5766" data-name="Path 5766" d="M707.177,441.011a5.766,5.766,0,0,0-8.037-.062,5.766,5.766,0,0,0,8.037.062Z" transform="translate(-446.03 -334.079)" fill="#7763aa"/>
      <path id="Path_5767" data-name="Path 5767" d="M706.989,454.38a4.208,4.208,0,0,0-2.617-2.288,4.126,4.126,0,0,0-3.472.185,4.62,4.62,0,0,0,6.089,2.1Z" transform="translate(-447.153 -342.025)" fill="#7763aa"/>
      <path id="Path_5768" data-name="Path 5768" d="M630.9,334.845a8.888,8.888,0,0,0,12.482.536,8.9,8.9,0,0,0-12.482-.536Z" transform="translate(-402.494 -265.938)" fill="#7763aa"/>
      <path id="Path_5769" data-name="Path 5769" d="M640.14,351.518a8.9,8.9,0,0,0,12.482.536,8.888,8.888,0,0,0-12.482-.536Z" transform="translate(-408.389 -276.573)" fill="#7763aa"/>
      <path id="Path_5770" data-name="Path 5770" d="M649.26,371.175a8.888,8.888,0,0,0,12.482.536,8.9,8.9,0,0,0-12.482-.536Z" transform="translate(-414.207 -289.116)" fill="#7763aa"/>
      <path id="Path_5771" data-name="Path 5771" d="M662.09,387.694a7.235,7.235,0,0,0,10.151.434,7.226,7.226,0,0,0-10.151-.434Z" transform="translate(-422.393 -299.926)" fill="#7763aa"/>
      <path id="Path_5772" data-name="Path 5772" d="M670.94,401.888a5.682,5.682,0,0,0,8.2.351,5.674,5.674,0,0,0-8.2-.351Z" transform="translate(-428.039 -309.167)" fill="#7763aa"/>
      <path id="Path_5773" data-name="Path 5773" d="M673.83,416.148a5.682,5.682,0,0,0,8.2.351,5.674,5.674,0,0,0-8.2-.351Z" transform="translate(-429.882 -318.265)" fill="#7763aa"/>
      <path id="Path_5774" data-name="Path 5774" d="M677.85,430.974a5.673,5.673,0,0,0,7.537,1.647,5.661,5.661,0,0,0-7.537-1.647Z" transform="translate(-432.447 -328.218)" fill="#7763aa"/>
      <path id="Path_5775" data-name="Path 5775" d="M680.56,444.506A4.923,4.923,0,0,0,687.192,443a4.923,4.923,0,0,0-6.632,1.506Z" transform="translate(-434.176 -335.951)" fill="#7763aa"/>
      <path id="Path_5776" data-name="Path 5776" d="M686.2,455.51a3.761,3.761,0,0,0,4.768-2.071A3.761,3.761,0,0,0,686.2,455.51Z" transform="translate(-437.774 -342.919)" fill="#7763aa"/>
      <path id="Path_5777" data-name="Path 5777" d="M691.17,461.277a2.107,2.107,0,1,0,1.169-1.3A2.1,2.1,0,0,0,691.17,461.277Z" transform="translate(-440.945 -347.129)" fill="#7763aa"/>
      <path id="Path_5778" data-name="Path 5778" d="M691.53,465.832a2.1,2.1,0,1,0,1.167-1.3A2.107,2.107,0,0,0,691.53,465.832Z" transform="translate(-441.175 -350.033)" fill="#7763aa"/>
      <path id="Path_5779" data-name="Path 5779" d="M712.415,434.777c2.787-4.087,5.727-8.08,8.862-11.914l-.051-.043c-3.215,3.772-6.237,7.707-9.115,11.747a141.6,141.6,0,0,0-8.015,12.544q-.887,1.578-1.716,3.186l.648.362q.8-1.629,1.654-3.229a140.542,140.542,0,0,1,7.733-12.652Z" transform="translate(-448.097 -323.533)" fill="#9e84e2"/>
      <path id="Path_5780" data-name="Path 5780" d="M757.28,408.54a4.047,4.047,0,1,0-.38,3.337A4.047,4.047,0,0,0,757.28,408.54Z" transform="translate(-480.986 -314.422)" fill="#9e84e2"/>
      <path id="Path_5781" data-name="Path 5781" d="M741.437,415.13a4.633,4.633,0,1,0,2.172,2.436A4.184,4.184,0,0,0,741.437,415.13Z" transform="translate(-472.811 -318.627)" fill="#9e84e2"/>
      <path id="Path_5782" data-name="Path 5782" d="M741.24,437.171a4.166,4.166,0,0,0,3.182.724,4.123,4.123,0,0,0,2.871-1.557,4.166,4.166,0,0,0-3.182-.724A4.1,4.1,0,0,0,741.24,437.171Z" transform="translate(-472.889 -331.664)" fill="#9e84e2"/>
      <path id="Path_5783" data-name="Path 5783" d="M732.71,448.17a4.171,4.171,0,0,0,3.186.724,4.106,4.106,0,0,0,2.867-1.557,4.63,4.63,0,0,0-6.053.833Z" transform="translate(-467.447 -338.682)" fill="#9e84e2"/>
      <path id="Path_5784" data-name="Path 5784" d="M726.92,456.927a4.633,4.633,0,0,0,6.053-.829,4.635,4.635,0,0,0-6.053.829Z" transform="translate(-463.753 -344.27)" fill="#9e84e2"/>
      <path id="Path_5785" data-name="Path 5785" d="M720.5,466.6a4.635,4.635,0,0,0,6.053-.829,4.635,4.635,0,0,0-6.053.829Z" transform="translate(-459.657 -350.444)" fill="#9e84e2"/>
      <path id="Path_5786" data-name="Path 5786" d="M733.967,424.58a4.644,4.644,0,1,0,2.168,2.436A4.125,4.125,0,0,0,733.967,424.58Z" transform="translate(-468.045 -324.656)" fill="#9e84e2"/>
      <path id="Path_5787" data-name="Path 5787" d="M726.877,434.3a4.633,4.633,0,1,0,2.172,2.436A4.124,4.124,0,0,0,726.877,434.3Z" transform="translate(-463.522 -330.857)" fill="#9e84e2"/>
      <path id="Path_5788" data-name="Path 5788" d="M720.127,444.1a4.633,4.633,0,1,0,2.172,2.436A4.171,4.171,0,0,0,720.127,444.1Z" transform="translate(-459.215 -337.109)" fill="#9e84e2"/>
      <path id="Path_5789" data-name="Path 5789" d="M713.58,453.7a4.64,4.64,0,1,0,2.172,2.436A4.126,4.126,0,0,0,713.58,453.7Z" transform="translate(-455.04 -343.234)" fill="#9e84e2"/>
      <path id="Path_5790" data-name="Path 5790" d="M693.67,481.71H675.138c-3.077,1.575-5.028,3.91-5.028,6.516,0,2.791,2.223,5.267,5.666,6.831h17.243c3.443-1.564,5.669-4.04,5.669-6.831C698.7,485.62,696.743,483.285,693.67,481.71Z" transform="translate(-427.509 -361.104)" fill="#6D0C17"/>
      <path id="Path_5791" data-name="Path 5791" d="M725.617,485.722a4.83,4.83,0,0,1,4.905,3.931c.862,5.459-4.608,7.063-7.6,5.676,2.6-.652,5.43-1.846,5.528-4.532a4.969,4.969,0,0,0-.724-2.806,7.489,7.489,0,0,0-.782-1.05,7.962,7.962,0,0,0-1.325-1.22Z" transform="translate(-461.201 -363.65)" fill="#5d30af"/>
      <rect id="Rectangle_1023" data-name="Rectangle 1023" width="20.457" height="1.285" transform="translate(246.565 119.806)" fill="#a853b0"/>
      <path id="Path_5792" data-name="Path 5792" d="M147.268,458.59h1.542v-32.9h-2.74Z" transform="translate(-93.179 -325.364)" fill="#1e0c00"/>
      <path id="Path_5793" data-name="Path 5793" d="M52.88,461.5h1.654L55.62,430.67H52.88Z" transform="translate(-33.725 -328.541)" fill="#1e0c00"/>
      <path id="Path_5794" data-name="Path 5794" d="M202.478,455.009h1.542V423.93h-2.74Z" transform="translate(-128.402 -324.241)" fill="#1e0c00"/>
      <path id="Path_5795" data-name="Path 5795" d="M98.313,465.128l1.654-.022.793-26.966-2.74.036Z" transform="translate(-62.524 -333.307)" fill="#1e0c00"/>
      <path id="Path_5796" data-name="Path 5796" d="M32.15,333.746c.724-5.275-5.4-37.649-8.116-38.594-1.307-.463-7.6-.243-13.329.072a9.134,9.134,0,0,0-8.529,10.5l3.8,24.573c1.658,10.734,49.48,3.28,49.48,3.28Z" transform="translate(-1.31 -241.913)" fill="#5db9f4"/>
      <path id="Path_5797" data-name="Path 5797" d="M106.6,322.115c-8.29-.927-22.716.159-26.148-1.18s-6.3-8.764-8.83-12.529c-3.667-5.452-5-4.67-8.884-5.836L68.576,339.4l22.709,9.988,23.031-.93c.362-.025,1.271-7.1,1.253-7.946C115.453,335.336,116.231,323.176,106.6,322.115Z" transform="translate(-40.016 -246.815)" fill="#00677f"/>
      <path id="Path_5798" data-name="Path 5798" d="M141.286,419.556l18.184-4.286a2.853,2.853,0,0,0,2.277-2.824l-.119-3.305a5.079,5.079,0,0,0-6.516-4.514l-17.941,4.608Z" transform="translate(-87.501 -311.812)" fill="#00485c"/>
      <path id="Path_5799" data-name="Path 5799" d="M212.231,474.756c-.058.525-.97,1.354.3,2.172.431.279.521-.405,2.129.362,1.086.518,3,2.686,4.094,2.95a6.208,6.208,0,0,0,3.783-.279c-1.043-.677-1.864-1.481-3.026-2.1-3.537-1.861-5.267-16.117-5.875-15.509a39.88,39.88,0,0,1-4.789,1.564C210.78,466.418,212.474,472.46,212.231,474.756Z" transform="translate(-133.232 -348.745)" fill="#fd5e5a"/>
      <path id="Path_5800" data-name="Path 5800" d="M218.556,496.807a3.176,3.176,0,0,0-1.662-.192c0,.532-1.481,1.535-.239,2.346s3.066,5.894,3.066,5.894l.843-.235s-2.737-5.618-1.488-5.133,3.436,4.446,3.436,4.446l5.731-1.72-.362-1.046c-.6-.391-1.568-.749-2.15-.257C223.288,502.976,220.4,497.647,218.556,496.807Z" transform="translate(-137.895 -370.604)" fill="#3a0049"/>
      <path id="Path_5801" data-name="Path 5801" d="M127.168,367.127c-2.009-3.309-15.567-4.424-27.2-6.61a50.2,50.2,0,0,1-12.149-3.747l-2.2,5.923,9.412,6.455,28.136,2.306s6.19,23.716,9.478,29.323l6.39-1.448C135.31,392.037,129.011,370.168,127.168,367.127Z" transform="translate(-54.613 -281.394)" fill="#001542"/>
      <path id="Path_5802" data-name="Path 5802" d="M203.951,467.83c-1.408.362-2.816.764-4.221,1.216.959,2.759,1.593,5,1.365,5.68-.181.532-.391,1.064-.594,1.578a3.33,3.33,0,0,0-.047,3.066c.232.3,1.318-.268,2.3,1.224,1.205,1.839,1.665,5.9,1.665,5.9l6.332-.188s.775-.55-.724-1.546-2.614-1.195-3.283-2.465-1.64-8.239-2.5-12.671C204.172,469.191,204.06,468.576,203.951,467.83Z" transform="translate(-127.413 -352.249)" fill="#fc7575"/>
      <path id="Path_5803" data-name="Path 5803" d="M210.866,500.663h0a6.726,6.726,0,0,0-3.385-2.632l-1.158,1.166c-1.908-1.586-2.473-4.619-3.819-6.35a4.264,4.264,0,0,0-2.132-1.607c-.572,1.448-1.086,2.708-.724,3.2.521.673,1.785,7.363,1.785,7.363l.923-.177s-1.629-5.43-.767-5.919,2.389,6.154,2.389,6.154l7.009-.362S211.261,501.289,210.866,500.663Z" transform="translate(-127.284 -367.184)" fill="#4f005e"/>
      <path id="Path_5804" data-name="Path 5804" d="M181.73,385.38Z" transform="translate(-115.93 -299.647)" fill="#5279e0"/>
      <path id="Path_5805" data-name="Path 5805" d="M133.4,347.958c-.4-.518-2.918-.572-2.918-.572a17.015,17.015,0,0,1-5.586-.7c-1.738-.561-10.886-3.128-16.225-6.618-1.568,1.716-3.917,2.947-5,4.869.279.167.561.329.847.478,10.86,5.709,19.111,4.663,19.111,4.663a33.738,33.738,0,0,0,5.492,1.633c1.774.206,3.088-.311,2.172-.9s-1.466,0-2.321-.547-.532-.5-.094-1.028,3.066,0,3.135.416,1.14,3.62,1.665,2.983-.771-3.711-1.122-3.928a13.724,13.724,0,0,0-2.172-.572l2.505.395s.945,3.283,1.387,3.211S133.793,348.48,133.4,347.958Z" transform="translate(-66.128 -270.739)" fill="#915961"/>
      <path id="Path_5806" data-name="Path 5806" d="M76.5,304.649c-.724-.474-10.249-20.1-16.816-20.1a59.063,59.063,0,0,0-6.44,1.086s7.823,18.857,18.256,25.055A41.029,41.029,0,0,1,76.5,304.649Z" transform="translate(-33.955 -235.318)" fill="#b57651"/>
      <path id="Path_5807" data-name="Path 5807" d="M112.043,368,92.45,365.34s-12.37-4.474-12.392-6.44c-.362.091-7.146,4.293-7.146,4.293-1.528,4.887.42,15.722,3.913,15.031,4.837,1.274,30.634.753,30.634.753s8.254,18.6,10.549,25.211c1.716-.55,4.464-1.6,6.183-2.042C123.174,395.188,113.831,368.16,112.043,368Z" transform="translate(-46.17 -282.753)" fill="#122753"/>
      <path id="Path_5808" data-name="Path 5808" d="M68.183,310.938c-.474-2.15-7.085.279-7.085-9.637a73.162,73.162,0,0,1,.058-7.914c.272-2.813-10.343-13.007-10.343-13.007s-9.2,1.528-9.076,4.485,3.392,18.756,3.5,19.715c.337,2.994,8.326,15.523,8.12,17.782C57.189,321.6,66.746,315.3,68.183,310.938Z" transform="translate(-26.616 -232.658)" fill="#f19e6e"/>
      <path id="Path_5809" data-name="Path 5809" d="M40.086,219.67c-.333.463-4.344.691-6.943,4.934-2.534,4.138.185,11.222,1.93,14.615a7.331,7.331,0,0,0,1.372,1.9,11.584,11.584,0,0,1,3.446-1.22,41.883,41.883,0,0,0,6.748-1.274c1.937-.7-.264-12.906-2.255-15.661A8.237,8.237,0,0,0,40.086,219.67Z" transform="translate(-20.475 -193.926)" fill="#2e0a29"/>
      <path id="Path_5810" data-name="Path 5810" d="M47.07,218.931s6.48-2.006,8.688,2.473c1.354,2.766,2,11.49,4.608,11.3,0,0-1.021,1.387-1.991,1.546,0,0-.362.8,1.477,2.136a12.757,12.757,0,0,1-3.671,1.47c-.134.025-1.47.724-1.846-.46-.442-1.387.047-4.757-.362-6.1C52.149,225.625,47.07,218.931,47.07,218.931Z" transform="translate(-30.018 -193.169)"/>
      <path id="Path_5811" data-name="Path 5811" d="M54.66,220.872a4.344,4.344,0,0,1,1.173-.1s3.2.666,3.931,3.388.974,4.467,1.64,6.187c1.046,2.708.8,7.82-2.266,8.373-.362-1.448.076-4.659-.337-5.959C57.288,228.007,55.275,222.534,54.66,220.872Z" transform="translate(-34.861 -194.625)" fill="#2f2f2f"/>
      <path id="Path_5812" data-name="Path 5812" d="M51.41,258.4l.652,9.206s6.133,6.817,8.88,6.19c.141-.033-2.827-6.1-2.9-6.324,0,0-.67-5.394-.8-7.012S51.41,258.4,51.41,258.4Z" transform="translate(-32.787 -218.635)" fill="#a0616a"/>
      <path id="Path_5813" data-name="Path 5813" d="M52,259.3l.434,5.007c3.428,2.248,5.253-1.987,5.282-2.013-.362-1.321-.076-.691-.123-1.26C57.474,259.416,52,259.3,52,259.3Z" transform="translate(-33.164 -219.209)" fill="#915961"/>
      <path id="Path_5814" data-name="Path 5814" d="M46.17,221.187a6.049,6.049,0,0,1,4.677,2.534c1.206,1.774,1.086,4.131,1.843,6.093.634,1.647.833,6.361-1.611,8.058s-6.9-1.987-7.935-3.845a16.4,16.4,0,0,1-1.785-7.888,5.173,5.173,0,0,1,2.585-4.446,4.069,4.069,0,0,1,2.226-.507Z" transform="translate(-26.374 -194.889)" fill="#a0616a"/>
      <path id="Path_5815" data-name="Path 5815" d="M65.242,249.32a2.643,2.643,0,0,1-.872-1.85,5.919,5.919,0,0,0,1.086,1.741l.087.058a1.734,1.734,0,0,1-1,.6A2.563,2.563,0,0,0,65.242,249.32Z" transform="translate(-41.056 -211.662)" fill="#450f3d"/>
      <path id="Path_5816" data-name="Path 5816" d="M55.3,240.151a1.832,1.832,0,0,0-1-.272c-.634,0-1.788.963-1.788.963a10.933,10.933,0,0,1,1.589-.67,2.661,2.661,0,0,1,1,.174Z" transform="translate(-33.489 -206.819)"/>
      <path id="Path_5817" data-name="Path 5817" d="M64.91,238.825a1.709,1.709,0,0,1,.681-.594,3.844,3.844,0,0,1,1.738,0,10.02,10.02,0,0,0-1.477.127,2.472,2.472,0,0,0-.724.521Z" transform="translate(-41.4 -205.696)"/>
      <path id="Path_5818" data-name="Path 5818" d="M57.013,244.764a1.705,1.705,0,0,0-1.448-.1c-.547.228-.775.76-1.115.905.561.022.619-.615,1.864-.8A2.132,2.132,0,0,1,57.013,244.764Z" transform="translate(-34.727 -209.796)" fill="#2e0a29"/>
      <path id="Path_5819" data-name="Path 5819" d="M66.6,243.575a1.709,1.709,0,0,1,.985-1.057c.558-.206,1.086.029,1.448-.1-.4.4-.876-.025-1.915.681A2.414,2.414,0,0,0,66.6,243.575Z" transform="translate(-42.478 -208.44)" fill="#2e0a29"/>
      <path id="Path_5820" data-name="Path 5820" d="M54.793,250.905c.091.438-.405.909-1.108,1.053s-1.347-.087-1.448-.521.405-.909,1.108-1.053S54.7,250.471,54.793,250.905Z" transform="translate(-33.307 -213.494)" fill="#915961"/>
      <path id="Path_5821" data-name="Path 5821" d="M70.358,247.438c.069.329-.253.677-.724.771s-.9-.091-.97-.42.253-.677.724-.775S70.293,247.105,70.358,247.438Z" transform="translate(-43.789 -211.355)" fill="#915961"/>
      <path id="Path_5822" data-name="Path 5822" d="M34.326,220.116s-3.055,4.775-2.172,8.326,4.742,7.515,4.742,7.515l-2.335,1.81,2.7,1.589s-7.812,2.172-9.412,2.172-8.268-7.573-3.171-17.279C27.064,219.678,31.813,218.849,34.326,220.116Z" transform="translate(-14.526 -193.869)"/>
      <path id="Path_5823" data-name="Path 5823" d="M61.16,256.626s3.222-.315,3.573-1.006c0,0-.177,1.539-1.227,1.832S61.16,256.626,61.16,256.626Z" transform="translate(-39.008 -216.862)"/>
      <path id="Path_5824" data-name="Path 5824" d="M64.621,256.12a3.113,3.113,0,0,0,.112-.5c-.362.691-3.573,1.006-3.573,1.006a4.769,4.769,0,0,0,.445.326A7.894,7.894,0,0,0,64.621,256.12Z" transform="translate(-39.008 -216.862)" fill="#fff"/>
      <path id="Path_5825" data-name="Path 5825" d="M54.486,352.63l-32.331-.217a17.112,17.112,0,0,1-16.07-14.481l-4.9-31.669a5.768,5.768,0,0,1,7.53-6.386,1.528,1.528,0,0,1,.847.557c1.937,3.841,4.945,17.355,9.532,21.294,5.43,4.674,19.99,2.237,30.167,1.35,0,0,5.618-.825,6.556,4.036C56.608,331.206,54.675,347.859,54.486,352.63Z" transform="translate(-0.701 -244.886)" fill="#0089a9"/>
      <path id="Path_5826" data-name="Path 5826" d="M53.753,352.463c-4.2.159-30.9.967-34.391.427A17.813,17.813,0,0,1,4.371,337.606c0-.08-4.471-30.25-4.4-32.465.188-4.065,4.25-6.987,8-5.43-3.479-1.126-7.993,1.644-6.962,6.907,6,32.943,4.8,32.143,7.067,36.274a16.435,16.435,0,0,0,14.56,8.529C26.345,351.522,37.564,351.638,53.753,352.463Z" transform="translate(0.032 -244.719)" fill="#00677f"/>
      <path id="Path_5827" data-name="Path 5827" d="M22.11,300.46c.815.217.843.206,1.759,2.089,1.879,4.044,6,15.929,9,18.314l.424.4c4.308,3.7,18.213,1.908,24.226,1.314l4.855-.427c4.344-.333,7.736,1.481,8.21,5.774.561,5.343-2.1,21.192-2.708,25.287-.362-13.116,1.358-24.443-.724-26.818-1.669-2.085-5.622-1-6.552-1l-2.769.311c-21.565,2.32-26.427.76-30.409-9.5-2.505-6.495-4-14.745-4.724-15.378a2.533,2.533,0,0,0-.586-.362Z" transform="translate(-14.094 -245.469)" fill="#32d3f9"/>
      <path id="Path_5828" data-name="Path 5828" d="M41.22,222.37a6.494,6.494,0,0,0-1.593,1.3c-3.656,3.95-2.86,9.05,1.133,11.86L39.6,237.042c-4.3-3.848-4.6-9.738-.156-13.543a6.661,6.661,0,0,1,1.777-1.129Z" transform="translate(-23.108 -195.648)" fill="#2f2f2f"/>
      <path id="Path_5829" data-name="Path 5829" d="M33.96,221.19c-3.823,2.867-6.8,7.946-4.648,12.185l.308.724c.062.062,2.415,5.108,7.5,5.354l-.123,1.9C28.674,240.283,22.955,228.242,33.96,221.19Z" transform="translate(-17.773 -194.896)" fill="#2f2f2f"/>
      <path id="Path_5830" data-name="Path 5830" d="M46.411,220.644a5.621,5.621,0,0,1,4.322.474c1.846,1.245-.062,4.16-2.313,5.09s-5.3,1.629-4.757,3.957,1.571,2.99,1.571,2.99-3.5-1.119-3.5-4.2S42.834,220.984,46.411,220.644Z" transform="translate(-26.612 -194.397)"/>
      <path id="Path_5831" data-name="Path 5831" d="M87.339,358.619a8.447,8.447,0,0,0-3-1.861,8.387,8.387,0,0,0-2.4-.083,12.464,12.464,0,0,0-2.266-.018c-2.806.25-16.711-.058-18.282-1.119a3.562,3.562,0,0,1-.724-.7c-2.114,1.763-4.152,3.6-5.068,5.832a4.006,4.006,0,0,0,.409.272c5.162,2.9,18.767-1.282,22.586-1.919a8.166,8.166,0,0,1,7.276,2.588c.083.08.362.174.362-.319a6.962,6.962,0,0,0-1.086-1.966,4.3,4.3,0,0,1,1.73,2.241c.478,1.5.565-.022.362-.626a12.958,12.958,0,0,0-1.354-1.85,9.92,9.92,0,0,1,1.991,2.6c.235.612.456-.395.159-.992a5.094,5.094,0,0,0-.362-.59,3.848,3.848,0,0,0,.8.836A3.584,3.584,0,0,0,87.339,358.619Z" transform="translate(-35.454 -280.163)" fill="#a0616a"/>
      <path id="Path_5832" data-name="Path 5832" d="M47.472,311.9c-1.361-6.339-5.828-25.906-8.877-25.453,0,0-3.425-.188-4.6,4.047-1.148,4.12,2.7,23.339,7.671,27C42.585,315.263,45.358,313.659,47.472,311.9Z" transform="translate(-21.544 -236.523)" fill="#b57651"/>
      <path id="Path_5833" data-name="Path 5833" d="M528.832,466.96H527.29v-32.9h2.744Z" transform="translate(-336.392 -330.704)" fill="#1e0c00"/>
      <path id="Path_5834" data-name="Path 5834" d="M623.22,467.907h-1.654L620.48,439.04h2.74Z" transform="translate(-395.846 -333.881)" fill="#1e0c00"/>
      <path id="Path_5835" data-name="Path 5835" d="M473.622,462.535H472.08V432.3h2.74Z" transform="translate(-301.169 -329.581)" fill="#1e0c00"/>
      <path id="Path_5836" data-name="Path 5836" d="M577.758,473.756l-1.654-.018-.764-27.7,2.74.033Z" transform="translate(-367.047 -338.347)" fill="#1e0c00"/>
      <path id="Path_5837" data-name="Path 5837" d="M554.726,342.115c-.724-5.275,5.4-37.649,8.113-38.6,1.379-.485,8.326-.214,14.307.13a8.272,8.272,0,0,1,7.707,9.525l-3.942,25.507c-1.658,10.734-49.48,3.28-49.48,3.28Z" transform="translate(-339.033 -247.251)" fill="#468bb7"/>
      <path id="Path_5838" data-name="Path 5838" d="M469.92,324.322c8.775-.963,28.194,1.951,31.821.529s5.133-10.763,7.809-14.727c3.877-5.745,5.285-4.923,9.391-6.154l-6.154,38.815L488.78,353.312l-24.345-.981c-.4-.025-1.347-7.476-1.325-8.373C463.219,338.5,459.74,325.441,469.92,324.322Z" transform="translate(-295.135 -247.708)" fill="#064655"/>
      <path id="Path_5839" data-name="Path 5839" d="M491.116,420.258l-21.124-.025a2.943,2.943,0,0,1-2.95-2.248l-.637-3.258c-.615-3.11,2.074-5.941,5.546-5.85l19.187.507Z" transform="translate(-297.492 -314.636)" fill="#064655"/>
      <path id="Path_5840" data-name="Path 5840" d="M574.624,355.54s-1.56,7.7.308,7.139S575.529,356.228,574.624,355.54Z" transform="translate(-366.201 -280.609)" fill="#372c52"/>
      <path id="Path_5841" data-name="Path 5841" d="M485.8,356.56s-2.013,5.094.691,11.827c2.353,5.861,5.394,8.58,6.733,8.594.2,0,6.364-7.161,3.62-12.837S485.8,356.56,485.8,356.56Z" transform="translate(-309.463 -281.26)" fill="#372c52"/>
      <path id="Path_5842" data-name="Path 5842" d="M536.878,291.219c-.9-1.271-2.9-1.245-3.787-1.347s-1.977-1.6-2.563-1.665-.047,1.749.883,2.063,0,1.256-.641,1.39-3.041.431-3.823-.681-1.937-1.64-1.987-1.184,1.705,2.031,1.705,2.031-2.646-1.593-2.708-1.057,2.273,1.593,2.273,1.593-1.5-.362-1.854-.04,3.772,1.846,4.54,1.933,4.989-1.086,6.375-1.5c.583-.177,1.919,2.74,3.7,6.35a12.5,12.5,0,0,1,1.419-2.9C538.674,293.858,537.233,291.722,536.878,291.219Z" transform="translate(-334.265 -237.65)" fill="#fc7575"/>
      <path id="Path_5843" data-name="Path 5843" d="M573.717,318.261c-.2.228-.474-.59-.633-.539-1.209.362-4.554-3.772-7.211-7.381a16.423,16.423,0,0,0-2,3.045c2.462,5,6.346,11.179,9.659,12.45,0,0,1.31-1.553,2.827-3.736A27.258,27.258,0,0,0,573.717,318.261Z" transform="translate(-359.73 -251.772)" fill="#8ab3bc"/>
      <path id="Path_5844" data-name="Path 5844" d="M512.643,363.711s-24.135-7.439-27.933-6.111l6.954,9.8,4.105,4.134,20.8-4.2Z" transform="translate(-309.227 -281.822)" fill="#fd5e5a"/>
      <path id="Path_5845" data-name="Path 5845" d="M503.832,507.189l-.072,5.749.641.018.8-6.556Z" transform="translate(-321.38 -376.856)" fill="#1a1722"/>
      <path id="Path_5846" data-name="Path 5846" d="M516.8,378.67c-4.833,2.559-26.007,1.716-30.619,2.816s-5.108,5.6-5.452,8.663c-.268,2.382,3.671,21.743,4.572,31.546-.3,5.238-.362,6.154-1.372,7.9s-1.245,2.107.119,2.107c1.759,0,3.3-.34,3.62-1.061.586-1.245,1.086-5.524,2.3-5.524a5.037,5.037,0,0,0,.608-2.44c-.3-1.209-1.086-.662-1.166-2.172.807-9.847,2-26,1.4-27.325a11.634,11.634,0,0,0-1.593-2.661s25.9,5.952,28.925,5.227c1.723-.409,5.466-6.216,8.688-11.965Z" transform="translate(-306.677 -295.366)" fill="#fc7575"/>
      <path id="Path_5847" data-name="Path 5847" d="M492.68,496.12c-.529,3.218-2.621,9.6-3.855,9.608-1.665,0-1.763-.08-1.752-1.206-1.017,1.749-2.172,2.646-.8,2.646,1.756,0,4.5.105,4.836-.615.586-1.242.905-5.952,2.107-5.952l-.362,5.792h.637s.945-7.964.724-8.775A2.357,2.357,0,0,0,492.68,496.12Z" transform="translate(-309.822 -370.297)" fill="#332f44"/>
      <path id="Path_5848" data-name="Path 5848" d="M459.9,472.029l-.767,5.7.634.094,1.589-6.411Z" transform="translate(-292.907 -354.533)" fill="#1a1722"/>
      <path id="Path_5849" data-name="Path 5849" d="M463.549,363.23c.42-3.732-3.761-8.153-5.571-6.2-5.546,5.98-8.67,23.455-10.31,30.561-.257,1.119-2.339,12.432-3.819,14.394-1.22,1.615-1.492,1.94-.134,2.1,1.745.214,3.312.062,3.736-.612.724-1.166,1.752-5.354,2.947-5.209a5.01,5.01,0,0,0,.9-2.346c-.119-.981-.684-.9-.858-1.571a13.808,13.808,0,0,1,.778-4.109C452.468,387.322,463.129,366.966,463.549,363.23Z" transform="translate(-282.494 -281.254)" fill="#ff4747"/>
      <path id="Path_5850" data-name="Path 5850" d="M448.682,461c-.912,3.128-3.769,9.188-4.992,9.05-1.654-.2-1.741-.293-1.6-1.408-2.505,1.227-2.473,2.364-1.115,2.534,1.745.214,4.453.652,4.876-.025.724-1.162,1.618-5.792,2.813-5.651l-1.086,5.705.63.094s1.9-7.805,1.81-8.62A2.23,2.23,0,0,0,448.682,461Z" transform="translate(-280.74 -347.891)" fill="#332f44"/>
      <path id="Path_5851" data-name="Path 5851" d="M600.3,295.227c-.55-2.237-4.753-3.139-6.419-1.7,0,0-11.295,7.671-10.708,12.464.568,4.677,2.172,14.872-2.266,17.739l-.214-.083,10.973,5.086a59.407,59.407,0,0,0,4.221-10.317C597.545,313.95,600.843,297.464,600.3,295.227Z" transform="translate(-370.46 -240.601)" fill="#cef2fa"/>
      <path id="Path_5852" data-name="Path 5852" d="M520.962,364.078c-4.344-1.676-27.383-8.873-33.892-7.733,0,0,10.4,11.251,7.425,20.421,0,0,25.341,7.338,27.629,5.579s8.591-11.508,8.605-11.534l1.205-1.636Z" transform="translate(-310.732 -281.045)" fill="#7f71a4"/>
      <path id="Path_5853" data-name="Path 5853" d="M556.414,340.036c-4.706-1.408-9.51-3.15-9.51-3.15a3.522,3.522,0,0,1,.7-3.03c1.162-1.376,1.81-2.085,1.3-2.143s-2.2,1.644-2.2,1.644a9.168,9.168,0,0,1,1.9-2.74c.988-.76.109-1.448-1.716,1.086s-1.658,1.52-1.6.974,2.111-2.994,1.937-3.982c-.167-.916-2.773,3.32-3.258,4.706,1.086-6.516-.463-5.043-1.169,1.26-.206,1.81,1.448,4.3,1.5,4.362.119.228,6.686,3.779,12.059,6.429A38.65,38.65,0,0,0,556.414,340.036Z" transform="translate(-346.275 -263.4)" fill="#fc7575"/>
      <path id="Path_5854" data-name="Path 5854" d="M517.216,303.808c-8.884-1-9.872-8.095-9.879-8.167a.275.275,0,0,1,.25-.3.293.293,0,0,1,.319.243c.033.275.948,6.737,9.373,7.682a.275.275,0,1,1-.062.547Z" transform="translate(-323.661 -242.2)" fill="#005569"/>
      <path id="Path_5855" data-name="Path 5855" d="M626.476,262.139s3.222-.554,3.5,1.155a6.19,6.19,0,0,1-2.107,5.166c-.988.648-4.395,2.748-5.34.724S622.657,261.82,626.476,262.139Z" transform="translate(-396.948 -220.966)" fill="#060617"/>
      <path id="Path_5856" data-name="Path 5856" d="M637.136,264.1c.67,1.687.63,3.483-1.086,4.706l.362.518C638.117,267.818,638.106,265.914,637.136,264.1Z" transform="translate(-405.779 -222.272)" fill="#7e7e7e"/>
      <path id="Path_5857" data-name="Path 5857" d="M610.192,265.946s-.2,2.9-.17,5.227a8.4,8.4,0,0,1-.807,3.074c-.315.952-3.874,5.43-2.831,5.763.637.2,5.1-2.867,5.85-3.2,1.2-.543,2.382-1.539,3.454-2.1l-1.68-11.91Z" transform="translate(-386.731 -221.442)" fill="#a0616a"/>
      <path id="Path_5858" data-name="Path 5858" d="M620.781,262.556l-3.816,3.146s-.116,1.672-.156,3.5a8.018,8.018,0,0,0,4.2-5.046C620.578,261.72,620.781,262.556,620.781,262.556Z" transform="translate(-393.505 -221.199)" fill="#915961"/>
      <path id="Path_5859" data-name="Path 5859" d="M606.984,233.66a4.681,4.681,0,0,0-2.411,2.035c-.876,1.546-.413,3.783-.923,5.162s.514,8.326,3.642,8.5c3.913.224,5.477-5.5,5.89-6.618s.224-5.575-1.419-7.171S606.984,233.66,606.984,233.66Z" transform="translate(-385.029 -202.851)" fill="#a0616a"/>
      <path id="Path_5860" data-name="Path 5860" d="M609.587,255.34a23.874,23.874,0,0,1-.547,2.925,1.871,1.871,0,0,0,1.086.228,1.741,1.741,0,0,1-1.256-.148A24.479,24.479,0,0,1,609.587,255.34Z" transform="translate(-388.439 -216.683)"/>
      <path id="Path_5861" data-name="Path 5861" d="M616.77,250.839a3.718,3.718,0,0,1,1.676-.2c.84.127,1.705,1.329,1.705,1.329a4.842,4.842,0,0,0-1.6-1.086,3.4,3.4,0,0,0-1.191.138Z" transform="translate(-393.479 -213.67)"/>
      <path id="Path_5862" data-name="Path 5862" d="M606.192,248.035a2.99,2.99,0,0,0-1.122-.948c-.659-.279-1.81.362-1.81.362s1.187-.4,1.622-.2a2.65,2.65,0,0,1,.8.673Z" transform="translate(-384.86 -211.372)"/>
      <path id="Path_5863" data-name="Path 5863" d="M611.565,267.09a4.809,4.809,0,0,1-2.715.811A2.34,2.34,0,0,0,611.565,267.09Z" transform="translate(-388.426 -224.179)" fill="#fff"/>
      <path id="Path_5864" data-name="Path 5864" d="M617.3,254.04a.51.51,0,0,0,.547.456.5.5,0,0,0,.405-.583.481.481,0,1,0-.952.127Z" transform="translate(-393.812 -215.484)"/>
      <path id="Path_5865" data-name="Path 5865" d="M617.9,254.207c-1.716-1.81-2.458-.536-3.048-.46.478.04,1.043-.442,1.564-.3A7.768,7.768,0,0,1,617.9,254.207Z" transform="translate(-392.254 -215.344)"/>
      <path id="Path_5866" data-name="Path 5866" d="M606.444,253.079c.047.286.25.485.453.445a.481.481,0,0,0,.286-.586c-.047-.282-.25-.481-.456-.445A.481.481,0,0,0,606.444,253.079Z" transform="translate(-386.878 -214.864)"/>
      <path id="Path_5867" data-name="Path 5867" d="M606.129,253.167c-1.426-1.633-2.06-.322-2.559-.2.4,0,.88-.525,1.318-.424A5.463,5.463,0,0,1,606.129,253.167Z" transform="translate(-385.058 -214.778)"/>
      <path id="Path_5868" data-name="Path 5868" d="M617.548,259.885a1.117,1.117,0,0,0,1.448.5c.655-.2,1.061-.724.916-1.213s-.793-.7-1.448-.5S617.4,259.414,617.548,259.885Z" transform="translate(-393.957 -218.762)" fill="#915961"/>
      <path id="Path_5869" data-name="Path 5869" d="M616.1,232.991c-2.06-2.172-3.66-1.89-3.8-1.944a.51.51,0,0,1,.112-.17,3.89,3.89,0,0,1,4.145-1.332c2.6.471,4.069.847,5.535,2.9a5.5,5.5,0,0,1,.554,3.62c-.326,1.933-1.213,2.19-1.086,4.178.134,1.9-4.134,3.1-4.134,3.1.083-.232.514-2.074.724-2.534a3.689,3.689,0,0,0,.087-2.932,1.5,1.5,0,0,1-1.039-.463C616.271,236.459,617.212,235.6,616.1,232.991Z" transform="translate(-390.627 -200.151)"/>
      <path id="Path_5870" data-name="Path 5870" d="M602.283,230.586a5.557,5.557,0,0,0-3.743.2c-1.868.844-2.929,5.394-2.248,6.516s-3.512,1.618-1.415,2.172C597.852,240.27,604.049,231.4,602.283,230.586Z" transform="translate(-379.133 -200.74)"/>
      <path id="Path_5871" data-name="Path 5871" d="M605.95,232.214c-2.849-.63-5.068,1.256-4.768,3.7a1.361,1.361,0,0,0,.561,1.061l.271-.521c-.152-.047-.275-.463-.3-.615C601.251,233.677,603.2,231.816,605.95,232.214Z" transform="translate(-383.517 -201.851)" fill="#333348"/>
      <path id="Path_5872" data-name="Path 5872" d="M626.971,253.524s.594-1.987,1.253-.872-.456,3.15-1.086,2.867S626.971,253.524,626.971,253.524Z" transform="translate(-399.882 -214.751)" fill="#a0616a"/>
      <path id="Path_5873" data-name="Path 5873" d="M627.525,254.9s.445-1.144.724-.872-.2,2.4-.539,2.06S627.525,254.9,627.525,254.9Z" transform="translate(-400.317 -215.818)" fill="#915961"/>
      <path id="Path_5874" data-name="Path 5874" d="M596.328,295.337s-4,1.376-6.256,8.276-2.534,15.744-5.018,16.562c-1.144.362-5.568-1.915-9.354-3.045,1.111,2.331.344,5.347.308,7.139,1.984.977,4.138,1.506,5.43,2.027,4.768,1.948,6.248,1.448,9.141-1.752S603.061,295.095,596.328,295.337Z" transform="translate(-367.277 -242.199)" fill="#70c3f8"/>
      <path id="Path_5875" data-name="Path 5875" d="M529.718,361l32.331-.217a17.123,17.123,0,0,0,16.07-14.481l4.894-31.669a5.764,5.764,0,0,0-7.526-6.382,1.5,1.5,0,0,0-.847.547c-1.94,3.841-4.949,17.355-9.535,21.294-5.43,4.67-19.987,2.237-30.167,1.35,0,0-5.615-.825-6.552,4.036C527.593,339.591,529.53,356.215,529.718,361Z" transform="translate(-336.97 -250.23)" fill="#0a6980"/>
      <path id="Path_5876" data-name="Path 5876" d="M570.5,310.87c-2.1,4.185-6.433,15.838-9.286,17.988l-.4.362c-4.123,3.457-18.271,1.622-23.81,1.086l-4.192-.362c-3.171-.261-6.306.152-8.178,2.737-1.488,1.955-1.39,4.3-1.321,6.578.46,7.642,1.893,14.919,3.258,22.3.565-6.7-.228-21.359.463-24.838a2.743,2.743,0,0,1,2.071-2.462c3.312-.977,25.24,4.587,33.45-1.716,6.473-5.47,8.008-22.21,9.213-23.357a2.386,2.386,0,0,1,.572-.38C571.406,309.031,571.41,309.147,570.5,310.87Z" transform="translate(-333.834 -250.796)" fill="#32d3f9"/>
      <path id="Path_5877" data-name="Path 5877" d="M578.169,308.033c3.414-1.046,7.885,1.669,6.817,6.878-2.863,14.995-3.8,21.12-5.369,30.681A16.129,16.129,0,0,1,563.5,359.461c-6.187.109-20.07.547-31.1,1.321,10.5.594,21.4.8,31.948.909,5.579.167,12.261-3.222,15.679-9.412,2.237-4.105,2.082-7.6,2.961-12.464.778-5.669,1.571-10.7,3.233-24.707C586.919,309.318,581.956,306.393,578.169,308.033Z" transform="translate(-339.652 -250.012)" fill="#00677f"/>
      <path id="Path_5878" data-name="Path 5878" d="M266.214,442.912h-6.726a.815.815,0,0,0-.858-.764h-5.119a1.64,1.64,0,0,0-1.72-1.531h-1.81c.909-6.712,1.332-11.2,1.647-14.976.253-3.218,1.9-8.243-1.021-15.773.938-.138,3.486.514,3.486-1.133a1.032,1.032,0,0,0-.2-.6h3.533a1.423,1.423,0,0,0,1.383-2.114h38.41c-.539-.481-3.678-6.853-11.965-6.853H213.009a12.755,12.755,0,0,0-11.729,6.853h38.4a1.424,1.424,0,0,0,1.383,2.114h3.537a1.01,1.01,0,0,0-.2.6c0,1.651,2.581,1,3.486,1.133a24.459,24.459,0,0,0-1.589,11.266c1.032,8.116.807,9.108,2.219,19.484H246.7a1.64,1.64,0,0,0-1.72,1.531h-5.108a.818.818,0,0,0-.858.764H232.29a1.086,1.086,0,0,0-1.115.945h36.154A1.086,1.086,0,0,0,266.214,442.912Z" transform="translate(-128.402 -308.444)" fill="#1c0f00"/>
      <path id="Path_5879" data-name="Path 5879" d="M201.28,414.813h95.934c-.17-.152-.6-.9-1.379-1.843h-93.4a11.6,11.6,0,0,0-1.155,1.843Z" transform="translate(-128.402 -317.249)" fill="#887ea8"/>
      <path id="Path_5880" data-name="Path 5880" d="M289.913,314.821c-2.317.123-3.562-.362-4.8.659a2.117,2.117,0,0,0-.757.909c-.141.63-2.6,26.163-2.6,26.163s.138.724.97.38S289.913,314.821,289.913,314.821Z" transform="translate(-179.741 -254.624)" fill="#30273f"/>
      <path id="Path_5881" data-name="Path 5881" d="M284.105,343.167l17.073,2.125a1.484,1.484,0,0,0,1.68-1.01l.786-3.526,1.332-5.97.442-1.991,1.325-5.955.547-2.465,1.307-5.955.471-2.042a1.338,1.338,0,0,0-1.466-1.488H289.821a3.414,3.414,0,0,0-3.544,2.654L282.842,341.8A1.316,1.316,0,0,0,284.105,343.167Z" transform="translate(-180.431 -254.675)" fill="#40375b"/>
      <path id="Path_5882" data-name="Path 5882" d="M328.45,314.84l6.064,17.923,1.325-5.955-4.055-11.968Z" transform="translate(-209.535 -254.643)" fill="#fff" opacity="0.31"/>
      <path id="Path_5883" data-name="Path 5883" d="M316.12,314.84l8.761,25.877,1.325-5.962-6.737-19.914Z" transform="translate(-201.669 -254.643)" fill="#fff" opacity="0.31"/>
      <path id="Path_5884" data-name="Path 5884" d="M341.49,314.84l3.215,9.5,1.325-5.955-1.206-3.548Z" transform="translate(-217.854 -254.643)" fill="#fff" opacity="0.31"/>
      <path id="Path_5885" data-name="Path 5885" d="M237.08,393.452h36.958V390.14l-33.551-.08a3.388,3.388,0,0,0-3.392,3.392Z" transform="translate(-151.242 -302.632)" fill="#302944"/>
      <path id="Path_5886" data-name="Path 5886" d="M318.731,342.3c0,.673-2.172,1.216-4.862,1.216S309,342.976,309,342.3s2.172-1.213,4.862-1.213S318.731,341.633,318.731,342.3Z" transform="translate(-197.126 -271.39)" fill="#d1c7e5"/>
      <path id="Path_5887" data-name="Path 5887" d="M374.105,354.332a.872.872,0,0,0-.872-.822h-5.64a.869.869,0,0,0-.872.822v.152h7.4Z" transform="translate(-233.951 -279.314)" fill="#eac733"/>
      <path id="Path_5888" data-name="Path 5888" d="M365.076,356.2l-.916,15.541h9.235l-.916-15.541Z" transform="translate(-232.317 -281.03)" fill="#00c9f7"/>
      <path id="Path_5889" data-name="Path 5889" d="M376.576,345.968a.275.275,0,0,0-.268-.308h-.34a.275.275,0,0,0-.272.308h.876Z" transform="translate(-239.676 -274.306)" fill="#eac733"/>
      <path id="Path_5890" data-name="Path 5890" d="M386.644,365.969l-.623-.384c2.143-3.486,4.8-8.866,4-9.9-1.064-1.379-3.9.63-3.924.652l-.431-.59c.141-.1,3.425-2.469,4.934-.5C391.994,357.049,387.549,364.5,386.644,365.969Z" transform="translate(-246.04 -279.921)" fill="#00c9f7"/>
      <path id="Path_5891" data-name="Path 5891" d="M375.71,346.55l.2,1.647h.467l.206-1.647Z" transform="translate(-239.686 -274.874)" fill="#dad2e0"/>
      <path id="Path_5892" data-name="Path 5892" d="M372.148,348.69c-1.477,0-2.675.778-2.708,1.745h5.43C374.82,349.468,373.625,348.69,372.148,348.69Z" transform="translate(-235.686 -276.239)" fill="#0089a9"/>
      <path id="Path_5893" data-name="Path 5893" d="M361.157,361.224l-.239,4.051-2.628-5.9h1.39Z" transform="translate(-228.572 -283.053)" fill="#66a1ad"/>
      <path id="Path_5894" data-name="Path 5894" d="M424.7,387.047c.217-.072.445-.138.677-.206,1.43-.413,3.052-.883,3.189-2.795a1.408,1.408,0,0,0-.246-1.006,2.1,2.1,0,0,0-2.259-.387l.2.514a1.609,1.609,0,0,1,1.625.214.891.891,0,0,1,.13.612c-.109,1.528-1.412,1.908-2.795,2.306-.235.069-.467.138-.691.21Z" transform="translate(-270.833 -297.806)" fill="#00c9f7"/>
      <path id="Path_5895" data-name="Path 5895" d="M410.31,396.31h0c0,.362-.652.724-1.745,1H395.135c-1.086-.279-1.745-.623-1.745-1Z" transform="translate(-250.966 -306.62)" fill="#0089a9"/>
      <path id="Path_5896" data-name="Path 5896" d="M407.975,381h7.512c.025.112.047.228.065.344H407.91C407.943,381.232,407.943,381.116,407.975,381Z" transform="translate(-260.229 -296.852)" fill="#eac733"/>
      <path id="Path_5897" data-name="Path 5897" d="M415.351,382a7.578,7.578,0,0,1,.112,1.3,6.842,6.842,0,0,1-1.151,3.921h-5.557a6.842,6.842,0,0,1-1.148-3.921,7.6,7.6,0,0,1,.109-1.3Z" transform="translate(-260.036 -297.49)" fill="#00c9f7"/>
      <path id="Path_5898" data-name="Path 5898" d="M414.009,380.662c.239-.253.637-.054.8.047h-.322a.362.362,0,0,0-.362.047,7.081,7.081,0,0,0-.362,2.172.069.069,0,0,1-.069.062h0a.065.065,0,0,1-.065-.072A6.889,6.889,0,0,1,414.009,380.662Z" transform="translate(-263.878 -296.558)" fill="#c16400"/>
      <path id="Path_5899" data-name="Path 5899" d="M411.23,389.229h1.861v-1.586a.55.55,0,0,1-.55-.554h-.76a.55.55,0,0,1-.55.554Z" transform="translate(-262.347 -300.738)" fill="#26151a"/>
      <rect id="Rectangle_1024" data-name="Rectangle 1024" width="1.122" height="1.122" transform="translate(150.352 88.181) rotate(180)" fill="#c16400"/>
    </g>
  </g>
</svg>
