<svg id="google-play" xmlns="http://www.w3.org/2000/svg" width="222" height="80" viewBox="0 0 222 80">
  <rect id="Rectangle_135" data-name="Rectangle 135" width="222" height="80" rx="10" fill="#fff"/>
  <g id="playstore" transform="translate(24.037 20.893)">
    <g id="Group_66" data-name="Group 66" transform="translate(0 0.001)">
      <path id="Path_1360" data-name="Path 1360" d="M68.812,13.479C65.1,10.928,59.152,6.832,49.919.473A1.878,1.878,0,0,0,47.962.159L63.8,19.642Z" transform="translate(-46.44 -0.012)" fill="#32bbff"/>
      <path id="Path_1361" data-name="Path 1361" d="M25.071,1.93a2.076,2.076,0,0,0-.337.177,2.873,2.873,0,0,0-1.185,2.436v33.74a2.872,2.872,0,0,0,1.185,2.436,2.1,2.1,0,0,0,.336.177l15.84-19.483Z" transform="translate(-23.549 -1.783)" fill="#32bbff"/>
      <path id="Path_1362" data-name="Path 1362" d="M63.8,255.98l-15.84,19.483a1.859,1.859,0,0,0,1.958-.315c8.953-6.166,14.838-10.215,18.59-12.787l.308-.213Z" transform="translate(-46.434 -236.35)" fill="#32bbff"/>
    </g>
    <path id="Path_1363" data-name="Path 1363" d="M23.549,255.98v16.87a2.872,2.872,0,0,0,1.185,2.436,2.1,2.1,0,0,0,.336.178l15.84-19.483Z" transform="translate(-23.549 -236.349)" fill="#2c9fd9"/>
    <path id="Path_1364" data-name="Path 1364" d="M44.855.462A1.884,1.884,0,0,0,42.561.325L58.5,19.926l5.251-6.458C60.039,10.917,54.087,6.82,44.855.462Z" transform="translate(-41.376 0)" fill="#29cc5e"/>
    <path id="Path_1365" data-name="Path 1365" d="M58.5,252.126l-15.936,19.6a1.872,1.872,0,0,0,2.294-.137c8.953-6.166,14.838-10.215,18.59-12.787l.308-.213Z" transform="translate(-41.376 -232.791)" fill="#d93f21"/>
    <path id="Path_1366" data-name="Path 1366" d="M306.408,179.231a2.893,2.893,0,0,0-1.144-2.4s-1.421-.976-5.779-3.973l-5.183,6.374,5.188,6.381c4.309-2.976,5.774-3.979,5.774-3.979A2.893,2.893,0,0,0,306.408,179.231Z" transform="translate(-277.422 -159.601)" fill="#ffd500"/>
    <path id="Path_1367" data-name="Path 1367" d="M305.264,258.381a2.893,2.893,0,0,0,1.144-2.4H294.3l5.188,6.381C303.8,259.385,305.264,258.381,305.264,258.381Z" transform="translate(-277.422 -236.349)" fill="#fa0"/>
  </g>
  <text id="Get_it_on" data-name="Get it on" transform="translate(61 30.714)" fill="#6D0C17" font-size="15" font-family="SegoeUI, Segoe UI" letter-spacing="0.005em"><tspan x="0" y="0">Get it on</tspan></text>
  <text id="Google_Play" data-name="Google Play" transform="translate(61 54.429)" fill="#6D0C17" font-size="25" font-family="SegoeUI, Segoe UI" letter-spacing="0.005em"><tspan x="0" y="0">Google Play</tspan></text>
</svg>
