<svg xmlns="http://www.w3.org/2000/svg" width="1222.882" height="604.45" viewBox="0 0 1222.882 604.45">
  <g id="Layer_2" data-name="Layer 2" transform="translate(0.032 -154.599)">
    <g id="_Layer_" data-name="&lt;Layer&gt;" transform="translate(-0.032)">
      <path id="Path_5700" data-name="Path 5700" d="M923.821,267.634c1.531-145.266-290.058-174.5-366.007-29.572S83.421,277.2,54.282,534.4s373.877,269.793,932.97,100.223S922.289,412.9,923.821,267.634Z" transform="translate(2.891 11.684)" fill="#f0e2f7"/>
      <path id="Path_5701" data-name="Path 5701" d="M794.219,519.491c0,6.044-175.053,10.932-390.99,10.932S12.25,525.535,12.25,519.491,187.293,508.57,403.229,508.57,794.219,513.458,794.219,519.491Z" transform="translate(0.888 31.129)" fill="#948db4"/>
      <path id="Path_5702" data-name="Path 5702" d="M747.74,431.3c1.883,1.958,5.284,3.209,9.146,3.07s7.167-1.626,8.9-3.723c-1.883-1.957-5.284-3.209-9.146-3.059S749.473,429.217,747.74,431.3Z" transform="translate(52.138 25.486)" fill="#9e84e2"/>
      <path id="Path_5703" data-name="Path 5703" d="M710.733,519.723a328.189,328.189,0,0,0,3.455-52.992c-.075-8.857-.556-17.693-1.262-26.507s-1.744-17.607-2.974-26.357a486.9,486.9,0,0,0-10.44-51.922q-3.316-12.836-7.306-25.458c-2.685-8.408-5.541-16.762-8.846-24.966l-1.07.428c3.209,8.183,5.926,16.559,8.493,24.966s4.867,16.912,6.964,25.458a485.537,485.537,0,0,1,9.755,51.837c1.07,8.718,2.064,17.457,2.632,26.218s.952,17.543.92,26.314a324.978,324.978,0,0,1-4.065,52.414Z" transform="translate(47.578 17.399)" fill="#9e84e2"/>
      <path id="Path_5704" data-name="Path 5704" d="M678.819,278.63c5,3.017,8.985,9.4,10.087,17.211s-.941,15.05-4.91,19.34c-5-3.017-8.985-9.4-10.087-17.211S674.851,282.909,678.819,278.63Z" transform="translate(46.973 15.107)" fill="#9e84e2"/>
      <path id="Path_5705" data-name="Path 5705" d="M707.292,303.792c.61,4.525-1.326,10.076-5.541,14.569s-9.627,6.792-14.184,6.482c-.61-4.525,1.326-10.076,5.541-14.569S702.767,303.482,707.292,303.792Z" transform="translate(47.938 16.858)" fill="#9e84e2"/>
      <path id="Path_5706" data-name="Path 5706" d="M688.587,324.219c-3.829,2.471-9.627,3.081-15.542,1.187s-10.237-5.819-11.895-10.076c3.829-2.482,9.681-3.091,15.542-1.187S686.94,319.962,688.587,324.219Z" transform="translate(46.105 17.503)" fill="#9e84e2"/>
      <path id="Path_5707" data-name="Path 5707" d="M693.937,342.1c-3.829,2.482-9.627,3.091-15.542,1.187S668.1,337.424,666.5,333.22c3.819-2.482,9.627-3.091,15.532-1.2S692.279,337.852,693.937,342.1Z" transform="translate(46.477 18.75)" fill="#9e84e2"/>
      <path id="Path_5708" data-name="Path 5708" d="M699.527,360.659c-3.83,2.482-9.627,3.091-15.543,1.187s-10.237-5.819-11.895-10.066c3.829-2.482,9.627-3.091,15.542-1.187S697.88,356.455,699.527,360.659Z" transform="translate(46.867 20.043)" fill="#9e84e2"/>
      <path id="Path_5709" data-name="Path 5709" d="M703.287,377.949c-3.829,2.482-9.627,3.081-15.542,1.187S677.5,373.317,675.85,369.06c3.829-2.471,9.627-3.081,15.542-1.187S701.683,373.691,703.287,377.949Z" transform="translate(47.129 21.248)" fill="#9e84e2"/>
      <path id="Path_5710" data-name="Path 5710" d="M699.94,374.449c3.83,2.482,9.627,3.091,15.543,1.187s10.237-5.819,11.895-10.076c-3.829-2.471-9.681-3.081-15.542-1.187S701.587,370.191,699.94,374.449Z" transform="translate(48.808 21.004)" fill="#9e84e2"/>
      <path id="Path_5711" data-name="Path 5711" d="M712.291,320.242c.61,4.525-1.326,10.076-5.541,14.569s-9.627,6.792-14.173,6.472c-.61-4.514,1.326-10.066,5.541-14.569S707.788,319.921,712.291,320.242Z" transform="translate(48.287 18.004)" fill="#9e84e2"/>
      <path id="Path_5712" data-name="Path 5712" d="M718.092,338.932c.61,4.514-1.326,10.066-5.541,14.569s-9.627,6.792-14.184,6.472c-.61-4.525,1.337-10.076,5.552-14.569S713.546,338.611,718.092,338.932Z" transform="translate(48.69 19.307)" fill="#9e84e2"/>
      <path id="Path_5713" data-name="Path 5713" d="M603.356,354.81a185.987,185.987,0,0,1,21.832,14.473,245.325,245.325,0,0,1,19.971,16.976A259.186,259.186,0,0,1,663.344,405.2a255.8,255.8,0,0,1,16.045,20.784,245.938,245.938,0,0,1,25.041,46.125,255.09,255.09,0,0,1,14.484,50.542l-3.712.62a250.842,250.842,0,0,0-13.521-50.061,242.022,242.022,0,0,0-24.068-46,251.17,251.17,0,0,0-52.992-57.228,183.91,183.91,0,0,0-21.511-14.74Z" transform="translate(42.06 20.415)" fill="#9e84e2"/>
      <path id="Path_5714" data-name="Path 5714" d="M576.89,336.39c.407,5.83,4.279,12.28,10.7,16.815s13.831,6.012,19.458,4.428c-.417-5.819-4.279-12.28-10.7-16.815S582.516,334.807,576.89,336.39Z" transform="translate(40.233 19.089)" fill="#9e84e2"/>
      <path id="Path_5715" data-name="Path 5715" d="M617.937,331.74c-4.279,3.936-6.964,10.986-6.5,18.859s3.883,14.569,8.622,17.992c4.279-3.936,6.953-10.986,6.5-18.858S622.665,335.163,617.937,331.74Z" transform="translate(42.637 18.807)" fill="#9e84e2"/>
      <path id="Path_5716" data-name="Path 5716" d="M642.259,343.77c-5.2,2.653-9.627,8.739-11.285,16.452s-.128,15.082,3.519,19.639c5.2-2.653,9.627-8.739,11.285-16.452S645.917,348.295,642.259,343.77Z" transform="translate(43.955 19.646)" fill="#9e84e2"/>
      <path id="Path_5717" data-name="Path 5717" d="M658.44,358.65c-5.209,2.653-9.627,8.739-11.3,16.452s-.128,15.083,3.519,19.639c5.2-2.653,9.627-8.739,11.3-16.452S662.087,363.207,658.44,358.65Z" transform="translate(45.082 20.683)" fill="#9e84e2"/>
      <path id="Path_5718" data-name="Path 5718" d="M677.468,374c-5.712,1.23-11.553,5.979-15.125,13.007s-3.99,14.548-1.626,19.885c5.7-1.23,11.542-5.979,15.125-13.007S679.821,379.284,677.468,374Z" transform="translate(45.971 21.752)" fill="#9e84e2"/>
      <path id="Path_5719" data-name="Path 5719" d="M690.831,393.091c-5.209-.214-11.328,2.578-16.045,7.841s-6.728,11.681-5.883,16.826c5.209.225,11.328-2.567,16.045-7.841S691.665,398.236,690.831,393.091Z" transform="translate(46.632 23.082)" fill="#9e84e2"/>
      <path id="Path_5720" data-name="Path 5720" d="M700.341,405.131c-5.209-.214-11.328,2.567-16.045,7.841s-6.718,11.681-5.883,16.826c5.209.214,11.328-2.578,16.045-7.841S701.185,410.276,700.341,405.131Z" transform="translate(47.295 23.921)" fill="#9e84e2"/>
      <path id="Path_5721" data-name="Path 5721" d="M705.572,422.891c-4.471-.193-9.713,2.2-13.724,6.718s-5.755,10-5.038,14.419c4.461.192,9.7-2.2,13.713-6.718S706.278,427.287,705.572,422.891Z" transform="translate(47.882 25.158)" fill="#9e84e2"/>
      <path id="Path_5722" data-name="Path 5722" d="M711.055,441.5c-3.209-1.829-8.087-2.054-12.836-.225s-8.172,5.231-9.349,8.771c3.209,1.84,8.076,2.054,12.836.225S709.878,445.038,711.055,441.5Z" transform="translate(48.036 26.352)" fill="#9e84e2"/>
      <path id="Path_5723" data-name="Path 5723" d="M712.975,456.9c-2-2.236-5.616-3.626-9.627-3.455s-7.541,1.883-9.338,4.279c2,2.225,5.616,3.626,9.627,3.455S711.178,459.281,712.975,456.9Z" transform="translate(48.394 27.287)" fill="#9e84e2"/>
      <path id="Path_5724" data-name="Path 5724" d="M586.92,377.864c4.963,3.07,12.462,3.7,19.917,1.123s12.965-7.712,14.976-13.189c-4.963-3.081-12.462-3.712-19.917-1.134S588.92,372.377,586.92,377.864Z" transform="translate(40.932 20.99)" fill="#9e84e2"/>
      <path id="Path_5725" data-name="Path 5725" d="M601.64,389.964c4.963,3.081,12.462,3.712,19.917,1.134s12.965-7.712,14.976-13.2c-4.974-3.07-12.473-3.7-19.928-1.123S603.64,384.5,601.64,389.964Z" transform="translate(41.958 21.834)" fill="#9e84e2"/>
      <path id="Path_5726" data-name="Path 5726" d="M617.33,404.967c5,3.017,12.483,3.648,19.971,1.07s12.954-7.7,14.976-13.189c-4.963-3.07-12.462-3.7-19.917-1.123S619.341,399.426,617.33,404.967Z" transform="translate(43.051 22.875)" fill="#9e84e2"/>
      <path id="Path_5727" data-name="Path 5727" d="M635,414.672c4.044,2.492,10.141,3.006,16.206.909s10.547-6.268,12.173-10.7c-4.033-2.492-10.141-3.006-16.2-.909S636.679,410.211,635,414.672Z" transform="translate(44.282 23.75)" fill="#9e84e2"/>
      <path id="Path_5728" data-name="Path 5728" d="M648.31,424.024c3.295,2.139,8.258,2.621,13.146.931s8.493-5.145,9.777-8.857c-3.305-2.139-8.258-2.631-13.157-.931S649.583,420.3,648.31,424.024Z" transform="translate(45.21 24.549)" fill="#9e84e2"/>
      <path id="Path_5729" data-name="Path 5729" d="M656.23,436.223c3.305,2.139,8.258,2.631,13.157.931s8.493-5.145,9.766-8.857c-3.295-2.139-8.258-2.621-13.157-.931S657.514,432.512,656.23,436.223Z" transform="translate(45.762 25.4)" fill="#9e84e2"/>
      <path id="Path_5730" data-name="Path 5730" d="M664.92,447.053c2.674,2.278,7.156,3.369,11.959,2.6s8.718-3.209,10.536-6.247c-2.674-2.278-7.156-3.38-11.959-2.6S666.738,444.047,664.92,447.053Z" transform="translate(46.367 26.39)" fill="#9e84e2"/>
      <path id="Path_5731" data-name="Path 5731" d="M673.31,461.3c3.016.856,7.017.075,10.558-2.343s5.723-5.862,6.022-8.985c-3.006-.856-7.017-.086-10.558,2.332S673.609,458.176,673.31,461.3Z" transform="translate(46.952 27.023)" fill="#9e84e2"/>
      <path id="Path_5732" data-name="Path 5732" d="M682.66,469.548a11.114,11.114,0,0,0,10.857-10.868,11.135,11.135,0,0,0-10.857,10.868Z" transform="translate(47.603 27.653)" fill="#9e84e2"/>
      <path id="Path_5733" data-name="Path 5733" d="M688.862,471.434a6.236,6.236,0,1,0,1.808-4.835,5.8,5.8,0,0,0-1.808,4.835Z" transform="translate(48.034 28.077)" fill="#9e84e2"/>
      <path id="Path_5734" data-name="Path 5734" d="M690.862,475.554a6.226,6.226,0,1,0,1.808-4.835,5.787,5.787,0,0,0-1.808,4.835Z" transform="translate(48.173 28.365)" fill="#9e84e2"/>
      <path id="Path_5735" data-name="Path 5735" d="M766.285,341.05A169.887,169.887,0,0,0,751.427,360.3a225.534,225.534,0,0,0-12.483,20.848,241.373,241.373,0,0,0-10.28,22.057,238.562,238.562,0,0,0-7.894,23.03,227.846,227.846,0,0,0-8.237,47.986,236.468,236.468,0,0,0,2.343,48.713l3.444-.567a233.4,233.4,0,0,1-3.049-48.007,225.052,225.052,0,0,1,7.424-47.6,234.63,234.63,0,0,1,7.488-22.966q4.386-11.264,9.873-22.067a224.138,224.138,0,0,1,12.109-20.955,169.616,169.616,0,0,1,14.494-19.361Z" transform="translate(49.66 19.456)" fill="#c5b5ee"/>
      <path id="Path_5736" data-name="Path 5736" d="M781.827,317c1.38,5.231-.1,12.055-4.407,17.971s-10.365,9.4-15.778,9.691c-1.369-5.241.107-12.066,4.418-17.981S776.425,317.225,781.827,317Z" transform="translate(53.073 17.78)" fill="#c5b5ee"/>
      <path id="Path_5737" data-name="Path 5737" d="M743.638,325c4.963,2.139,9.392,7.573,11.339,14.633s.931,13.959-2.2,18.377c-4.963-2.139-9.392-7.584-11.339-14.633S740.5,329.418,743.638,325Z" transform="translate(51.63 18.338)" fill="#c5b5ee"/>
      <path id="Path_5738" data-name="Path 5738" d="M726.062,342.72c5.348.781,11.071,4.8,14.826,11.082s4.61,13.211,2.76,18.3c-5.349-.781-11.061-4.8-14.815-11.082S724.179,347.812,726.062,342.72Z" transform="translate(50.561 19.573)" fill="#c5b5ee"/>
      <path id="Path_5739" data-name="Path 5739" d="M716.251,360.61c5.348.781,11.071,4.8,14.826,11.082s4.61,13.211,2.76,18.3c-5.348-.781-11.061-4.8-14.815-11.082S714.411,365.7,716.251,360.61Z" transform="translate(49.879 20.819)" fill="#c5b5ee"/>
      <path id="Path_5740" data-name="Path 5740" d="M704.4,379.606c5.348-.62,11.927,1.808,17.115,6.921s7.841,11.585,7.359,16.976c-5.348.62-11.927-1.808-17.168-6.921S703.975,385,704.4,379.606Z" transform="translate(49.115 22.136)" fill="#c5b5ee"/>
      <path id="Path_5741" data-name="Path 5741" d="M698.59,400.381c4.514-1.744,10.7-1.07,16.4,2.139s9.381,8.247,10.173,13.018c-4.5,1.754-10.7,1.07-16.387-2.139S699.392,405.152,698.59,400.381Z" transform="translate(48.713 23.525)" fill="#c5b5ee"/>
      <path id="Path_5742" data-name="Path 5742" d="M693.82,413.8c4.514-1.754,10.7-1.123,16.4,2.139S719.6,424.2,720.4,428.97c-4.514,1.744-10.7,1.07-16.4-2.139S694.622,418.562,693.82,413.8Z" transform="translate(48.381 24.459)" fill="#c5b5ee"/>
      <path id="Path_5743" data-name="Path 5743" d="M694.34,431.053c3.872-1.5,9.189-.963,14.056,1.819s8.044,7.071,8.729,11.157c-3.872,1.5-9.189.963-14.056-1.808S695.046,435.086,694.34,431.053Z" transform="translate(48.417 25.671)" fill="#c5b5ee"/>
      <path id="Path_5744" data-name="Path 5744" d="M695.23,449.053c2.31-2.589,6.493-4.215,11.189-4.022s8.739,2.139,10.825,4.921c-2.31,2.578-6.482,4.215-11.189,4.022S697.316,451.813,695.23,449.053Z" transform="translate(48.479 26.701)" fill="#c5b5ee"/>
      <path id="Path_5745" data-name="Path 5745" d="M697.91,463.253c1.07-2.557,3.851-4.856,7.488-5.915s7.188-.6,9.477.963c-1.07,2.557-3.84,4.856-7.488,5.915A11.489,11.489,0,0,1,697.91,463.253Z" transform="translate(48.666 27.519)" fill="#c5b5ee"/>
      <path id="Path_5746" data-name="Path 5746" d="M786,356.014c-3.444,4.182-9.852,6.964-17.115,6.932s-13.681-2.91-17.115-7.135c3.444-4.172,9.852-6.964,17.115-6.921S782.6,351.789,786,356.014Z" transform="translate(52.419 20.003)" fill="#c5b5ee"/>
      <path id="Path_5747" data-name="Path 5747" d="M776.683,371.044c-3.444,4.182-9.841,6.974-17.168,6.932s-13.681-2.91-17.115-7.135c3.444-4.172,9.852-6.964,17.168-6.921S773.282,366.819,776.683,371.044Z" transform="translate(51.766 21.05)" fill="#c5b5ee"/>
      <path id="Path_5748" data-name="Path 5748" d="M767.35,388.844c-3.444,4.182-9.852,6.964-17.115,6.931s-13.681-2.909-17.115-7.135c3.444-4.172,9.841-6.964,17.115-6.921S763.948,384.619,767.35,388.844Z" transform="translate(51.12 22.29)" fill="#c5b5ee"/>
      <path id="Path_5749" data-name="Path 5749" d="M754.332,402.768c-2.8,3.4-8,5.669-13.906,5.626s-11.125-2.353-13.906-5.787c2.792-3.4,8-5.669,13.906-5.637S751.572,399.334,754.332,402.768Z" transform="translate(50.66 23.353)" fill="#c5b5ee"/>
      <path id="Path_5750" data-name="Path 5750" d="M745.165,415c-2.257,2.856-6.472,4.76-11.274,4.739s-9-1.99-11.221-4.867c2.257-2.867,6.471-4.771,11.274-4.739S742.94,412.13,745.165,415Z" transform="translate(50.391 24.27)" fill="#c5b5ee"/>
      <path id="Path_5751" data-name="Path 5751" d="M741.845,428.077c-2.268,2.856-6.418,4.771-11.274,4.739s-9-1.99-11.221-4.867c2.257-2.856,6.418-4.771,11.274-4.739S739.62,425.189,741.845,428.077Z" transform="translate(50.16 25.181)" fill="#c5b5ee"/>
      <path id="Path_5752" data-name="Path 5752" d="M737.358,440.219c-1.669,2.8-5.274,5.1-9.734,5.851s-8.622-.246-11.114-2.343c1.669-2.8,5.284-5.1,9.734-5.851S734.909,438.122,737.358,440.219Z" transform="translate(49.962 26.186)" fill="#c5b5ee"/>
      <path id="Path_5753" data-name="Path 5753" d="M733.989,455.2c-2.4,1.647-6.14,2.139-9.98,1.07s-6.771-3.455-7.958-6.108c2.385-1.647,6.14-2.139,9.969-1.07S732.79,452.552,733.989,455.2Z" transform="translate(49.93 26.946)" fill="#c5b5ee"/>
      <path id="Path_5754" data-name="Path 5754" d="M727.912,465.292a10.3,10.3,0,0,1-12.772-6.311,10.323,10.323,0,0,1,12.772,6.311Z" transform="translate(49.867 27.641)" fill="#c5b5ee"/>
      <path id="Path_5755" data-name="Path 5755" d="M722.787,468.891A5.776,5.776,0,0,1,715,465.03a5.744,5.744,0,0,1,7.809,3.851Z" transform="translate(49.857 28.063)" fill="#c5b5ee"/>
      <path id="Path_5756" data-name="Path 5756" d="M722.259,473.09a5.348,5.348,0,0,1-4.781-.139,5.423,5.423,0,0,1-3.027-3.712,5.776,5.776,0,0,1,7.809,3.851Z" transform="translate(49.819 28.358)" fill="#c5b5ee"/>
      <path id="Path_5757" data-name="Path 5757" d="M654.3,324.39a183.8,183.8,0,0,1,14.976,21.479,251.847,251.847,0,0,1,29.545,72.61,245.313,245.313,0,0,1,6.354,52.1,254.577,254.577,0,0,1-5.06,52.35l-3.669-.792a252.045,252.045,0,0,0,5.8-51.526,242.407,242.407,0,0,0-5.455-51.666,250.252,250.252,0,0,0-28.251-72.61,183.363,183.363,0,0,0-14.59-21.608Z" transform="translate(45.603 18.295)" fill="#7763aa"/>
      <path id="Path_5758" data-name="Path 5758" d="M636.5,297.51c-1.754,5.562-.513,13,3.819,19.586s10.7,10.7,16.473,11.253c1.754-5.562.524-12.986-3.819-19.586S642.308,298.1,636.5,297.51Z" transform="translate(44.333 16.422)" fill="#7763aa"/>
      <path id="Path_5759" data-name="Path 5759" d="M676.871,308.13c-5.455,2.075-10.5,7.659-12.975,15.157s-1.733,14.976,1.412,19.9c5.456-2.086,10.5-7.67,12.975-15.157S680.016,313.04,676.871,308.13Z" transform="translate(46.193 17.162)" fill="#7763aa"/>
      <path id="Path_5760" data-name="Path 5760" d="M695.192,328.12c-5.808.556-12.162,4.6-16.537,11.157s-5.659,13.981-3.936,19.564c5.808-.556,12.162-4.589,16.537-11.157S696.914,333.7,695.192,328.12Z" transform="translate(46.999 18.555)" fill="#7763aa"/>
      <path id="Path_5761" data-name="Path 5761" d="M704.772,347.9c-5.808.556-12.162,4.589-16.537,11.157s-5.659,13.981-3.936,19.564c5.808-.556,12.162-4.6,16.537-11.157S706.494,353.484,704.772,347.9Z" transform="translate(47.666 19.934)" fill="#7763aa"/>
      <path id="Path_5762" data-name="Path 5762" d="M716.9,369.014c-5.766-.952-12.933,1.326-18.848,6.557s-9.049,12.066-8.8,17.9c5.755.952,12.932-1.326,18.837-6.546S717.137,374.8,716.9,369.014Z" transform="translate(48.062 21.39)" fill="#7763aa"/>
      <path id="Path_5763" data-name="Path 5763" d="M722.186,391.667c-4.771-2.139-11.478-1.765-17.767,1.423s-10.536,8.386-11.649,13.489c4.771,2.139,11.478,1.765,17.767-1.423S721.074,396.77,722.186,391.667Z" transform="translate(48.308 22.89)" fill="#7763aa"/>
      <path id="Path_5764" data-name="Path 5764" d="M726.616,406.358c-4.771-2.139-11.478-1.765-17.767,1.423s-10.536,8.4-11.649,13.489c4.771,2.139,11.478,1.765,17.767-1.423S725.5,411.417,726.616,406.358Z" transform="translate(48.617 23.913)" fill="#7763aa"/>
      <path id="Path_5765" data-name="Path 5765" d="M724.872,424.865c-4.076-1.818-9.83-1.519-15.222,1.209s-9.028,7.2-9.98,11.563c4.086,1.819,9.83,1.519,15.222-1.219S723.93,429.229,724.872,424.865Z" transform="translate(48.789 25.217)" fill="#7763aa"/>
      <path id="Path_5766" data-name="Path 5766" d="M722.887,444.26c-2.343-2.9-6.76-4.878-11.831-4.91s-9.52,1.861-11.916,4.728c2.343,2.9,6.76,4.878,11.831,4.91S720.491,447.127,722.887,444.26Z" transform="translate(48.752 26.306)" fill="#7763aa"/>
      <path id="Path_5767" data-name="Path 5767" d="M718.892,459.416c-1.07-2.8-3.883-5.434-7.734-6.76s-7.7-1.07-10.258.546c1.07,2.8,3.894,5.434,7.734,6.76S716.346,460.978,718.892,459.416Z" transform="translate(48.874 27.174)" fill="#7763aa"/>
      <path id="Path_5768" data-name="Path 5768" d="M630.9,339.343c3.487,4.685,10.237,8.023,18.11,8.365s14.89-2.418,18.773-6.782c-3.487-4.674-10.237-8.023-18.12-8.354S634.772,334.979,630.9,339.343Z" transform="translate(43.997 18.864)" fill="#7763aa"/>
      <path id="Path_5769" data-name="Path 5769" d="M640.14,356.024c3.487,4.674,10.237,8.023,18.121,8.354s14.89-2.407,18.762-6.771c-3.487-4.685-10.226-8.023-18.11-8.365S644.023,351.659,640.14,356.024Z" transform="translate(44.641 20.025)" fill="#7763aa"/>
      <path id="Path_5770" data-name="Path 5770" d="M649.26,375.673c3.487,4.685,10.237,8.023,18.11,8.365s14.89-2.418,18.773-6.782c-3.487-4.674-10.237-8.023-18.12-8.354S653.132,371.309,649.26,375.673Z" transform="translate(45.276 21.395)" fill="#7763aa"/>
      <path id="Path_5771" data-name="Path 5771" d="M662.09,391.361c2.835,3.808,8.322,6.525,14.729,6.792s12.109-1.958,15.264-5.509c-2.835-3.808-8.322-6.525-14.74-6.8S665.2,387.788,662.09,391.361Z" transform="translate(46.17 22.576)" fill="#7763aa"/>
      <path id="Path_5772" data-name="Path 5772" d="M670.94,404.985c2.289,3.209,6.718,5.466,11.895,5.691s9.788-1.669,12.333-4.653c-2.289-3.209-6.718-5.477-11.895-5.7S673.486,401.99,670.94,404.985Z" transform="translate(46.787 23.585)" fill="#7763aa"/>
      <path id="Path_5773" data-name="Path 5773" d="M673.83,419.245c2.289,3.209,6.718,5.466,11.895,5.691s9.788-1.669,12.333-4.653c-2.279-3.209-6.707-5.477-11.895-5.7S676.386,416.25,673.83,419.245Z" transform="translate(46.988 24.579)" fill="#7763aa"/>
      <path id="Path_5774" data-name="Path 5774" d="M677.85,432.556c1.658,3.1,5.423,5.766,10.183,6.8s9.3.193,12.087-1.936c-1.647-3.1-5.423-5.766-10.173-6.814S680.652,430.427,677.85,432.556Z" transform="translate(47.268 25.666)" fill="#7763aa"/>
      <path id="Path_5775" data-name="Path 5775" d="M680.56,448.848c2.482,1.9,6.493,2.653,10.7,1.7s7.488-3.359,8.9-6.151c-2.482-1.9-6.493-2.653-10.7-1.7S681.983,446.056,680.56,448.848Z" transform="translate(47.457 26.51)" fill="#7763aa"/>
      <path id="Path_5776" data-name="Path 5776" d="M686.2,460.013a11.114,11.114,0,0,0,14.088-6.119A11.114,11.114,0,0,0,686.2,460.013Z" transform="translate(47.85 27.271)" fill="#7763aa"/>
      <path id="Path_5777" data-name="Path 5777" d="M691.17,464.153a6.2,6.2,0,0,0,8.611-3.744,6.225,6.225,0,0,0-8.611,3.744Z" transform="translate(48.196 27.731)" fill="#7763aa"/>
      <path id="Path_5778" data-name="Path 5778" d="M691.53,468.714a6.226,6.226,0,0,0,8.611-3.744,6.2,6.2,0,0,0-8.611,3.744Z" transform="translate(48.222 28.048)" fill="#7763aa"/>
      <path id="Path_5779" data-name="Path 5779" d="M732.031,458.152c8.237-12.077,16.922-23.875,26.186-35.2l-.15-.128c-9.5,11.146-18.431,22.773-26.935,34.711A418.411,418.411,0,0,0,707.45,494.6q-2.621,4.664-5.07,9.413l1.915,1.07q2.364-4.813,4.888-9.542a415.311,415.311,0,0,1,22.849-37.386Z" transform="translate(48.978 25.154)" fill="#9e84e2"/>
      <path id="Path_5780" data-name="Path 5780" d="M763.824,408.54a11.959,11.959,0,0,0-9.306,15.478,11.959,11.959,0,0,0,9.306-15.478Z" transform="translate(52.57 24.159)" fill="#9e84e2"/>
      <path id="Path_5781" data-name="Path 5781" d="M742.062,415.13c-1.241,2.417-1.3,6.044.086,9.627s3.872,6.247,6.418,7.2c1.241-2.417,1.3-6.044-.086-9.627S744.554,416.061,742.062,415.13Z" transform="translate(51.677 24.618)" fill="#9e84e2"/>
      <path id="Path_5782" data-name="Path 5782" d="M741.24,440.309c2.065,1.754,5.584,2.653,9.4,2.139s6.974-2.343,8.483-4.6c-2.065-1.754-5.584-2.653-9.4-2.139S742.748,438.031,741.24,440.309Z" transform="translate(51.686 26.042)" fill="#9e84e2"/>
      <path id="Path_5783" data-name="Path 5783" d="M732.71,451.309c2.064,1.754,5.584,2.653,9.413,2.139s6.964-2.343,8.472-4.6c-2.064-1.765-5.573-2.653-9.4-2.139S734.229,449.041,732.71,451.309Z" transform="translate(51.091 26.809)" fill="#9e84e2"/>
      <path id="Path_5784" data-name="Path 5784" d="M726.92,460.058c2.065,1.765,5.584,2.664,9.413,2.139s6.964-2.332,8.472-4.589c-2.064-1.765-5.573-2.653-9.4-2.139S728.439,457.812,726.92,460.058Z" transform="translate(50.688 27.419)" fill="#9e84e2"/>
      <path id="Path_5785" data-name="Path 5785" d="M720.5,469.739c2.064,1.765,5.584,2.664,9.4,2.139s6.974-2.332,8.482-4.589c-2.064-1.765-5.584-2.663-9.4-2.139S722.008,467.482,720.5,469.739Z" transform="translate(50.24 28.093)" fill="#9e84e2"/>
      <path id="Path_5786" data-name="Path 5786" d="M734.591,424.58c-1.241,2.417-1.3,6.044.086,9.627s3.883,6.247,6.418,7.2c1.23-2.407,1.3-6.044-.1-9.627S737.137,425.532,734.591,424.58Z" transform="translate(51.156 25.277)" fill="#9e84e2"/>
      <path id="Path_5787" data-name="Path 5787" d="M727.5,434.3c-1.241,2.417-1.3,6.044.086,9.627s3.883,6.247,6.418,7.2c1.241-2.407,1.3-6.044-.086-9.627S730.037,435.252,727.5,434.3Z" transform="translate(50.662 25.954)" fill="#9e84e2"/>
      <path id="Path_5788" data-name="Path 5788" d="M720.751,444.1c-1.241,2.417-1.3,6.044.086,9.627s3.872,6.247,6.418,7.2c1.241-2.407,1.305-6.044-.086-9.627S723.286,445.063,720.751,444.1Z" transform="translate(50.192 26.637)" fill="#9e84e2"/>
      <path id="Path_5789" data-name="Path 5789" d="M714.2,453.7c-1.241,2.417-1.294,6.044.1,9.627s3.872,6.247,6.418,7.2c1.241-2.407,1.294-6.044-.1-9.627S716.747,454.652,714.2,453.7Z" transform="translate(49.736 27.306)" fill="#9e84e2"/>
      <path id="Path_5790" data-name="Path 5790" d="M739.725,481.71H684.968c-9.092,4.653-14.858,11.553-14.858,19.254,0,8.247,6.568,15.564,16.741,20.185H737.8c10.173-4.621,16.751-11.938,16.751-20.185C754.583,493.263,748.806,486.363,739.725,481.71Z" transform="translate(46.729 29.258)" fill="#6D0C17"/>
      <path id="Path_5791" data-name="Path 5791" d="M730.889,485.764c5.348-.631,12.633,3.434,14.494,11.617,2.546,16.131-13.617,20.87-22.463,16.773,7.68-1.925,16.045-5.455,16.334-13.392a14.681,14.681,0,0,0-2.139-8.29,22.121,22.121,0,0,0-2.31-3.1,23.531,23.531,0,0,0-3.915-3.6Z" transform="translate(50.409 29.536)" fill="#5d30af"/>
      <rect id="Rectangle_1023" data-name="Rectangle 1023" width="60.448" height="3.797" transform="translate(728.552 508.604)" fill="#a853b0"/>
      <path id="Path_5792" data-name="Path 5792" d="M149.611,522.9h4.557V425.69h-8.1Z" transform="translate(10.213 25.354)" fill="#1e0c00"/>
      <path id="Path_5793" data-name="Path 5793" d="M52.88,521.753h4.888l3.209-91.083h-8.1Z" transform="translate(3.719 25.701)" fill="#1e0c00"/>
      <path id="Path_5794" data-name="Path 5794" d="M204.821,515.762h4.557V423.93h-8.1Z" transform="translate(14.06 25.231)" fill="#1e0c00"/>
      <path id="Path_5795" data-name="Path 5795" d="M98.886,517.885l4.888-.064,2.343-79.681-8.1.107Z" transform="translate(6.865 26.222)" fill="#1e0c00"/>
      <path id="Path_5796" data-name="Path 5796" d="M90.95,409.71c2.139-15.585-15.97-111.247-23.982-114.039-3.862-1.369-22.463-.717-39.386.214a26.988,26.988,0,0,0-25.2,31.021L13.6,399.516c4.9,31.716,146.2,9.691,146.2,9.691Z" transform="translate(0.179 16.239)" fill="#5db9f4"/>
      <path id="Path_5797" data-name="Path 5797" d="M192.343,360.322c-24.5-2.738-67.123.471-77.263-3.487s-18.612-25.9-26.09-37.022c-10.836-16.109-14.772-13.8-26.25-17.243L79.983,411.41l67.1,29.513,68.053-2.749c1.07-.075,3.755-20.966,3.7-23.479C218.5,399.387,220.8,363.456,192.343,360.322Z" transform="translate(4.406 16.775)" fill="#00677f"/>
      <path id="Path_5798" data-name="Path 5798" d="M149.332,449.088l53.73-12.665a8.429,8.429,0,0,0,6.728-8.344l-.353-9.766c-.342-9.338-9.627-15.8-19.254-13.339L137.17,418.591Z" transform="translate(9.593 23.874)" fill="#00485c"/>
      <path id="Path_5799" data-name="Path 5799" d="M218.841,499.03c-.171,1.551-2.867,4,.9,6.418,1.273.824,1.54-1.2,6.29,1.07,3.209,1.53,8.878,7.937,12.1,8.718a18.345,18.345,0,0,0,11.178-.824c-3.081-2-5.509-4.375-8.943-6.193C229.912,502.721,224.8,460.6,223,462.394c-3.84,1.808-10.355,3.487-14.152,4.621C214.551,474.4,219.557,492.248,218.841,499.03Z" transform="translate(14.587 27.908)" fill="#fd5e5a"/>
      <path id="Path_5800" data-name="Path 5800" d="M223.241,497.21c-1.241-.8-3.134-.588-4.91-.567,0,1.572-4.375,4.535-.706,6.932s9.06,17.414,9.06,17.414l2.492-.7s-8.087-16.6-4.4-15.168,10.151,13.136,10.151,13.136l16.933-5.081-1.07-3.091c-1.786-1.155-4.632-2.214-6.354-.759C237.222,515.437,228.675,499.691,223.241,497.21Z" transform="translate(15.097 30.295)" fill="#3a0049"/>
      <path id="Path_5801" data-name="Path 5801" d="M208.387,387.374c-5.937-9.777-46-13.072-80.365-19.532-22.26-4.2-35.9-11.071-35.9-11.071l-6.5,17.5,27.812,19.072,83.136,6.814s18.292,70.075,28,86.644l18.88-4.279C232.445,460.978,213.832,396.359,208.387,387.374Z" transform="translate(6.001 20.552)" fill="#001542"/>
      <path id="Path_5802" data-name="Path 5802" d="M212.2,467.83c-4.161,1.07-8.322,2.257-12.473,3.594,2.835,8.151,4.707,14.762,4.033,16.783-.535,1.573-1.155,3.145-1.754,4.664-1.69,4.279-1.284,7.595-.139,9.06.685.888,3.894-.792,6.793,3.616,3.562,5.434,4.921,17.447,4.921,17.447l18.709-.556s2.289-1.626-2.139-4.568-7.723-3.53-9.7-7.284-4.846-24.346-7.381-37.439C212.855,471.852,212.523,470.034,212.2,467.83Z" transform="translate(13.952 28.291)" fill="#fc7575"/>
      <path id="Path_5803" data-name="Path 5803" d="M233.033,519.084h0a19.874,19.874,0,0,0-10-7.777l-3.423,3.444c-5.637-4.685-7.306-13.649-11.285-18.762a12.6,12.6,0,0,0-6.3-4.749c-1.69,4.279-3.209,8-2.139,9.467,1.54,1.99,5.274,21.757,5.274,21.757l2.728-.524s-4.814-16.045-2.268-17.489,7.06,18.185,7.06,18.185l20.709-1.07S234.2,520.934,233.033,519.084Z" transform="translate(13.938 29.922)" fill="#4f005e"/>
      <path id="Path_5804" data-name="Path 5804" d="M181.73,385.38Z" transform="translate(12.698 22.545)" fill="#5279e0"/>
      <path id="Path_5805" data-name="Path 5805" d="M191.512,363.378c-1.177-1.53-8.622-1.69-8.622-1.69a50.276,50.276,0,0,1-16.505-2.065c-5.134-1.658-32.165-9.242-47.943-19.554-4.632,5.07-11.574,8.707-14.772,14.387.824.492,1.658.973,2.5,1.412,32.09,16.869,56.469,13.778,56.469,13.778s10.986,4.215,16.227,4.824,9.124-.92,6.418-2.653-4.332,0-6.857-1.615-1.572-1.476-.278-3.038,9.06,0,9.263,1.23,3.369,10.7,4.921,8.814-2.278-10.964-3.316-11.606-6.418-1.69-6.418-1.69l7.4,1.166s2.792,9.7,4.1,9.488S192.678,364.919,191.512,363.378Z" transform="translate(7.258 19.388)" fill="#915961"/>
      <path id="Path_5806" data-name="Path 5806" d="M121.956,343.939c-2.139-1.4-30.283-59.389-49.687-59.389-4.172,0-19.03,3.209-19.03,3.209s23.116,55.72,53.944,74.033C110.382,356.133,117.325,349.009,121.956,343.939Z" transform="translate(3.744 15.519)" fill="#b57651"/>
      <path id="Path_5807" data-name="Path 5807" d="M189.563,385.8l-57.891-7.873S95.121,364.708,95.057,358.9c-1.07.267-21.116,12.686-21.116,12.686C69.427,386.027,75.182,418.043,85.5,416c14.291,3.765,90.516,2.225,90.516,2.225s24.389,54.971,31.171,74.493c5.07-1.626,13.189-4.717,18.27-6.033C222.456,466.125,194.847,386.262,189.563,385.8Z" transform="translate(5.078 20.7)" fill="#122753"/>
      <path id="Path_5808" data-name="Path 5808" d="M119.88,370.672c-1.4-6.354-20.934.824-20.934-28.475,0-9.713-.663-14.8.171-23.383.8-8.311-30.561-38.434-30.561-38.434s-27.17,4.514-26.817,13.253,10.023,55.42,10.344,58.255c.995,8.846,24.6,45.868,23.993,52.543C87.394,402.174,115.634,383.561,119.88,370.672Z" transform="translate(2.943 15.229)" fill="#f19e6e"/>
      <path id="Path_5809" data-name="Path 5809" d="M55.675,219.67c-.984,1.369-12.836,2.043-20.516,14.58-7.488,12.226.546,33.16,5.7,43.183a21.662,21.662,0,0,0,4.054,5.605,34.228,34.228,0,0,1,10.183-3.6c5.477-.9,14.216-1.69,19.939-3.765s-.781-38.134-6.664-46.274S55.675,219.67,55.675,219.67Z" transform="translate(2.272 10.998)" fill="#2e0a29"/>
      <path id="Path_5810" data-name="Path 5810" d="M47.07,219.806s19.147-5.926,25.672,7.306c4,8.172,5.915,33.952,13.617,33.4,0,0-3.016,4.1-5.883,4.568,0,0-1.07,2.375,4.364,6.311a37.7,37.7,0,0,1-10.847,4.343c-.4.075-4.343,2.139-5.455-1.359-1.305-4.1.139-14.056-1.07-18.024C62.078,239.585,47.07,219.806,47.07,219.806Z" transform="translate(3.314 10.916)"/>
      <path id="Path_5811" data-name="Path 5811" d="M54.66,221.081a12.836,12.836,0,0,1,3.466-.3s9.445,1.968,11.617,10.012,2.877,13.2,4.846,18.281c3.091,8,2.364,23.105-6.7,24.742-1.07-4.279.225-13.767-.995-17.607C62.426,242.164,56.478,225.99,54.66,221.081Z" transform="translate(3.843 11.075)" fill="#2f2f2f"/>
      <path id="Path_5812" data-name="Path 5812" d="M51.41,258.4l1.925,27.2s18.12,20.142,26.239,18.292c.417-.1-8.354-18.013-8.557-18.687,0,0-1.979-15.938-2.375-20.72S51.41,258.4,51.41,258.4Z" transform="translate(3.617 13.697)" fill="#a0616a"/>
      <path id="Path_5813" data-name="Path 5813" d="M52,259.3l1.284,14.794c10.13,6.643,15.521-5.873,15.607-5.947-1.07-3.9-.225-2.043-.364-3.723C68.174,259.642,52,259.3,52,259.3Z" transform="translate(3.658 13.76)" fill="#915961"/>
      <path id="Path_5814" data-name="Path 5814" d="M55.576,221.2a17.874,17.874,0,0,1,13.82,7.488c3.562,5.241,3.209,12.205,5.445,18,1.872,4.867,2.46,18.794-4.76,23.811s-20.4-5.873-23.447-11.36-5.348-13.735-5.274-23.308A15.286,15.286,0,0,1,49,222.7a12.023,12.023,0,0,1,6.579-1.5Z" transform="translate(2.916 11.103)" fill="#a0616a"/>
      <path id="Path_5815" data-name="Path 5815" d="M66.948,252.936c-1.583-1.07-2.46-3.7-2.578-5.466.792,1.53,2,4.279,3.209,5.145l.257.171a5.124,5.124,0,0,1-2.952,1.786A7.573,7.573,0,0,0,66.948,252.936Z" transform="translate(4.52 12.935)" fill="#450f3d"/>
      <path id="Path_5816" data-name="Path 5816" d="M60.747,240.682a5.412,5.412,0,0,0-2.952-.8c-1.872,0-5.284,2.845-5.284,2.845a32.3,32.3,0,0,1,4.7-1.979,7.862,7.862,0,0,1,2.963.513Z" transform="translate(3.693 12.406)"/>
      <path id="Path_5817" data-name="Path 5817" d="M64.91,240.206a5.049,5.049,0,0,1,2.011-1.754c1.455-.749,5.134,0,5.134,0a29.607,29.607,0,0,0-4.364.374,7.306,7.306,0,0,0-2.139,1.54Z" transform="translate(4.557 12.284)"/>
      <path id="Path_5818" data-name="Path 5818" d="M62.023,245.192a5.038,5.038,0,0,0-4.279-.31c-1.615.674-2.289,2.246-3.295,2.674,1.658.064,1.829-1.818,5.509-2.375a6.3,6.3,0,0,1,2.064.011Z" transform="translate(3.829 12.732)" fill="#2e0a29"/>
      <path id="Path_5819" data-name="Path 5819" d="M66.6,245.832a5.049,5.049,0,0,1,2.91-3.123c1.647-.61,3.209.086,4.279-.289-1.177,1.177-2.589-.075-5.659,2.011a7.135,7.135,0,0,0-1.53,1.4Z" transform="translate(4.675 12.584)" fill="#2e0a29"/>
      <path id="Path_5820" data-name="Path 5820" d="M59.814,252.009c.267,1.294-1.2,2.685-3.273,3.113s-3.979-.257-4.279-1.54,1.2-2.685,3.273-3.113S59.547,250.725,59.814,252.009Z" transform="translate(3.674 13.135)" fill="#915961"/>
      <path id="Path_5821" data-name="Path 5821" d="M73.688,248.316c.2.973-.749,2-2.139,2.278s-2.664-.267-2.867-1.241.749-2,2.139-2.289S73.5,247.332,73.688,248.316Z" transform="translate(4.818 12.902)" fill="#915961"/>
      <path id="Path_5822" data-name="Path 5822" d="M56.881,221.163s-9.028,14.109-6.418,24.6,14.013,22.207,14.013,22.207l-6.9,5.348,7.969,4.7s-23.084,6.418-27.812,6.418-24.432-22.378-9.37-51.056C35.423,219.869,49.457,217.419,56.881,221.163Z" transform="translate(1.622 10.992)"/>
      <path id="Path_5823" data-name="Path 5823" d="M61.16,258.594s9.52-.931,10.558-2.974c0,0-.524,4.546-3.626,5.413S61.16,258.594,61.16,258.594Z" transform="translate(4.296 13.503)"/>
      <path id="Path_5824" data-name="Path 5824" d="M71.386,257.1a9.2,9.2,0,0,0,.332-1.476c-1.07,2.043-10.558,2.974-10.558,2.974a14.088,14.088,0,0,0,1.316.963C64.882,259.235,69.921,258.433,71.386,257.1Z" transform="translate(4.296 13.503)" fill="#fff"/>
      <path id="Path_5825" data-name="Path 5825" d="M158.813,456.4l-95.533-.642A50.564,50.564,0,0,1,15.8,412.969L1.323,319.393c-1.947-12.622,10.226-23.169,22.249-18.869a4.514,4.514,0,0,1,2.5,1.647C31.8,313.52,40.688,353.451,54.241,365.09c16.045,13.81,59.068,6.611,89.137,3.99,0,0,16.6-2.439,19.372,11.927C165.081,393.094,159.369,442.3,158.813,456.4Z" transform="translate(0.112 16.564)" fill="#0089a9"/>
      <path id="Path_5826" data-name="Path 5826" d="M158.893,456.416c-12.4.471-91.308,2.856-101.62,1.262-22.6-3.487-40.787-20.923-44.3-45.162,0-.235-13.211-89.383-13.007-95.929.556-12.013,12.558-20.645,23.651-16.045C13.341,297.215,0,305.4,3.051,320.951c17.735,97.341,14.184,94.977,20.88,107.182a48.564,48.564,0,0,0,43.023,25.2C77.907,453.635,111.057,453.977,158.893,456.416Z" transform="translate(0.032 16.546)" fill="#00677f"/>
      <path id="Path_5827" data-name="Path 5827" d="M22.11,300.46c2.407.642,2.492.61,5.2,6.172C32.86,318.58,45.044,353.7,53.9,360.747l1.252,1.187c12.729,10.943,53.816,5.637,71.583,3.883l14.344-1.262c12.836-.984,22.859,4.375,24.26,17.061,1.658,15.789-6.193,62.619-8,74.717-1.07-38.755,4.011-72.225-2.139-79.242-4.931-6.161-16.612-2.942-19.361-2.963l-8.183.92C63.935,381.906,49.569,377.3,37.8,346.97c-7.4-19.19-11.831-43.568-13.959-45.44a7.487,7.487,0,0,0-1.733-1.07Z" transform="translate(1.575 16.628)" fill="#32d3f9"/>
      <path id="Path_5828" data-name="Path 5828" d="M50.959,222.37a19.19,19.19,0,0,0-4.707,3.84c-10.8,11.67-8.45,26.742,3.348,35.043l-3.434,4.471c-12.7-11.371-13.606-28.774-.46-40.017a19.682,19.682,0,0,1,5.252-3.337Z" transform="translate(2.56 11.186)" fill="#2f2f2f"/>
      <path id="Path_5829" data-name="Path 5829" d="M45.851,221.19c-11.3,8.472-20.089,23.48-13.735,36.006l.909,2.139c.182.182,7.135,15.093,22.164,15.821l-.364,5.626C30.234,277.6,13.333,242.027,45.851,221.19Z" transform="translate(1.977 11.104)" fill="#2f2f2f"/>
      <path id="Path_5830" data-name="Path 5830" d="M55.561,221.105s7.317-2.278,12.772,1.4-.182,12.291-6.835,15.04-15.649,4.814-14.056,11.692,4.642,8.836,4.642,8.836S41.73,254.768,41.73,245.665,44.993,222.111,55.561,221.105Z" transform="translate(2.942 11.05)"/>
      <path id="Path_5831" data-name="Path 5831" d="M149.4,366.007c-.77-1.07-5.9-4.771-8.878-5.5a24.783,24.783,0,0,0-7.1-.246,36.828,36.828,0,0,0-6.7-.053c-8.29.738-49.377-.171-54.019-3.305a10.524,10.524,0,0,1-2.139-2.064c-6.247,5.209-12.269,10.633-14.976,17.233a11.832,11.832,0,0,0,1.209.8c15.254,8.557,55.452-3.787,66.737-5.669s18.431,4.642,21.5,7.648c.246.235,1.07.513,1.07-.941S142.9,368.1,142.9,368.1a12.718,12.718,0,0,1,5.113,6.621c1.412,4.439,1.669-.064,1.07-1.851s-4-5.156-4-5.466c0-.792,5.188,5.862,5.883,7.67s1.348-1.166.471-2.931a15.048,15.048,0,0,0-1.07-1.744,11.372,11.372,0,0,0,2.364,2.471C153.092,372.875,152.236,368.917,149.4,366.007Z" transform="translate(3.908 20.417)" fill="#a0616a"/>
      <path id="Path_5832" data-name="Path 5832" d="M74.224,361.671C70.2,342.941,57,285.124,48,286.461c0,0-10.119-.556-13.606,11.959C31,310.593,42.38,367.383,57.056,378.2,59.783,371.608,67.977,366.869,74.224,361.671Z" transform="translate(2.389 15.651)" fill="#b57651"/>
      <path id="Path_5833" data-name="Path 5833" d="M531.847,531.273H527.29V434.06H535.4Z" transform="translate(36.777 25.937)" fill="#1e0c00"/>
      <path id="Path_5834" data-name="Path 5834" d="M628.577,524.336h-4.888l-3.209-85.3h8.1Z" transform="translate(43.271 26.284)" fill="#1e0c00"/>
      <path id="Path_5835" data-name="Path 5835" d="M476.637,521.64H472.08V432.3h8.1Z" transform="translate(32.93 25.815)" fill="#1e0c00"/>
      <path id="Path_5836" data-name="Path 5836" d="M582.486,527.935l-4.888-.054L575.34,446.04l8.1.1Z" transform="translate(40.125 26.772)" fill="#1e0c00"/>
      <path id="Path_5837" data-name="Path 5837" d="M600.264,418.08c-2.139-15.585,15.96-111.247,23.971-114.049,4.075-1.433,24.6-.631,42.274.385a24.442,24.442,0,0,1,22.773,28.143l-11.649,75.37c-4.9,31.716-146.2,9.691-146.2,9.691Z" transform="translate(37.066 16.823)" fill="#468bb7"/>
      <path id="Path_5838" data-name="Path 5838" d="M484.185,364.107c25.929-2.845,83.307,5.766,94.025,1.562s15.168-31.8,23.073-43.515c11.456-16.976,15.617-14.548,27.747-18.185L610.846,418.661l-70.931,31.106-71.936-2.9c-1.177-.075-3.979-22.089-3.915-24.742C464.385,406.007,454.105,367.413,484.185,364.107Z" transform="translate(32.271 16.872)" fill="#064655"/>
      <path id="Path_5839" data-name="Path 5839" d="M539.593,442.511l-62.416-.075a8.7,8.7,0,0,1-8.718-6.643l-1.883-9.627c-1.818-9.189,6.129-17.553,16.388-17.286l56.693,1.5Z" transform="translate(32.528 24.182)" fill="#064655"/>
      <path id="Path_5840" data-name="Path 5840" d="M575.818,355.54s-4.61,22.763.909,21.094S578.492,357.572,575.818,355.54Z" transform="translate(40.033 20.466)" fill="#372c52"/>
      <path id="Path_5841" data-name="Path 5841" d="M487.209,356.56s-5.947,15.05,2.043,34.947c6.953,17.318,15.938,25.351,19.9,25.394.588,0,18.805-21.158,10.7-37.931S487.209,356.56,487.209,356.56Z" transform="translate(33.836 20.537)" fill="#372c52"/>
      <path id="Path_5842" data-name="Path 5842" d="M562.137,297.11c-2.653-3.755-8.557-3.68-11.189-3.979s-5.84-4.728-7.573-4.921-.139,5.167,2.61,6.1,0,3.712-1.893,4.108-8.985,1.273-11.3-2.011-5.723-4.846-5.872-3.5,5.038,6,5.038,6-7.819-4.707-8-3.124,6.718,4.707,6.718,4.707-4.428-1.07-5.477-.118,11.146,5.455,13.414,5.712,14.74-3.209,18.837-4.439c1.722-.524,5.669,8.1,10.921,18.762a36.938,36.938,0,0,1,4.193-8.557C567.443,304.908,563.185,298.6,562.137,297.11Z" transform="translate(36.545 15.774)" fill="#fc7575"/>
      <path id="Path_5843" data-name="Path 5843" d="M592.965,333.745c-.578.674-1.4-1.743-1.872-1.594-3.573,1.07-13.457-11.146-21.308-21.811-1.7,2.685-4.931,5.947-5.915,9,7.274,14.783,18.752,33.032,28.539,36.786,0,0,3.872-4.589,8.354-11.039A80.544,80.544,0,0,0,592.965,333.745Z" transform="translate(39.326 17.316)" fill="#8ab3bc"/>
      <path id="Path_5844" data-name="Path 5844" d="M567.247,375.967s-71.316-21.982-82.537-18.056l20.549,28.946,12.13,12.216,61.464-12.408Z" transform="translate(33.81 20.598)" fill="#fd5e5a"/>
      <path id="Path_5845" data-name="Path 5845" d="M503.974,508.732l-.214,16.987,1.893.053,2.375-19.372Z" transform="translate(35.137 30.978)" fill="#1a1722"/>
      <path id="Path_5846" data-name="Path 5846" d="M587.336,378.67c-14.28,7.563-76.846,5.07-90.474,8.322s-15.093,16.537-16.109,25.6c-.792,7.039,10.846,64.245,13.51,93.212-.877,15.478-1.07,18.185-4.054,23.33s-3.68,6.226.353,6.226c5.2,0,9.745-1.005,10.7-3.134,1.733-3.68,3.209-16.323,6.782-16.323,0,0,2.407-4.728,1.8-7.21-.888-3.573-3.209-1.957-3.444-6.418,2.385-29.1,5.9-76.835,4.129-80.74a34.376,34.376,0,0,0-4.707-7.862s76.525,17.586,85.468,15.446c5.092-1.209,16.152-18.366,25.672-35.353Z" transform="translate(33.531 22.078)" fill="#fc7575"/>
      <path id="Path_5847" data-name="Path 5847" d="M506.434,496.12c-1.562,9.51-7.745,28.379-11.392,28.389-4.921,0-5.209-.235-5.177-3.562-3.006,5.167-6.418,7.819-2.364,7.819,5.188,0,13.285.31,14.291-1.818,1.733-3.669,2.674-17.586,6.226-17.586l-1.07,17.115h1.883s2.792-23.533,2.139-25.929C510.135,497.382,507.418,496.7,506.434,496.12Z" transform="translate(33.875 30.262)" fill="#332f44"/>
      <path id="Path_5848" data-name="Path 5848" d="M461.4,473.239l-2.268,16.837,1.872.278,4.7-18.944Z" transform="translate(32.028 28.54)" fill="#1a1722"/>
      <path id="Path_5849" data-name="Path 5849" d="M504.092,376.286c1.241-11.028-11.114-24.089-16.462-18.324-16.388,17.671-25.619,69.3-30.465,90.3-.759,3.305-6.91,36.733-11.285,42.531-3.6,4.771-4.407,5.733-.4,6.215,5.156.631,9.788.182,11.039-1.808,2.139-3.444,5.177-15.821,8.707-15.393,0,0,2.963-4.4,2.653-6.932-.353-2.9-2.022-2.663-2.535-4.642.128-3.113.845-8.761,2.3-12.141C471.349,447.473,502.851,387.325,504.092,376.286Z" transform="translate(30.89 20.536)" fill="#ff4747"/>
      <path id="Path_5850" data-name="Path 5850" d="M465.54,461c-2.7,9.242-11.135,27.149-14.751,26.742-4.888-.578-5.145-.866-4.717-4.161-7.4,3.626-7.306,6.985-3.295,7.488,5.156.631,13.157,1.925,14.409-.075,2.139-3.434,4.781-17.115,8.311-16.7l-3.209,16.858,1.861.278s5.627-23.062,5.348-25.469C469.048,462.572,466.47,461.663,465.54,461Z" transform="translate(30.699 27.815)" fill="#332f44"/>
      <path id="Path_5851" data-name="Path 5851" d="M638.624,299.911c-1.626-6.611-14.045-9.274-18.965-5.027,0,0-33.374,22.667-31.641,36.829,1.679,13.82,6.418,43.943-6.7,52.414l-.631-.246,32.422,15.029c7.188-12.836,10.354-24.8,12.472-30.486C630.494,355.235,640.239,306.522,638.624,299.911Z" transform="translate(40.498 16.096)" fill="#cef2fa"/>
      <path id="Path_5852" data-name="Path 5852" d="M587.214,379.432c-12.836-4.953-80.911-26.218-100.143-22.848,0,0,30.732,33.246,21.939,60.341,0,0,74.878,21.682,81.638,16.484s25.383-34.005,25.426-34.08l3.562-4.835Z" transform="translate(33.974 20.514)" fill="#7f71a4"/>
      <path id="Path_5853" data-name="Path 5853" d="M583.064,362.458c-13.906-4.161-28.1-9.306-28.1-9.306a10.407,10.407,0,0,1,2.064-8.953c3.434-4.065,5.348-6.161,3.84-6.332s-6.5,4.856-6.5,4.856,2.7-5.851,5.616-8.1.321-4.279-5.07,3.209-4.9,4.493-4.717,2.877,6.236-8.846,5.723-11.767c-.492-2.706-8.194,9.809-9.627,13.906,3.209-19.254-1.369-14.9-3.455,3.723-.61,5.348,4.279,12.718,4.418,12.89.353.674,19.757,11.168,35.631,19C583.032,373.219,583.663,367.689,583.064,362.458Z" transform="translate(37.856 18.586)" fill="#fc7575"/>
      <path id="Path_5854" data-name="Path 5854" d="M536.532,320.371c-26.25-2.952-29.17-23.918-29.192-24.132a.813.813,0,0,1,.738-.9.866.866,0,0,1,.941.717c.1.813,2.8,19.907,27.694,22.7a.813.813,0,1,1-.182,1.615Z" transform="translate(35.387 16.271)" fill="#005569"/>
      <path id="Path_5855" data-name="Path 5855" d="M634.822,262.306s9.52-1.637,10.344,3.412-2.471,12.836-6.226,15.264c-2.92,1.915-12.986,8.119-15.778,2.139S623.537,261.365,634.822,262.306Z" transform="translate(43.391 13.952)" fill="#060617"/>
      <path id="Path_5856" data-name="Path 5856" d="M639.259,264.1c1.979,4.985,1.861,10.29-3.209,13.906l1.07,1.53C642.158,275.086,642.126,269.459,639.259,264.1Z" transform="translate(44.356 14.094)" fill="#7e7e7e"/>
      <path id="Path_5857" data-name="Path 5857" d="M618.01,272.1s-.578,8.557-.5,15.446c.054,3.755-1.455,6.268-2.385,9.082s-11.446,16.045-8.365,17.029c1.883.578,15.072-8.472,17.286-9.467,3.541-1.6,7.038-4.546,10.2-6.193L629.284,262.8Z" transform="translate(42.275 14.004)" fill="#a0616a"/>
      <path id="Path_5858" data-name="Path 5858" d="M628.544,262.827l-11.274,9.3s-.342,4.942-.46,10.354c3.6-1.433,10.429-6.985,12.4-14.911C627.945,260.356,628.544,262.827,628.544,262.827Z" transform="translate(43.015 13.977)" fill="#915961"/>
      <path id="Path_5859" data-name="Path 5859" d="M613.746,233.66a13.83,13.83,0,0,0-7.124,6.012c-2.589,4.568-1.219,11.178-2.728,15.254s1.519,24.6,10.761,25.127c11.563.663,16.184-16.238,17.4-19.554s.663-16.473-4.193-21.19S613.746,233.66,613.746,233.66Z" transform="translate(42.089 11.973)" fill="#a0616a"/>
      <path id="Path_5860" data-name="Path 5860" d="M610.988,255.34a70.579,70.579,0,0,1-1.615,8.643,5.53,5.53,0,0,0,3.209.674,5.145,5.145,0,0,1-3.712-.439A72.309,72.309,0,0,1,610.988,255.34Z" transform="translate(42.462 13.484)"/>
      <path id="Path_5861" data-name="Path 5861" d="M616.77,251.273a10.985,10.985,0,0,1,4.953-.588c2.482.374,5.038,3.926,5.038,3.926s-3.07-2.974-4.739-3.209a10.033,10.033,0,0,0-3.519.406Z" transform="translate(43.012 13.155)"/>
      <path id="Path_5862" data-name="Path 5862" d="M611.924,250.026a8.836,8.836,0,0,0-3.316-2.8c-1.947-.824-5.348,1.07-5.348,1.07s3.509-1.177,4.792-.578a7.829,7.829,0,0,1,2.353,1.99Z" transform="translate(42.071 12.904)"/>
      <path id="Path_5863" data-name="Path 5863" d="M616.873,267.09c-4.525,2.343-6.322,2.492-8.023,2.4C611.481,270.877,615.429,269.272,616.873,267.09Z" transform="translate(42.46 14.303)" fill="#fff"/>
      <path id="Path_5864" data-name="Path 5864" d="M617.322,255.171a1.508,1.508,0,0,0,1.615,1.348,1.487,1.487,0,0,0,1.2-1.722,1.423,1.423,0,1,0-2.813.374Z" transform="translate(43.049 13.353)"/>
      <path id="Path_5865" data-name="Path 5865" d="M623.857,256.1c-5.07-5.348-7.263-1.583-9.007-1.359,1.412.118,3.081-1.3,4.621-.877A22.955,22.955,0,0,1,623.857,256.1Z" transform="translate(42.878 13.338)"/>
      <path id="Path_5866" data-name="Path 5866" d="M606.484,254.234c.139.845.738,1.433,1.337,1.316a1.423,1.423,0,0,0,.845-1.733c-.139-.834-.738-1.423-1.348-1.316A1.423,1.423,0,0,0,606.484,254.234Z" transform="translate(42.291 13.285)"/>
      <path id="Path_5867" data-name="Path 5867" d="M611.133,254.756c-4.215-4.824-6.086-.952-7.563-.588,1.187,0,2.6-1.551,3.894-1.252a16.14,16.14,0,0,1,3.669,1.84Z" transform="translate(42.092 13.276)"/>
      <path id="Path_5868" data-name="Path 5868" d="M617.606,262.4c.428,1.4,2.343,2.064,4.279,1.487s3.134-2.139,2.706-3.583-2.343-2.064-4.279-1.487S617.178,261.007,617.606,262.4Z" transform="translate(43.064 13.711)" fill="#915961"/>
      <path id="Path_5869" data-name="Path 5869" d="M623.521,239.956c-6.086-6.418-10.814-5.584-11.221-5.744a1.507,1.507,0,0,1,.332-.5c1.07-1.444,4.76-5.477,12.248-3.936,7.67,1.391,12.023,2.5,16.355,8.557,1.936,2.728,2.139,7.573,1.637,10.7-.963,5.712-3.583,6.472-3.209,12.344.4,5.627-12.216,9.157-12.216,9.157.246-.685,1.519-6.129,2.139-7.488a10.9,10.9,0,0,0,.257-8.664c-.6.2-2.214-.513-3.07-1.369C624.034,250.2,626.815,247.668,623.521,239.956Z" transform="translate(42.701 11.678)"/>
      <path id="Path_5870" data-name="Path 5870" d="M617.92,231.045a16.42,16.42,0,0,0-11.061.578c-5.52,2.492-8.654,15.938-6.643,19.254s-10.376,4.781-4.182,6.418C604.827,259.659,623.14,233.441,617.92,231.045Z" transform="translate(41.445 11.743)"/>
      <path id="Path_5871" data-name="Path 5871" d="M615.323,232.454c-8.418-1.861-14.976,3.712-14.088,10.932a4.022,4.022,0,0,0,1.658,3.134l.8-1.54c-.449-.139-.813-1.369-.9-1.818C601.438,236.775,607.2,231.277,615.323,232.454Z" transform="translate(41.924 11.864)" fill="#333348"/>
      <path id="Path_5872" data-name="Path 5872" d="M627.292,255.893s1.754-5.873,3.7-2.578-1.348,9.306-3.209,8.472S627.292,255.893,627.292,255.893Z" transform="translate(43.712 13.273)" fill="#a0616a"/>
      <path id="Path_5873" data-name="Path 5873" d="M627.6,256.686s1.316-3.38,2.139-2.578-.578,7.1-1.594,6.087S627.6,256.686,627.6,256.686Z" transform="translate(43.759 13.389)" fill="#915961"/>
      <path id="Path_5874" data-name="Path 5874" d="M636.65,295.34s-11.831,4.065-18.484,24.453-7.488,46.52-14.826,48.938c-3.38,1.07-16.452-5.659-27.641-9,3.284,6.889,1.016,15.8.909,21.094,5.862,2.888,12.226,4.45,16.045,5.99,14.088,5.755,18.463,4.279,27.01-5.177S656.547,294.624,636.65,295.34Z" transform="translate(40.15 16.271)" fill="#70c3f8"/>
      <path id="Path_5875" data-name="Path 5875" d="M532.693,464.767l95.533-.642a50.6,50.6,0,0,0,47.483-42.787l14.462-93.576c1.947-12.612-10.226-23.169-22.239-18.859a4.44,4.44,0,0,0-2.5,1.615c-5.733,11.349-14.622,51.281-28.175,62.919-16.045,13.8-59.057,6.611-89.137,3.99,0,0-16.591-2.439-19.361,11.927C526.414,401.5,532.137,450.615,532.693,464.767Z" transform="translate(36.84 17.148)" fill="#0a6980"/>
      <path id="Path_5876" data-name="Path 5876" d="M662.809,314.9c-6.193,12.365-19.008,46.8-27.437,53.152l-1.187,1.07c-12.184,10.215-53.987,4.792-70.353,3.209l-12.387-1.07c-9.37-.77-18.634.449-24.164,8.087-4.4,5.776-4.108,12.708-3.9,19.436,1.358,22.581,5.594,44.082,9.627,65.9,1.669-19.81-.674-63.111,1.369-73.391.685-3.69,2.139-6.044,6.119-7.274,9.788-2.888,74.578,13.553,98.839-5.07,19.126-16.163,23.661-65.625,27.223-69.016a7.052,7.052,0,0,1,1.69-1.123C665.483,309.463,665.494,309.8,662.809,314.9Z" transform="translate(36.498 17.21)" fill="#32d3f9"/>
      <path id="Path_5877" data-name="Path 5877" d="M667.64,308.917c10.087-3.091,23.3,4.931,20.142,20.324-8.461,44.306-11.232,62.405-15.863,90.655-3.444,22.324-21.2,40.4-47.611,40.979-18.281.321-59.3,1.615-91.907,3.9,31.021,1.754,63.218,2.375,94.4,2.685,16.484.492,36.23-9.52,46.328-27.812,6.611-12.13,6.151-22.463,8.75-36.829,2.3-16.751,4.642-31.631,9.552-73.006C693.494,312.714,678.829,304.071,667.64,308.917Z" transform="translate(37.133 17.124)" fill="#00677f"/>
      <path id="Path_5878" data-name="Path 5878" d="M393.149,528.42H373.274a2.407,2.407,0,0,0-2.535-2.257H355.614a4.846,4.846,0,0,0-5.081-4.525h-5.348c2.685-19.832,3.936-33.107,4.867-44.253.749-9.51,5.605-24.357-3.016-46.606,2.77-.406,10.3,1.519,10.3-3.348a3.049,3.049,0,0,0-.578-1.765H367.2c3.487,0,5.926-3.359,4.086-6.247H484.778C483.184,418,473.91,399.17,449.425,399.17H235.938c-25.672,0-34.476,20.067-34.658,20.249H314.73c-1.84,2.9.62,6.247,4.086,6.247h10.451a2.985,2.985,0,0,0-.588,1.765c0,4.878,7.627,2.952,10.3,3.348-3.648,9.424-6.129,22.068-4.7,33.288,3.049,23.982,2.385,26.913,6.557,57.57h-5.348a4.846,4.846,0,0,0-5.081,4.525H315.319a2.417,2.417,0,0,0-2.535,2.257H292.909a3.209,3.209,0,0,0-3.295,2.792H396.443a3.209,3.209,0,0,0-3.295-2.792Z" transform="translate(14.06 23.506)" fill="#1c0f00"/>
      <path id="Path_5879" data-name="Path 5879" d="M201.28,418.415H484.746c-.5-.449-1.786-2.653-4.076-5.445H204.692a34.279,34.279,0,0,0-3.412,5.445Z" transform="translate(14.06 24.468)" fill="#887ea8"/>
      <path id="Path_5880" data-name="Path 5880" d="M305.871,314.842c-6.846.364-10.526-1.07-14.195,1.947a6.257,6.257,0,0,0-2.236,2.685c-.417,1.861-7.691,77.306-7.691,77.306s.406,2.139,2.867,1.123S305.871,314.842,305.871,314.842Z" transform="translate(19.667 17.628)" fill="#30273f"/>
      <path id="Path_5881" data-name="Path 5881" d="M286.6,398.443l50.446,6.279A4.386,4.386,0,0,0,342,401.737l2.321-10.419,3.936-17.639,1.305-5.883,3.915-17.6,1.615-7.285,3.862-17.6,1.391-6.033c.5-2.289-1.572-4.4-4.332-4.4H303.485c-5.348,0-9.83,3.37-10.472,7.841L282.862,394.4C282.584,396.3,284.231,398.133,286.6,398.443Z" transform="translate(19.743 17.633)" fill="#40375b"/>
      <path id="Path_5882" data-name="Path 5882" d="M328.45,314.84l17.917,52.96,3.915-17.6L338.3,314.84Z" transform="translate(22.921 17.63)" fill="#fff" opacity="0.31"/>
      <path id="Path_5883" data-name="Path 5883" d="M316.12,314.84,342.006,391.3l3.915-17.618L326.015,314.84Z" transform="translate(22.062 17.63)" fill="#fff" opacity="0.31"/>
      <path id="Path_5884" data-name="Path 5884" d="M341.49,314.84l9.5,28.079,3.915-17.6-3.562-10.483Z" transform="translate(23.83 17.63)" fill="#fff" opacity="0.31"/>
      <path id="Path_5885" data-name="Path 5885" d="M237.08,400.083h109.2V390.3l-99.138-.235a10.012,10.012,0,0,0-10.023,10.023Z" transform="translate(16.555 22.871)" fill="#302944"/>
      <path id="Path_5886" data-name="Path 5886" d="M337.753,344.673c0,1.99-6.418,3.594-14.366,3.594S309,346.663,309,344.673s6.418-3.583,14.366-3.583S337.753,342.695,337.753,344.673Z" transform="translate(21.566 19.459)" fill="#d1c7e5"/>
      <path id="Path_5887" data-name="Path 5887" d="M388.542,355.938a2.578,2.578,0,0,0-2.578-2.428H369.3a2.567,2.567,0,0,0-2.578,2.428v.449H388.6Z" transform="translate(25.588 20.324)" fill="#eac733"/>
      <path id="Path_5888" data-name="Path 5888" d="M366.866,356.2l-2.706,45.922h27.288L388.741,356.2Z" transform="translate(25.41 20.512)" fill="#00c9f7"/>
      <path id="Path_5889" data-name="Path 5889" d="M378.3,346.569a.813.813,0,0,0-.792-.909H376.5a.813.813,0,0,0-.8.909h2.589Z" transform="translate(26.214 19.777)" fill="#eac733"/>
      <path id="Path_5890" data-name="Path 5890" d="M388.547,388.465l-1.84-1.134c6.333-10.3,14.184-26.2,11.831-29.266-3.145-4.076-11.51,1.861-11.6,1.925l-1.273-1.744c.417-.3,10.119-7.3,14.58-1.487C404.357,362.108,391.222,384.111,388.547,388.465Z" transform="translate(26.909 20.391)" fill="#00c9f7"/>
      <path id="Path_5891" data-name="Path 5891" d="M375.71,346.55l.6,4.867h1.38l.61-4.867Z" transform="translate(26.215 19.839)" fill="#dad2e0"/>
      <path id="Path_5892" data-name="Path 5892" d="M377.441,348.69c-4.364,0-7.9,2.3-8,5.156h16.045C385.335,350.99,381.806,348.69,377.441,348.69Z" transform="translate(25.778 19.989)" fill="#0089a9"/>
      <path id="Path_5893" data-name="Path 5893" d="M366.762,364.847l-.706,11.97L358.29,359.37H362.4Z" transform="translate(25.001 20.733)" fill="#66a1ad"/>
      <path id="Path_5894" data-name="Path 5894" d="M425.033,395.946c.642-.214,1.316-.407,2-.61,4.225-1.219,9.017-2.61,9.424-8.258a4.161,4.161,0,0,0-.727-2.974c-1.54-1.957-4.824-1.851-6.675-1.145l.588,1.519c1.348-.513,3.84-.588,4.8.631a2.631,2.631,0,0,1,.385,1.808c-.321,4.514-4.172,5.637-8.258,6.814-.7.2-1.38.406-2.043.62Z" transform="translate(29.616 22.344)" fill="#00c9f7"/>
      <path id="Path_5895" data-name="Path 5895" d="M443.387,396.31h0c0,1.07-1.925,2.139-5.156,2.952H398.546c-3.209-.824-5.156-1.84-5.156-2.952Z" transform="translate(27.447 23.307)" fill="#0089a9"/>
      <path id="Path_5896" data-name="Path 5896" d="M408.1,381h22.2c.075.332.139.674.193,1.016H407.91C408.006,381.685,408.006,381.342,408.1,381Z" transform="translate(28.458 22.24)" fill="#eac733"/>
      <path id="Path_5897" data-name="Path 5897" d="M430.491,382a22.4,22.4,0,0,1,.332,3.84,20.217,20.217,0,0,1-3.4,11.585H411a20.216,20.216,0,0,1-3.391-11.585,22.462,22.462,0,0,1,.321-3.84Z" transform="translate(28.437 22.31)" fill="#00c9f7"/>
      <path id="Path_5898" data-name="Path 5898" d="M414.753,380.9c.706-.749,1.883-.16,2.364.139h-.952a1.07,1.07,0,0,0-1.07.139c-.535.556-.909,4.129-1.07,6.418a.2.2,0,0,1-.2.182h0a.193.193,0,0,1-.193-.214C413.641,386.958,413.94,381.749,414.753,380.9Z" transform="translate(28.857 22.208)" fill="#c16400"/>
      <path id="Path_5899" data-name="Path 5899" d="M411.23,393.412h5.5v-4.685a1.626,1.626,0,0,1-1.626-1.637h-2.246a1.626,1.626,0,0,1-1.626,1.637Z" transform="translate(28.69 22.664)" fill="#26151a"/>
      <rect id="Rectangle_1024" data-name="Rectangle 1024" width="3.316" height="3.316" transform="translate(444.263 415.156) rotate(180)" fill="#c16400"/>
    </g>
  </g>
</svg>
