<svg id="mastercard" xmlns="http://www.w3.org/2000/svg" width="43.204" height="27" viewBox="0 0 43.204 27">
  <path id="Path_1246" data-name="Path 1246" d="M26.992,68.219a13.5,13.5,0,1,1-13.5-13.5A13.5,13.5,0,0,1,26.992,68.219Z" transform="translate(0 -54.719)" fill="#e2574c"/>
  <path id="Path_1247" data-name="Path 1247" d="M122.931,54.719a13.421,13.421,0,0,0-8.065,2.692h.011a11.567,11.567,0,0,1,1.308,1.222l-2.808.045a13.881,13.881,0,0,0-1.219,1.43h4.952a12.545,12.545,0,0,1,1.041,1.345h-6.89a13.451,13.451,0,0,0-.69,1.346h8.365a11.5,11.5,0,0,1,.581,1.3h-9.441a13,13,0,0,0-.375,1.428h10.211c.1.467.177.9.229,1.339H109.5c-.045.444-.068.9-.068,1.35h10.788a11.858,11.858,0,0,1-.082,1.35H109.5q.069.687.2,1.35h10.2c-.105.437-.227.877-.379,1.334h-9.472a13.1,13.1,0,0,0,.508,1.347h8.384a12.3,12.3,0,0,1-.786,1.345h-6.913a13.135,13.135,0,0,0,.9,1.355l4.973.074a13.141,13.141,0,0,1-1.463,1.261c.027.022-.792,0-2.406-.028a13.5,13.5,0,1,0,9.69-22.888Z" transform="translate(-93.227 -54.719)" fill="#f4b459"/>
</svg>
