<svg xmlns="http://www.w3.org/2000/svg" width="196.581" height="359.231" viewBox="0 0 196.581 359.231">
  <g id="sucess-img" transform="translate(-171.036 -116.395)">
    <path id="Path_1431" data-name="Path 1431" d="M211.644,218.167c-2.533-6.288-3.509-13.291-7.29-18.919-5.442-8.1-15.894-12.119-20.312-20.82a26.863,26.863,0,0,1-2.484-12.067c-.036-8.2,2.418-16.917,8.751-22.127,7.277-5.986,18.2-5.9,26.718-1.881S232.059,153.676,237.6,161.3s10.382,15.81,16.828,22.682c4.78,5.1,10.449,9.489,14.051,15.476,9.871,16.41-.286,37.175-17.712,43.1C235.453,247.762,216.941,231.317,211.644,218.167Z" transform="translate(2.195 4.822)" fill="#2c373f"/>
    <g id="Group_93" data-name="Group 93" transform="translate(171.336 151.483)">
      <g id="Group_89" data-name="Group 89" transform="translate(2.077)">
        <path id="Path_1432" data-name="Path 1432" d="M191.615,300.936c1.516,1.247-.138.383,2.067,1.819-.492,5.508-5.586,8.977-5.586,8.977s-.216,8.768-1.852,8.589-.59-8.443-.59-8.443-3.354,8.635-4.773,8.086,3.716-10.458,3.716-10.458-7.2,9.9-8.185,8.344,5.343-11.119,5.343-11.119-7.817,8.2-8.7,6.871,9.33-12.724,9.33-12.724c-4.727-.052-4.392-3.268-4.392-3.268l11.513.682A19.666,19.666,0,0,0,191.615,300.936Z" transform="translate(-173.002 -113.683)" fill="#ffc5b1"/>
        <path id="Path_1433" data-name="Path 1433" d="M281.492,167.311c1.97.344.442-.307,3,.436,4.2-3.814,3.64-9.809,3.64-9.809s7.041-5.645,5.874-6.749-7.283,4.844-7.283,4.844,4.971-7.9,3.634-8.606-6.239,9.307-6.239,9.307,3.608-11.546,1.711-11.3-5.76,10.926-5.76,10.926,1.819-10.937.182-10.764-4.283,14.5-4.283,14.5c-3.855-3.138-6.554-1.129-6.554-1.129l8.438,8.274A30.5,30.5,0,0,1,281.492,167.311Z" transform="translate(-152.892 -145.427)" fill="#ffc5b1"/>
        <path id="Path_1434" data-name="Path 1434" d="M241.459,203.161c3.563-.556,14.425,6.483,11.661,20.777-.232,1.2-1.8,3.842-2.189,4.935-.494,1.384,3.349,6.449,3.349,6.449l-9.919,3.169c-.424-3,.288-7.376-2.918-8.676a34.222,34.222,0,0,1-3.612-1.413c-3.055-1.668-4.686-5.317-5.94-8.3a17.979,17.979,0,0,1-1.623-7.053C230.334,206.945,235.734,204.054,241.459,203.161Z" transform="translate(-161.058 -133.39)" fill="#ffc5b1"/>
        <path id="Path_1435" data-name="Path 1435" d="M259.338,236.774c0-5.145-1.632-7.109-7.032-7.109s-12.528,1.964-12.528,7.109,3.813,11.586,9.216,11.586S259.338,241.92,259.338,236.774Z" transform="translate(-159.073 -127.856)" fill="#ffc5b1"/>
        <path id="Path_1436" data-name="Path 1436" d="M252.434,241.193s16.79-17.313,20.148-34.271,9.067-44.475,9.067-44.475l6.383,1.75s3.024,37.605,0,43.365-20.152,45.756-19.815,55.993Z" transform="translate(-156.434 -141.877)" fill="#ffc5b1"/>
        <path id="Path_1437" data-name="Path 1437" d="M236.3,234.537s-5.709.96-14.441,20.8-35.6,56.77-35.6,56.77l4.368,4.021s26.194-19.515,31.231-31.353,11.419-26.558,14.441-25.918S252.089,241.9,236.3,234.537Z" transform="translate(-170.236 -126.839)" fill="#ffc5b1"/>
        <path id="Path_1438" data-name="Path 1438" d="M267.894,254.391l7.818-21.579s-1.2-10.122-16.637-13.749l-8.742,12.6Z" transform="translate(-156.872 -130.067)" fill="#f97a5d"/>
        <path id="Path_1439" data-name="Path 1439" d="M232.707,233.167s-9.224.777-16.7,17.2c0,0,8.222,11.351,14.237,11.734C230.244,262.1,252.585,243,232.707,233.167Z" transform="translate(-164.032 -127.125)" fill="#f97a5d"/>
      </g>
      <g id="Group_90" data-name="Group 90" transform="translate(80.222 166.858)">
        <path id="Path_1440" data-name="Path 1440" d="M253.535,395.34s-13.315,27.188-14.872,22.155-1.041-17.129-.205-18.855,6.28-9.353,6.28-9.353Z" transform="translate(-237.661 -261.418)" fill="#ffc5b1"/>
        <path id="Path_1441" data-name="Path 1441" d="M253.331,288.142l12.175-4.655s36.137,63.848,35.987,81.561-49.631,53.18-49.631,53.18l-8.347-6.873s23.454-34.484,31.62-43.432c4.084-4.475-25.152-26.407-29.58-47.509S253.331,288.142,253.331,288.142Z" transform="translate(-236.439 -283.487)" fill="#5d4484"/>
      </g>
      <g id="Group_92" data-name="Group 92" transform="translate(0 158.962)">
        <g id="Group_91" data-name="Group 91" transform="translate(0 14.282)">
          <path id="Path_1442" data-name="Path 1442" d="M195.186,384.1s-24.908,18.36-23.871,13.205,7.31-15.68,8.881-16.85,10.08-5.574,10.08-5.574Z" transform="translate(-171.284 -270.809)" fill="#ffc5b1"/>
          <path id="Path_1443" data-name="Path 1443" d="M231.99,309.649l36.026-20.878s1.431,72.525-7.218,88.207-69.685,25.616-69.685,25.616L187,392.843s37.656-22.436,49.219-26.828S231.99,309.649,231.99,309.649Z" transform="translate(-168.006 -288.771)" fill="#6e5395"/>
        </g>
        <path id="Path_1444" data-name="Path 1444" d="M245.792,276.954s-26.526,9.393-21.456,35.16,13.523,30.6,13.523,30.6l15.213-24.961,15.273-32.689-15.273-1.936Z" transform="translate(-160.352 -276.954)" fill="#6e5395"/>
      </g>
      <path id="Path_1445" data-name="Path 1445" d="M257.67,227.6A42.023,42.023,0,0,1,277.2,263.277s-2.481,28.2-6.5,34.357a37.679,37.679,0,0,1-14.686,0c-8.545-1.673-16.814-7.678-16.814-7.678l-6.674-34.52-5.193-20.157,2.815-.928,14.689-1.612s-2.111,21.941,14.289,11.044c3.454-2.294-4.3-13.734-4.3-13.734Z" transform="translate(-159.593 -128.286)" fill="#f97a5d"/>
    </g>
    <path id="Path_1446" data-name="Path 1446" d="M262.324,157.342l40.947,23.886L326.3,137.722l-38.388-21.327Z" transform="translate(19.042)" fill="#ece9f2"/>
    <path id="Path_1447" data-name="Path 1447" d="M313.2,333.012l29.286-18.129L318.29,272.65l-26.772,17.359Z" transform="translate(25.132 32.593)" fill="#fff"/>
    <g id="Group_94" data-name="Group 94" transform="translate(194.13 185.642)">
      <path id="Path_1448" data-name="Path 1448" d="M190.152,173.695a11.285,11.285,0,0,1,2.411,2.426,49.738,49.738,0,0,1,5.315,7.665,55.777,55.777,0,0,1,5.275,12.816c1.431,5.008,2.391,10.637,4.59,16.057a35.691,35.691,0,0,0,4.173,7.376,39.939,39.939,0,0,0,5.4,5.789,38.455,38.455,0,0,0,11.558,6.8,37.233,37.233,0,0,0,8.867,2.116,18.186,18.186,0,0,1,3.37.413,10.823,10.823,0,0,1-3.417.231,31.924,31.924,0,0,1-9.207-1.652,37.589,37.589,0,0,1-12.161-6.745,39.917,39.917,0,0,1-5.714-5.979,36.185,36.185,0,0,1-4.41-7.724c-2.292-5.667-3.2-11.345-4.53-16.286a59.559,59.559,0,0,0-4.831-12.656,65.674,65.674,0,0,0-4.794-7.829A16.916,16.916,0,0,1,190.152,173.695Z" transform="translate(-190.144 -173.691)" fill="#2c373f"/>
    </g>
    <g id="Group_95" data-name="Group 95" transform="translate(244.361 157.701)">
      <path id="Path_1449" data-name="Path 1449" d="M231.791,150.572c.3-.046.592,3.985,2.849,9.947a44.841,44.841,0,0,0,5.207,9.811A47.693,47.693,0,0,0,244,175.417c1.555,1.692,3.25,3.409,4.851,5.336a75.918,75.918,0,0,1,7.5,11.8,48.1,48.1,0,0,1,4.547,10.5,19.257,19.257,0,0,1,.647,7.725,6.41,6.41,0,0,1-.817,2.722,17.087,17.087,0,0,1,.173-2.779,21.448,21.448,0,0,0-1.129-7.336,52.67,52.67,0,0,0-4.755-10.08,83.637,83.637,0,0,0-7.445-11.488c-1.54-1.854-3.21-3.565-4.775-5.3a46.11,46.11,0,0,1-4.212-5.318,41.858,41.858,0,0,1-5.052-10.284,37.187,37.187,0,0,1-1.686-7.516A7.823,7.823,0,0,1,231.791,150.572Z" transform="translate(-231.706 -150.572)" fill="#2c373f"/>
    </g>
    <g id="Group_96" data-name="Group 96" transform="translate(252.099 230.72)">
      <path id="Path_1450" data-name="Path 1450" d="M243.008,217.059c-.016-.116.651-.221,1.281-.962a1.133,1.133,0,0,0,.29-.564.907.907,0,0,0-.3-.583.856.856,0,0,0-.7-.23c-.295.022-.654.168-1.123.238a2.976,2.976,0,0,1-2.356-.914,8.447,8.447,0,0,1-1.264-1.445c-.613-.905-.8-1.559-.709-1.606s.479.482,1.17,1.241a12.16,12.16,0,0,0,1.3,1.228,2.392,2.392,0,0,0,1.749.674c.329-.041.711-.2,1.178-.227a1.621,1.621,0,0,1,1.292.5,1.534,1.534,0,0,1,.446,1.192,1.6,1.6,0,0,1-.554.906C243.808,217.3,242.979,217.167,243.008,217.059Z" transform="translate(-238.108 -210.988)" fill="#f97a5d"/>
    </g>
    <path id="Path_1451" data-name="Path 1451" d="M247.523,216.575l-7.863,2.86S246.333,225.272,247.523,216.575Z" transform="translate(14.314 20.897)" fill="#fff"/>
    <path id="Path_1452" data-name="Path 1452" d="M239.582,216.263c.314.6-.151,1.46-1.039,1.926s-1.862.364-2.177-.233.151-1.459,1.039-1.926S239.269,215.667,239.582,216.263Z" transform="translate(13.607 20.722)" fill="#f4b19f"/>
    <path id="Path_1453" data-name="Path 1453" d="M247.315,212.326c.257.622-.286,1.438-1.213,1.821s-1.889.189-2.146-.435.286-1.438,1.215-1.821S247.058,211.7,247.315,212.326Z" transform="translate(15.197 19.879)" fill="#f4b19f"/>
    <path id="Path_1454" data-name="Path 1454" d="M239.852,225.434a14.872,14.872,0,0,0,5.985-.3,8.351,8.351,0,0,1-4.355,1.98A4.686,4.686,0,0,0,239.852,225.434Z" transform="translate(14.354 22.681)" fill="#eda091"/>
    <path id="Path_1455" data-name="Path 1455" d="M242.275,210.785a.7.7,0,1,1-.987.081A.7.7,0,0,1,242.275,210.785Z" transform="translate(14.619 19.654)" fill="#2c373f"/>
    <path id="Path_1456" data-name="Path 1456" d="M237.9,213.3a.7.7,0,1,1-.987.081A.7.7,0,0,1,237.9,213.3Z" transform="translate(13.707 20.179)" fill="#2c373f"/>
    <g id="Group_97" data-name="Group 97" transform="translate(253.977 227.056)">
      <path id="Path_1457" data-name="Path 1457" d="M242.611,208.414c-.07.224-.726.216-1.448.435-.728.2-1.28.551-1.459.4-.185-.131.244-.917,1.23-1.2S242.7,208.206,242.611,208.414Z" transform="translate(-239.662 -207.957)" fill="#2c373f"/>
    </g>
    <g id="Group_98" data-name="Group 98" transform="translate(247.745 230.509)">
      <path id="Path_1458" data-name="Path 1458" d="M234.557,213.332c-.175-.131.1-.882.772-1.634.679-.769,1.549-1.025,1.641-.811s-.433.7-1.03,1.372S234.748,213.475,234.557,213.332Z" transform="translate(-234.505 -210.814)" fill="#2c373f"/>
    </g>
    <path id="Path_1459" data-name="Path 1459" d="M232.764,217.9s-2.522-2.119-3.732-.2,5.447,2.926,5.447,2.926Z" transform="translate(12.067 20.964)" fill="#ffc5b1"/>
    <path id="Path_1460" data-name="Path 1460" d="M184.182,377.573s-3.616,1.571-4.56,2.515-9.59,15.879-8.489,17.765,9.771-4.518,9.771-4.518-7.256,1.374,3.278-15.762" transform="translate(0 54.479)" fill="#6e5395"/>
    <path id="Path_1461" data-name="Path 1461" d="M240.89,393.914s-2.568,2.776-2.965,4.05-1.1,18.518.747,19.676,6.913-8.356,6.913-8.356-6.05,4.74-4.7-15.33" transform="translate(13.854 57.888)" fill="#6e5395"/>
  </g>
</svg>
